{"glyphs":{"0":{"ha":883,"x_min":0,"x_max":0,"o":"m 440 -17 b 818 511 669 -17 818 197 b 443 1028 818 831 664 1028 b 65 500 214 1028 65 814 b 440 -17 65 181 219 -17 z m 446 3 b 140 513 251 3 140 211 b 438 1008 140 803 243 1008 b 743 500 633 1008 743 800 b 446 3 743 208 640 3 z "},"1":{"ha":376,"x_min":0,"x_max":0,"o":"m 263 1028 b 14 808 201 928 97 847 l 14 792 b 199 883 75 814 144 846 l 199 0 l 268 0 l 268 1028 z "},"2":{"ha":699,"x_min":0,"x_max":0,"o":"m 221 53 l 111 53 l 133 74 b 624 763 513 429 624 614 b 349 1028 624 925 510 1028 b 35 794 146 1028 69 871 l 53 786 b 335 981 129 936 235 981 b 543 754 467 981 543 885 b 117 89 543 613 453 436 l 36 6 l 36 0 l 632 0 l 657 81 b 221 53 518 61 401 53 z "},"3":{"ha":685,"x_min":0,"x_max":0,"o":"m 288 -17 b 624 289 469 -17 624 93 b 378 558 624 431 507 533 l 378 561 b 586 818 479 603 586 700 b 339 1028 586 956 471 1028 b 54 860 192 1028 106 940 l 72 851 b 328 986 108 906 203 986 b 511 806 431 986 511 924 b 293 547 511 674 408 583 l 235 529 l 240 514 l 297 510 b 557 268 461 497 557 390 b 301 6 557 106 440 6 b 56 103 207 6 135 29 l 40 50 b 288 -17 121 6 207 -17 z "},"4":{"ha":731,"x_min":0,"x_max":0,"o":"m 707 356 l 543 356 l 543 1022 l 538 1022 l 7 306 l 7 300 l 474 300 l 474 0 l 543 0 l 543 300 l 693 300 z m 79 356 l 474 889 l 474 356 z "},"5":{"ha":661,"x_min":0,"x_max":0,"o":"m 168 644 l 132 644 l 158 953 l 568 953 l 586 1011 l 136 1011 l 97 575 l 150 575 b 544 285 417 575 544 460 b 283 6 544 122 433 6 b 50 99 194 6 122 29 l 35 46 b 274 -17 114 4 194 -17 b 611 306 457 -17 611 110 b 168 644 611 506 467 644 z "},"6":{"ha":725,"x_min":0,"x_max":0,"o":"m 381 -17 b 690 301 553 -17 690 111 b 406 603 690 482 568 603 b 206 529 329 603 265 581 l 219 513 b 385 571 271 554 328 571 b 610 285 521 571 610 464 b 392 3 610 114 528 3 b 143 385 238 3 143 144 b 533 1007 143 682 290 921 l 526 1028 b 63 388 239 932 63 685 b 381 -17 63 128 197 -17 z "},"7":{"ha":643,"x_min":0,"x_max":0,"o":"m 29 1011 l 4 919 b 426 953 99 942 246 953 l 588 953 l 179 0 l 257 0 l 633 1006 l 633 1011 z "},"8":{"ha":744,"x_min":0,"x_max":0,"o":"m 439 539 l 438 539 b 643 806 540 583 643 665 b 381 1028 643 931 529 1028 b 107 776 207 1028 107 908 b 294 521 107 654 182 576 b 58 228 147 469 58 375 b 361 -17 58 75 204 -17 b 685 261 549 -17 685 108 b 439 539 685 389 599 472 z m 168 796 b 371 1008 168 914 244 1008 b 574 794 490 1008 574 917 b 414 549 574 693 514 606 l 369 568 b 168 796 239 622 168 692 z m 379 3 b 129 240 246 3 129 104 b 317 510 129 346 186 453 l 336 501 l 406 472 b 624 238 546 414 624 339 b 379 3 624 104 511 3 z "},"9":{"ha":725,"x_min":0,"x_max":0,"o":"m 199 -17 b 663 624 486 79 663 326 b 344 1028 663 883 528 1028 b 35 710 172 1028 35 900 b 325 408 35 529 160 408 b 519 482 396 408 460 431 l 506 499 b 340 440 454 457 397 440 b 115 726 204 440 115 547 b 333 1008 115 897 197 1008 b 582 626 488 1008 582 867 b 192 4 582 329 435 90 z "},"\r":{"ha":300,"x_min":0,"x_max":0,"o":""}," ":{"ha":300,"x_min":0,"x_max":0,"o":""},"!":{"ha":258,"x_min":0,"x_max":0,"o":"m 119 267 l 139 267 l 169 1011 l 89 1011 z m 129 -28 l 199 42 l 129 111 l 60 42 z "},"\"":{"ha":375,"x_min":0,"x_max":0,"o":"m 90 628 l 104 628 l 135 1028 l 60 1028 z m 271 628 l 285 628 l 315 1028 l 240 1028 z "},"#":{"ha":743,"x_min":0,"x_max":0,"o":"m 706 668 l 706 693 l 561 693 l 604 1011 l 576 1011 l 533 693 l 263 693 l 306 1011 l 278 1011 l 235 693 l 92 693 l 92 668 l 231 668 l 186 343 l 38 343 l 38 318 l 182 318 l 139 0 l 167 0 l 210 318 l 481 318 l 438 0 l 465 0 l 508 318 l 651 318 l 651 343 l 513 343 l 557 668 z m 485 343 l 214 343 l 258 668 l 529 668 z "},"$":{"ha":715,"x_min":0,"x_max":0,"o":"m 419 549 l 378 569 l 417 999 b 618 897 496 983 568 943 l 633 950 b 419 1024 579 983 500 1013 l 431 1151 l 403 1151 l 392 1026 b 357 1028 381 1028 368 1028 b 63 785 182 1028 63 925 b 318 510 63 635 199 567 l 343 497 l 299 11 b 58 138 210 28 114 74 l 40 79 b 296 -12 106 35 203 -1 l 285 -140 l 313 -140 l 324 -15 b 354 -17 333 -17 344 -17 b 674 260 518 -17 674 78 b 419 549 674 419 557 482 z m 350 582 b 129 814 238 636 129 693 b 346 1006 129 917 210 1006 b 389 1003 361 1006 375 1004 z m 363 6 b 326 7 350 6 339 6 l 369 485 l 388 476 b 610 225 489 428 610 361 b 363 6 610 97 503 6 z "},"%":{"ha":1056,"x_min":0,"x_max":0,"o":"m 258 528 b 478 776 388 528 478 628 b 260 1019 478 922 388 1019 b 39 771 129 1019 39 919 b 258 528 39 624 129 528 z m 207 0 l 239 0 l 850 1011 l 818 1011 z m 261 544 b 89 776 157 544 89 633 b 257 1003 89 918 154 1003 b 428 771 360 1003 428 914 b 261 544 428 629 363 544 z m 796 -8 b 1017 240 926 -8 1017 92 b 797 483 1017 388 926 483 b 578 235 668 483 578 383 b 796 -8 578 89 668 -8 z m 799 8 b 628 240 696 8 628 97 b 794 467 628 382 693 467 b 967 235 899 467 967 378 b 799 8 967 93 901 8 z "},"&":{"ha":936,"x_min":0,"x_max":0,"o":"m 786 185 b 860 479 835 263 860 361 l 860 632 l 854 632 l 790 603 b 832 450 801 579 832 525 b 771 197 832 346 810 263 l 396 524 b 217 808 328 582 217 683 b 399 1008 217 897 272 1008 b 586 794 508 1008 586 917 b 399 571 586 683 515 613 l 414 557 b 649 806 531 590 649 669 b 408 1028 649 931 544 1028 b 158 788 267 1028 158 922 b 275 540 158 688 217 603 b 51 250 125 472 51 365 b 379 -17 51 96 179 -17 b 744 128 536 -17 661 33 l 910 -17 l 915 -17 l 915 72 z m 399 7 b 121 268 235 7 121 118 b 288 528 121 357 161 461 b 347 472 308 506 329 488 l 729 140 b 399 7 646 46 521 7 z "},"'":{"ha":194,"x_min":0,"x_max":0,"o":"m 90 628 l 104 628 l 135 1028 l 60 1028 z "},"(":{"ha":315,"x_min":0,"x_max":0,"o":"m 269 -231 l 288 -218 b 114 431 165 -57 114 176 b 288 1074 114 685 165 913 l 269 1086 b 53 422 135 915 53 690 b 269 -231 53 154 135 -60 z "},")":{"ha":314,"x_min":0,"x_max":0,"o":"m 44 -231 b 261 433 179 -60 261 165 b 44 1086 261 701 179 915 l 26 1074 b 200 425 149 913 200 679 b 26 -218 200 171 149 -57 z "},"*":{"ha":622,"x_min":0,"x_max":0,"o":"m 565 860 l 528 924 l 315 763 l 349 1028 l 274 1028 l 307 763 l 94 924 l 57 860 l 303 756 l 57 651 l 94 588 l 307 749 l 274 483 l 349 483 l 315 749 l 528 588 l 565 651 l 319 756 z "},"+":{"ha":706,"x_min":0,"x_max":0,"o":"m 636 519 l 368 519 l 368 797 l 338 797 l 338 519 l 69 519 l 69 492 l 338 492 l 338 214 l 368 214 l 368 492 l 636 492 z "},",":{"ha":232,"x_min":0,"x_max":0,"o":"m 69 -197 b 190 -18 149 -154 190 -83 b 107 114 190 33 164 83 l 49 56 b 135 -74 106 17 135 -29 b 63 -187 135 -115 111 -154 z "},"-":{"ha":429,"x_min":0,"x_max":0,"o":"m 65 363 l 364 363 l 364 404 l 65 404 z "},".":{"ha":219,"x_min":0,"x_max":0,"o":"m 110 -28 l 179 42 l 110 111 l 40 42 z "},"/":{"ha":508,"x_min":0,"x_max":0,"o":"m 33 -89 l 68 -89 l 474 1086 l 439 1086 z "},":":{"ha":289,"x_min":0,"x_max":0,"o":"m 144 561 l 214 631 l 144 700 l 75 631 z m 144 -28 l 214 42 l 144 111 l 75 42 z "},";":{"ha":306,"x_min":0,"x_max":0,"o":"m 153 561 l 222 631 l 153 700 l 83 631 z m 104 -197 b 225 -18 183 -154 225 -83 b 142 114 225 33 199 83 l 83 56 b 169 -74 140 17 169 -29 b 97 -187 169 -115 146 -154 z "},"<":{"ha":706,"x_min":0,"x_max":0,"o":"m 619 756 l 606 781 l 53 518 l 53 493 l 606 231 l 619 256 l 93 506 z "},"=":{"ha":706,"x_min":0,"x_max":0,"o":"m 69 592 l 636 592 l 636 619 l 69 619 z m 69 392 l 636 392 l 636 419 l 69 419 z "},">":{"ha":706,"x_min":0,"x_max":0,"o":"m 100 781 l 86 756 l 613 506 l 86 256 l 100 231 l 653 493 l 653 518 z "},"?":{"ha":643,"x_min":0,"x_max":0,"o":"m 353 267 b 399 271 369 267 383 268 l 394 290 b 356 286 381 288 369 286 b 275 349 314 286 275 301 b 592 810 275 479 592 599 b 331 1028 592 946 475 1028 b 32 872 164 1028 72 921 l 49 861 b 304 989 90 913 176 989 b 511 804 435 989 511 910 b 231 358 511 594 231 501 b 353 267 231 293 286 267 z m 331 -28 l 400 42 l 331 111 l 261 42 z "},"@":{"ha":1193,"x_min":0,"x_max":0,"o":"m 899 732 l 890 732 l 840 675 b 685 738 806 714 751 738 b 369 383 504 738 369 565 b 542 181 369 246 447 181 b 758 299 615 181 696 219 b 889 194 763 242 792 194 b 1169 549 1057 194 1169 354 b 649 1028 1169 821 949 1028 b 47 428 311 1028 47 765 b 625 -132 47 100 296 -132 b 986 -17 763 -132 886 -92 l 972 0 b 631 -110 878 -71 758 -110 b 97 435 324 -110 97 119 b 643 1006 97 760 339 1006 b 1125 547 918 1006 1125 806 b 904 218 1125 363 1019 218 b 818 313 844 218 818 249 b 829 399 818 336 822 365 z m 571 211 b 436 393 497 211 436 267 b 678 715 436 557 540 715 b 817 639 735 715 786 689 l 768 401 b 757 333 765 390 760 363 b 571 211 707 253 635 211 z "},"A":{"ha":819,"x_min":0,"x_max":0,"o":"m 733 0 l 811 0 l 413 1028 l 407 1028 l 179 440 b 6 0 122 293 64 139 l 68 0 b 169 336 85 82 108 172 l 604 336 z m 178 361 l 206 432 l 386 899 l 594 361 z "},"B":{"ha":829,"x_min":0,"x_max":0,"o":"m 506 531 l 506 533 b 717 768 608 558 717 639 b 381 1011 717 913 613 1011 l 106 1011 l 106 0 l 367 0 b 783 276 635 0 783 107 b 506 531 783 421 657 519 z m 639 760 b 393 532 639 632 547 532 l 178 532 l 178 989 l 368 989 b 639 760 553 989 639 885 z m 351 22 b 178 32 307 22 210 25 l 178 510 l 421 510 b 703 258 594 510 703 408 b 351 22 703 110 594 22 z "},"C":{"ha":979,"x_min":0,"x_max":0,"o":"m 542 -17 b 960 225 731 -17 867 78 l 943 235 b 574 25 849 89 714 25 b 138 522 328 25 138 225 b 557 1006 138 808 319 1006 b 899 822 694 1006 813 943 l 946 864 b 565 1028 864 965 731 1028 b 57 500 279 1028 57 818 b 542 -17 57 179 269 -17 z "},"D":{"ha":1003,"x_min":0,"x_max":0,"o":"m 439 1011 l 106 1011 l 106 0 l 431 0 b 944 518 740 0 944 190 b 439 1011 944 835 749 1011 z m 439 22 b 178 35 310 22 222 26 l 178 989 l 425 989 b 864 510 685 989 864 796 b 439 22 864 199 703 22 z "},"E":{"ha":715,"x_min":0,"x_max":0,"o":"m 690 53 b 272 25 551 33 394 25 l 178 25 l 178 514 l 267 514 b 564 503 417 514 511 508 l 567 503 l 567 547 l 564 547 b 267 539 511 542 417 539 l 178 539 l 178 986 l 272 986 b 664 958 394 986 525 978 l 667 958 l 650 1011 l 106 1011 l 106 0 l 671 0 l 693 53 z "},"F":{"ha":651,"x_min":0,"x_max":0,"o":"m 244 986 b 636 958 367 986 497 978 l 639 958 l 622 1011 l 106 1011 l 106 0 l 178 0 l 178 497 l 253 497 b 550 486 403 497 497 492 l 553 486 l 553 531 l 550 531 b 253 522 497 525 403 522 l 178 522 l 178 986 z "},"G":{"ha":1029,"x_min":0,"x_max":0,"o":"m 618 458 l 633 433 l 896 433 l 896 124 b 581 8 819 57 713 8 b 138 508 318 8 138 214 b 557 1006 138 811 319 1006 b 899 822 694 1006 813 943 l 946 864 b 572 1028 864 965 731 1028 b 57 499 281 1028 57 818 b 572 -17 57 179 269 -17 b 968 119 763 -17 893 58 l 968 458 z "},"H":{"ha":922,"x_min":0,"x_max":0,"o":"m 744 1011 l 744 539 l 178 539 l 178 1011 l 106 1011 l 106 0 l 178 0 l 178 514 l 744 514 l 744 0 l 817 0 l 817 1011 z "},"I":{"ha":283,"x_min":0,"x_max":0,"o":"m 106 0 l 178 0 l 178 1011 l 106 1011 z "},"J":{"ha":289,"x_min":0,"x_max":0,"o":"m -82 -208 b 188 317 124 -97 188 -22 l 188 1011 l 115 1011 l 115 306 b -92 -192 115 50 93 -78 z "},"K":{"ha":821,"x_min":0,"x_max":0,"o":"m 106 0 l 178 0 l 178 1011 l 106 1011 z m 804 1008 l 804 1011 l 722 1011 b 435 707 675 947 585 847 l 233 518 l 799 -17 l 804 -17 l 804 79 l 307 550 l 453 686 b 804 1008 569 794 688 903 z "},"L":{"ha":576,"x_min":0,"x_max":0,"o":"m 560 53 b 211 25 415 31 294 25 l 178 25 l 178 1011 l 106 1011 l 106 0 l 540 0 l 563 53 z "},"M":{"ha":1147,"x_min":0,"x_max":0,"o":"m 1082 0 l 988 1011 l 922 1011 l 586 183 l 221 1011 l 143 1011 l 143 1007 l 160 969 l 111 446 b 58 0 93 251 78 111 l 114 0 b 139 444 114 111 121 250 l 183 917 l 560 64 l 565 64 l 921 939 l 1008 0 z "},"N":{"ha":876,"x_min":0,"x_max":0,"o":"m 726 1011 b 740 569 738 900 740 764 l 740 139 l 150 1011 l 65 1011 l 65 1007 l 110 942 l 110 442 b 96 0 110 247 107 111 l 151 0 b 138 442 140 111 138 247 l 138 900 l 760 -17 l 768 -17 l 768 569 b 782 1011 768 764 771 900 z "},"O":{"ha":1139,"x_min":0,"x_max":0,"o":"m 561 -17 b 1083 514 849 -17 1083 193 b 578 1028 1083 829 857 1028 b 56 497 290 1028 56 818 b 561 -17 56 182 282 -17 z m 575 6 b 136 511 331 6 136 208 b 567 1006 136 808 325 1006 b 1003 500 808 1006 1003 803 b 575 6 1003 201 814 6 z "},"P":{"ha":728,"x_min":0,"x_max":0,"o":"m 293 1011 l 106 1011 l 106 0 l 178 0 l 178 435 b 293 426 207 431 250 426 b 685 738 533 426 685 549 b 293 1011 685 915 551 1011 z m 290 449 b 178 458 244 449 206 453 l 178 989 l 293 989 b 604 721 507 989 604 881 b 290 449 604 551 497 449 z "},"Q":{"ha":1139,"x_min":0,"x_max":0,"o":"m 1160 -175 b 714 4 999 -175 843 -112 b 1083 514 928 64 1083 253 b 578 1028 1083 829 857 1028 b 56 497 290 1028 56 818 b 561 -17 56 182 282 -17 b 629 -12 585 -17 607 -15 b 1100 -208 725 -132 926 -208 b 1288 -168 1171 -208 1235 -196 l 1288 -162 b 1160 -175 1244 -171 1203 -175 z m 136 511 b 567 1006 136 808 325 1006 b 1003 500 808 1006 1003 803 b 575 6 1003 201 814 6 b 136 511 331 6 136 208 z "},"R":{"ha":797,"x_min":0,"x_max":0,"o":"m 444 475 b 683 751 572 525 683 600 b 293 1011 683 926 540 1011 l 106 1011 l 106 0 l 178 0 l 178 454 l 313 454 b 394 422 361 454 375 444 l 771 -17 l 776 -17 l 776 89 z m 325 476 b 178 486 293 476 214 479 l 178 989 l 293 989 b 603 743 500 989 603 893 b 325 476 603 599 496 476 z "},"S":{"ha":726,"x_min":0,"x_max":0,"o":"m 358 -17 b 678 260 522 -17 678 78 b 424 549 678 419 561 482 l 354 582 b 133 819 236 639 133 693 b 350 1006 133 922 214 1006 b 622 897 457 1006 558 957 l 638 950 b 361 1028 569 992 464 1028 b 67 785 186 1028 67 925 b 322 510 67 635 203 567 l 392 476 b 614 219 499 425 614 361 b 367 6 614 92 507 6 b 67 119 263 6 136 53 l 49 61 b 358 -17 129 19 250 -17 z "},"T":{"ha":756,"x_min":0,"x_max":0,"o":"m 725 1011 l 31 1011 l 14 958 l 17 958 b 300 986 128 978 217 986 l 342 986 l 342 0 l 414 0 l 414 986 l 456 986 b 739 958 539 986 628 978 l 742 958 z "},"U":{"ha":882,"x_min":0,"x_max":0,"o":"m 440 -17 b 781 336 668 -17 781 110 l 781 569 b 794 1011 781 764 783 900 l 739 1011 b 753 569 750 900 753 764 l 753 329 b 463 19 753 124 646 19 b 171 336 268 19 171 129 l 171 1011 l 99 1011 l 99 329 b 440 -17 99 106 217 -17 z "},"V":{"ha":819,"x_min":0,"x_max":0,"o":"m 751 1011 b 614 579 732 914 703 807 l 433 113 l 86 1011 l 8 1011 l 407 -17 l 413 -17 l 640 571 b 814 1011 697 718 756 872 z "},"W":{"ha":1310,"x_min":0,"x_max":0,"o":"m 1238 1011 b 1122 576 1219 900 1186 767 l 974 132 l 683 1011 l 678 1011 l 382 131 l 90 1011 l 14 1011 l 356 -17 l 361 -17 l 657 865 l 949 -17 l 954 -17 l 1149 568 b 1299 1011 1197 715 1247 864 z "},"X":{"ha":817,"x_min":0,"x_max":0,"o":"m 447 542 l 519 643 b 790 1011 629 797 724 928 l 710 1011 b 497 658 674 928 601 804 l 431 564 l 85 1011 l -7 1011 l 383 508 l 282 367 b 13 0 194 244 79 83 l 93 0 b 303 350 132 83 203 208 l 400 488 l 790 -17 l 796 -17 l 796 93 z "},"Y":{"ha":768,"x_min":0,"x_max":0,"o":"m 747 1011 l 685 1011 b 482 611 651 915 583 786 l 407 482 l 104 1011 l 21 1011 l 349 450 l 349 0 l 421 0 l 421 453 l 506 599 b 747 1011 585 736 665 874 z "},"Z":{"ha":707,"x_min":0,"x_max":0,"o":"m 692 53 b 232 25 569 33 432 25 l 100 25 l 689 1006 l 689 1011 l 51 1011 l 35 958 l 38 958 b 485 986 143 978 285 986 l 596 986 l 7 6 l 7 0 l 672 0 l 694 53 z "},"[":{"ha":347,"x_min":0,"x_max":0,"o":"m 350 1086 l 100 1086 l 100 -231 l 350 -231 l 350 -214 l 133 -214 b 161 428 151 0 161 214 b 133 1069 161 642 151 856 l 350 1069 z "},"\\":{"ha":508,"x_min":0,"x_max":0,"o":"m 440 -89 l 475 -89 l 69 1086 l 35 1086 z "},"]":{"ha":347,"x_min":0,"x_max":0,"o":"m -3 1086 l -3 1069 l 214 1069 b 186 428 196 856 186 642 b 214 -214 186 214 196 0 l -3 -214 l -3 -231 l 247 -231 l 247 1086 z "},"^":{"ha":706,"x_min":0,"x_max":0,"o":"m 651 497 l 356 1028 l 350 1028 l 54 497 l 79 483 l 353 975 l 626 483 z "},"_":{"ha":522,"x_min":0,"x_max":0,"o":"m -3 -119 l 525 -119 l 525 -89 l -3 -89 z "},"`":{"ha":833,"x_min":0,"x_max":0,"o":"m 439 842 l 449 849 l 335 1072 l 229 1072 z "},"a":{"ha":663,"x_min":0,"x_max":0,"o":"m 626 25 b 557 131 557 25 557 64 l 557 486 b 329 744 557 664 479 744 b 78 636 229 744 154 706 l 90 621 b 301 708 160 681 224 708 b 490 475 429 708 490 632 l 490 392 b 346 379 444 389 394 385 b 26 150 157 357 26 283 b 218 -14 26 46 107 -14 b 490 96 307 -14 413 24 b 572 -6 493 58 504 -6 b 651 19 599 -6 625 4 l 651 28 b 626 25 643 26 635 25 z m 96 171 b 490 372 96 319 267 353 l 490 122 b 258 22 422 56 335 22 b 96 171 168 22 96 71 z "},"b":{"ha":763,"x_min":0,"x_max":0,"o":"m 406 744 b 150 628 311 744 221 701 l 150 1125 l 144 1125 l 83 1097 l 83 0 l 89 0 l 133 92 b 374 -17 196 22 282 -17 b 718 374 558 -17 718 138 b 406 744 718 590 586 744 z m 372 6 b 150 144 278 6 194 58 l 150 593 b 388 711 215 668 307 711 b 643 363 531 711 643 574 b 372 6 643 144 524 6 z "},"c":{"ha":686,"x_min":0,"x_max":0,"o":"m 374 -17 b 665 156 499 -17 599 51 l 649 165 b 394 22 588 69 481 22 b 119 372 242 22 119 156 b 383 725 119 583 235 725 b 614 576 481 725 554 669 l 658 615 b 383 744 596 701 504 744 b 44 360 196 744 44 588 b 374 -17 44 135 183 -17 z "},"d":{"ha":767,"x_min":0,"x_max":0,"o":"m 710 17 l 679 122 l 679 1125 l 674 1125 l 613 1097 l 613 654 b 389 744 551 713 474 744 b 44 354 204 744 44 590 b 357 -17 44 138 176 -17 b 614 103 453 -17 543 28 l 649 -11 z m 375 17 b 119 365 232 17 119 154 b 390 722 119 583 239 722 b 613 583 485 722 568 669 l 613 135 b 375 17 547 60 456 17 z "},"e":{"ha":715,"x_min":0,"x_max":0,"o":"m 394 22 b 119 378 242 22 119 156 b 121 419 119 392 119 406 l 678 419 b 394 744 678 625 567 744 b 44 357 194 744 44 589 b 372 -17 44 135 183 -17 b 665 156 499 -17 599 51 l 649 165 b 394 22 588 69 481 22 z m 385 725 b 603 442 519 725 600 611 l 124 442 b 385 725 144 613 250 725 z "},"f":{"ha":464,"x_min":0,"x_max":0,"o":"m 392 1097 b 550 1065 432 1097 479 1094 l 558 1082 b 365 1131 494 1115 429 1131 b 147 872 226 1131 147 1044 l 147 728 l 26 728 l 26 697 l 147 697 l 147 0 l 214 0 l 214 697 l 451 697 l 471 728 l 214 728 l 214 861 b 392 1097 214 1024 275 1097 z "},"g":{"ha":675,"x_min":0,"x_max":0,"o":"m 433 97 l 232 110 b 122 168 151 115 122 131 b 171 240 122 190 133 215 l 208 265 b 319 244 242 251 279 244 b 586 494 471 244 586 349 b 496 686 586 574 551 642 b 582 708 517 701 549 708 b 651 700 604 708 628 706 l 661 785 b 476 700 585 785 521 750 b 319 746 433 729 379 746 b 53 494 168 746 53 640 b 186 275 53 396 106 317 l 151 254 b 67 143 94 221 67 190 b 228 43 67 68 147 49 l 428 31 b 600 -106 536 24 600 -25 b 308 -311 600 -232 485 -311 b 69 -114 157 -311 69 -229 b 94 0 69 -79 78 -40 l 89 0 l 42 -14 b 14 -124 22 -53 14 -90 b 308 -333 14 -247 131 -333 b 661 -81 514 -333 661 -214 b 433 97 661 31 575 89 z m 319 724 b 514 494 432 724 514 628 b 319 267 514 361 433 267 b 125 494 206 267 125 361 b 319 724 125 628 207 724 z "},"h":{"ha":746,"x_min":0,"x_max":0,"o":"m 438 744 b 150 618 328 744 240 701 l 150 1125 l 144 1125 l 83 1097 l 83 0 l 150 0 l 150 592 b 408 708 235 672 318 708 b 600 475 600 708 600 536 l 600 0 l 667 0 l 667 486 b 438 744 667 663 589 744 z "},"i":{"ha":244,"x_min":0,"x_max":0,"o":"m 122 883 l 186 947 l 122 1011 l 58 947 z m 89 0 l 156 0 l 156 739 l 150 739 l 89 711 z "},"j":{"ha":250,"x_min":0,"x_max":0,"o":"m 128 883 l 192 947 l 128 1011 l 64 947 z m -75 -317 b 161 -49 78 -294 161 -199 l 161 739 l 156 739 l 94 711 l 94 -49 b -81 -300 94 -189 29 -281 z "},"k":{"ha":650,"x_min":0,"x_max":0,"o":"m 83 1097 l 83 0 l 150 0 l 150 1125 l 144 1125 z m 261 432 l 328 490 b 631 725 436 586 525 653 l 631 728 l 549 728 b 313 513 488 664 421 607 l 192 407 l 633 -17 l 639 -17 l 639 71 z "},"l":{"ha":244,"x_min":0,"x_max":0,"o":"m 89 0 l 156 0 l 156 1125 l 150 1125 l 89 1097 z "},"m":{"ha":1235,"x_min":0,"x_max":0,"o":"m 926 744 b 638 606 811 744 731 696 b 424 744 607 700 536 744 b 150 618 314 744 238 701 l 150 739 l 144 739 l 83 711 l 83 0 l 150 0 l 150 592 b 394 708 233 672 304 708 b 586 475 586 708 586 536 l 586 0 l 653 0 l 653 486 b 643 581 653 522 650 553 b 897 708 731 668 804 708 b 1089 475 1089 708 1089 536 l 1089 0 l 1156 0 l 1156 486 b 926 744 1156 663 1078 744 z "},"n":{"ha":746,"x_min":0,"x_max":0,"o":"m 438 744 b 150 618 328 744 240 701 l 150 739 l 144 739 l 83 711 l 83 0 l 150 0 l 150 592 b 408 708 235 672 318 708 b 600 475 600 708 600 536 l 600 0 l 667 0 l 667 486 b 438 744 667 663 589 744 z "},"o":{"ha":789,"x_min":0,"x_max":0,"o":"m 389 -17 b 744 368 592 -17 744 136 b 400 744 744 601 599 744 b 44 360 197 744 44 592 b 389 -17 44 126 190 -17 z m 396 3 b 119 368 240 3 119 147 b 392 725 119 586 239 725 b 669 360 549 725 669 581 b 396 3 669 143 550 3 z "},"p":{"ha":763,"x_min":0,"x_max":0,"o":"m 406 744 b 150 628 311 744 221 701 l 150 739 l 144 739 l 83 711 l 83 -317 l 150 -317 l 150 74 b 374 -17 211 15 289 -17 b 718 374 558 -17 718 138 b 406 744 718 590 586 744 z m 372 6 b 150 144 278 6 194 58 l 150 593 b 388 711 215 668 307 711 b 643 363 531 711 643 574 b 372 6 643 144 524 6 z "},"q":{"ha":763,"x_min":0,"x_max":0,"o":"m 671 739 l 621 646 b 389 744 558 710 476 744 b 44 354 204 744 44 590 b 357 -17 44 138 176 -17 b 613 100 451 -17 542 26 l 613 -317 l 679 -317 l 679 739 z m 375 17 b 119 365 232 17 119 154 b 390 722 119 583 239 722 b 613 583 485 722 568 669 l 613 135 b 375 17 547 60 456 17 z "},"r":{"ha":457,"x_min":0,"x_max":0,"o":"m 383 742 b 150 589 286 742 211 682 l 150 739 l 144 739 l 83 711 l 83 0 l 150 0 l 150 556 b 347 688 196 629 265 688 b 426 671 369 688 400 683 l 451 733 b 383 742 428 739 406 742 z "},"s":{"ha":574,"x_min":0,"x_max":0,"o":"m 282 -17 b 542 183 435 -17 542 60 b 338 400 542 308 431 358 l 282 425 b 107 589 208 458 107 497 b 274 725 107 661 167 725 b 499 638 364 725 450 678 l 514 683 b 279 744 456 718 367 744 b 49 568 149 744 49 679 b 256 358 49 451 157 403 l 311 333 b 485 161 399 294 485 256 b 288 3 485 68 403 3 b 47 104 185 3 107 44 l 32 58 b 282 -17 113 4 203 -17 z "},"t":{"ha":468,"x_min":0,"x_max":0,"o":"m 464 51 b 338 17 415 25 371 17 b 210 178 210 17 210 135 l 210 697 l 447 697 l 467 728 l 210 728 l 210 946 l 204 946 l 135 728 l 22 721 l 22 697 l 143 697 l 143 167 b 307 -17 143 117 143 -17 b 475 35 372 -17 422 4 z "},"u":{"ha":744,"x_min":0,"x_max":0,"o":"m 657 122 l 657 739 l 651 739 l 590 711 l 590 149 b 336 19 524 71 422 19 b 144 253 144 19 144 192 l 144 739 l 139 739 l 78 711 l 78 242 b 307 -17 78 65 156 -17 b 590 115 410 -17 514 38 l 590 108 l 626 -11 l 688 17 z "},"v":{"ha":656,"x_min":0,"x_max":0,"o":"m 590 728 b 453 333 579 649 526 508 l 350 89 l 82 728 l 10 728 l 322 -14 l 333 -14 l 476 325 b 651 728 549 497 596 608 z "},"w":{"ha":1038,"x_min":0,"x_max":0,"o":"m 963 728 b 846 326 951 649 917 521 l 765 107 l 547 728 l 536 728 l 321 104 l 81 728 l 10 728 l 294 -14 l 306 -14 l 521 603 l 738 -14 l 749 -14 l 869 315 b 1026 728 936 496 976 607 z "},"x":{"ha":601,"x_min":0,"x_max":0,"o":"m 336 401 l 393 482 b 576 728 467 586 524 664 l 508 728 b 372 494 483 667 440 589 l 321 422 l 85 728 l 3 728 l 275 375 l 186 250 b 4 0 128 167 54 61 l 75 0 b 207 236 97 64 140 142 l 290 354 l 576 -17 l 582 -17 l 582 83 z "},"y":{"ha":649,"x_min":0,"x_max":0,"o":"m 579 728 b 450 331 568 649 519 506 l 356 93 l 79 728 l 7 728 l 321 7 l 271 -118 b 71 -271 225 -233 136 -271 b 18 -265 56 -271 36 -269 l 13 -325 b 297 -118 132 -325 233 -276 l 474 321 b 640 728 543 493 588 608 z "},"z":{"ha":572,"x_min":0,"x_max":0,"o":"m 560 49 b 229 21 465 32 368 21 l 104 21 l 546 722 l 546 728 l 36 728 l 25 682 l 29 682 b 344 707 124 699 206 707 l 458 707 l 17 6 l 17 0 l 549 0 l 564 49 z "},"{":{"ha":350,"x_min":0,"x_max":0,"o":"m 344 1069 l 344 1086 b 93 899 172 1086 93 1031 b 169 581 93 774 169 679 b 25 436 169 500 113 436 l 25 419 b 169 275 113 419 169 356 b 93 -43 169 176 93 82 b 344 -231 93 -175 172 -231 l 344 -214 b 143 -62 211 -214 143 -174 b 219 256 143 56 219 151 b 75 428 219 344 163 407 b 219 600 163 449 219 511 b 143 918 219 704 143 800 b 344 1069 143 1029 211 1069 z "},"|":{"ha":233,"x_min":0,"x_max":0,"o":"m 100 -89 l 133 -89 l 133 1086 l 100 1086 z "},"}":{"ha":350,"x_min":0,"x_max":0,"o":"m 325 419 l 325 436 b 181 581 238 436 181 500 b 257 899 181 679 257 774 b 6 1086 257 1031 178 1086 l 6 1069 b 207 918 139 1069 207 1029 b 131 600 207 800 131 704 b 275 428 131 511 188 449 b 131 256 188 407 131 344 b 207 -62 131 151 207 56 b 6 -214 207 -174 139 -214 l 6 -231 b 257 -43 178 -231 257 -175 b 181 275 257 82 181 176 b 325 419 181 356 238 419 z "},"~":{"ha":721,"x_min":0,"x_max":0,"o":"m 97 442 b 203 564 114 522 147 564 b 514 443 294 564 410 443 b 650 594 586 443 632 497 l 633 599 b 528 476 617 518 583 476 b 217 597 436 476 321 597 b 81 446 144 597 99 543 z "}," ":{"ha":300,"x_min":0,"x_max":0,"o":""},"¡":{"ha":242,"x_min":0,"x_max":0,"o":"m 121 747 l 51 678 l 121 608 l 190 678 z m 111 453 l 81 -292 l 161 -292 l 131 453 z "},"¢":{"ha":718,"x_min":0,"x_max":0,"o":"m 658 165 b 404 22 597 69 490 22 b 353 28 386 22 369 24 l 417 724 b 624 576 503 715 568 663 l 668 615 b 418 744 610 696 526 739 l 429 867 l 401 867 l 390 744 b 54 360 204 743 54 586 b 321 -11 54 160 164 18 l 310 -139 l 338 -139 l 349 -15 b 383 -17 360 -17 372 -17 b 675 156 508 -17 608 51 z m 129 372 b 389 725 129 581 242 722 l 325 35 b 129 372 211 72 129 194 z "},"£":{"ha":747,"x_min":0,"x_max":0,"o":"m 694 219 l 676 161 b 515 39 660 106 628 39 b 178 106 407 39 301 100 b 289 336 231 156 289 235 b 258 494 289 385 275 439 l 542 494 l 542 519 l 250 519 b 194 768 224 601 194 688 b 396 981 194 901 275 981 b 639 846 474 981 568 949 l 656 856 b 381 1028 611 933 531 1028 b 122 763 226 1028 122 928 b 175 519 122 678 150 599 l 56 519 l 56 494 l 183 494 b 219 303 203 432 219 369 b 47 21 219 143 122 81 l 60 0 b 174 60 93 26 133 60 b 511 -17 235 60 382 -17 b 701 167 674 -17 693 103 l 708 219 z "},"¤":{"ha":689,"x_min":0,"x_max":0,"o":"m 589 461 b 526 624 589 524 565 581 l 625 722 l 606 742 l 507 643 b 344 704 464 681 407 704 b 182 643 282 704 225 681 l 83 742 l 64 722 l 163 624 b 100 461 124 581 100 524 b 163 299 100 399 124 342 l 64 200 l 83 181 l 182 279 b 344 218 225 242 282 218 b 507 279 407 218 464 242 l 606 181 l 625 200 l 526 299 b 589 461 565 342 589 399 z m 344 246 b 131 461 226 246 131 342 b 344 676 131 581 226 676 b 558 461 463 676 558 581 b 344 246 558 342 463 246 z "},"¥":{"ha":796,"x_min":0,"x_max":0,"o":"m 519 599 b 761 1011 599 736 679 874 l 699 1011 b 496 611 665 915 597 786 l 421 482 l 118 1011 l 35 1011 l 347 475 l 106 475 l 106 450 l 363 450 l 363 314 l 106 314 l 106 289 l 363 289 l 363 0 l 435 0 l 435 289 l 692 289 l 692 314 l 435 314 l 435 450 l 692 450 l 692 475 l 449 475 z "},"¦":{"ha":233,"x_min":0,"x_max":0,"o":"m 100 568 l 133 568 l 133 1086 l 100 1086 z m 100 -89 l 133 -89 l 133 429 l 100 429 z "},"§":{"ha":719,"x_min":0,"x_max":0,"o":"m 461 558 l 413 594 b 203 843 292 685 203 735 b 364 1008 203 932 264 1008 b 572 921 442 1008 524 961 l 588 967 b 371 1028 529 1001 438 1028 b 40 656 194 1028 40 840 b 258 314 40 475 186 368 l 307 278 b 517 29 428 188 517 138 b 351 -136 517 -61 456 -136 b 139 -49 271 -136 188 -92 l 124 -94 b 344 -156 178 -131 276 -156 b 679 217 531 -156 679 35 b 461 558 679 390 544 497 z m 510 -75 b 557 58 536 -39 557 3 b 347 338 557 190 436 275 l 296 374 b 90 697 201 440 90 535 b 210 947 90 808 147 894 b 163 814 183 911 163 869 b 372 535 163 682 283 597 l 424 499 b 629 175 518 432 629 338 b 510 -75 629 64 572 -22 z "},"¨":{"ha":833,"x_min":0,"x_max":0,"o":"m 299 869 l 358 931 l 299 990 l 238 931 z m 536 869 l 596 931 l 536 990 l 475 931 z "},"©":{"ha":1150,"x_min":0,"x_max":0,"o":"m 575 -17 b 1096 506 865 -17 1096 217 b 575 1028 1096 794 865 1028 b 54 506 285 1028 54 794 b 575 -17 54 217 285 -17 z m 575 8 b 85 506 301 8 85 231 b 575 1003 85 781 301 1003 b 1065 506 849 1003 1065 781 b 575 8 1065 231 849 8 z m 557 189 b 817 336 669 189 758 250 l 800 346 b 574 225 746 267 654 225 b 339 513 443 225 339 332 b 568 803 339 689 436 803 b 764 679 653 803 715 757 l 811 704 b 575 822 757 781 671 822 b 269 501 400 822 269 692 b 557 189 269 314 394 189 z "},"ª":{"ha":483,"x_min":0,"x_max":0,"o":"m 428 575 b 389 638 389 575 389 596 l 389 863 b 243 1028 389 972 340 1028 b 72 956 183 1028 132 1004 l 83 943 b 224 999 131 981 176 999 b 339 856 301 999 339 954 l 339 807 l 253 799 b 49 653 124 785 49 732 b 174 547 49 589 99 547 b 339 615 232 547 293 574 b 394 553 342 592 350 553 b 446 571 408 553 426 560 l 446 576 b 428 575 438 575 433 575 z m 101 667 b 339 790 101 756 201 778 l 339 636 b 199 576 297 596 244 576 b 101 667 139 576 101 610 z "},"«":{"ha":624,"x_min":0,"x_max":0,"o":"m 326 697 l 310 697 l 46 365 l 310 33 l 326 33 l 135 365 z m 571 697 l 554 697 l 290 365 l 554 33 l 571 33 l 379 365 z "},"¬":{"ha":706,"x_min":0,"x_max":0,"o":"m 58 519 l 58 492 l 594 492 l 594 214 l 625 214 l 625 519 z "},"­":{"ha":429,"x_min":0,"x_max":0,"o":"m 65 363 l 364 363 l 364 404 l 65 404 z "},"®":{"ha":874,"x_min":0,"x_max":0,"o":"m 438 1028 b 60 651 229 1028 60 857 b 438 276 60 444 229 276 b 814 651 644 276 814 444 b 438 1028 814 857 644 1028 z m 438 304 b 90 654 246 304 90 461 b 438 1003 90 846 246 1003 b 783 654 628 1003 783 846 b 438 304 783 461 628 304 z m 572 497 l 479 635 b 586 760 535 657 586 690 b 407 879 586 838 524 879 l 319 879 l 319 419 l 360 419 l 360 624 l 415 624 b 449 610 436 624 443 619 l 532 481 b 633 418 551 451 576 418 b 658 421 644 418 653 419 l 658 429 b 572 497 626 429 601 454 z m 422 640 b 360 644 406 640 375 642 l 360 861 l 407 861 b 542 756 494 861 542 822 b 422 640 542 689 492 640 z "},"¯":{"ha":833,"x_min":0,"x_max":0,"o":"m 240 908 l 594 908 l 594 939 l 240 939 z "},"°":{"ha":472,"x_min":0,"x_max":0,"o":"m 236 658 b 431 851 344 658 431 744 b 236 1044 431 958 344 1044 b 42 851 128 1044 42 958 b 236 658 42 744 128 658 z m 236 683 b 72 851 144 683 72 758 b 236 1019 72 944 144 1019 b 400 851 328 1019 400 944 b 236 683 400 758 328 683 z "},"±":{"ha":706,"x_min":0,"x_max":0,"o":"m 368 519 l 368 797 l 338 797 l 338 519 l 69 519 l 69 492 l 338 492 l 338 214 l 368 214 l 368 492 l 636 492 l 636 519 z m 69 0 l 636 0 l 636 28 l 69 28 z "},"²":{"ha":421,"x_min":0,"x_max":0,"o":"m 139 478 l 86 478 l 93 485 b 367 868 301 686 367 786 b 210 1019 367 960 303 1019 b 35 888 99 1019 53 929 l 50 881 b 203 988 85 950 136 988 b 313 864 269 988 313 938 b 78 494 313 785 264 686 l 32 447 l 32 442 l 369 442 l 385 493 b 139 478 308 482 239 478 z "},"³":{"ha":414,"x_min":0,"x_max":0,"o":"m 179 433 b 368 601 289 433 368 507 b 232 757 368 685 306 742 l 232 760 b 347 900 289 785 347 835 b 206 1019 347 971 289 1019 b 44 924 121 1019 72 965 l 60 917 b 199 990 82 947 131 990 b 297 893 258 990 297 953 b 178 753 297 829 253 779 l 146 742 l 150 728 l 182 726 b 322 592 264 722 322 668 b 178 451 322 522 275 451 b 46 508 132 451 90 467 l 35 472 b 179 433 79 449 129 433 z "},"´":{"ha":833,"x_min":0,"x_max":0,"o":"m 406 842 l 615 1072 l 510 1072 l 396 849 z "},"µ":{"ha":776,"x_min":0,"x_max":0,"o":"m 676 122 l 676 739 l 671 739 l 610 711 l 610 149 b 356 19 543 71 442 19 b 164 253 164 19 164 192 l 164 739 l 158 739 l 97 711 l 97 -294 l 164 -294 l 164 -208 b 135 99 164 -128 149 0 b 326 -17 168 21 233 -17 b 610 115 429 -17 533 38 l 610 108 l 646 -11 l 707 17 z "},"¶":{"ha":650,"x_min":0,"x_max":0,"o":"m 331 -89 l 364 -89 l 364 1086 l 332 1086 b 36 813 154 1086 36 985 b 331 522 36 640 158 532 z m 503 1086 l 503 -49 b 331 -293 503 -181 442 -269 l 331 -317 b 536 -49 463 -292 536 -193 l 536 1086 z "},"·":{"ha":264,"x_min":0,"x_max":0,"o":"m 132 314 l 201 383 l 132 453 l 63 383 z "},"¸":{"ha":833,"x_min":0,"x_max":0,"o":"m 418 -78 l 453 0 l 425 0 l 365 -133 l 400 -133 b 506 -204 464 -133 506 -167 b 397 -279 506 -247 461 -279 b 317 -267 371 -279 331 -272 l 313 -279 b 410 -297 344 -292 379 -297 b 550 -186 486 -297 550 -256 b 418 -78 550 -131 499 -85 z "},"¹":{"ha":246,"x_min":0,"x_max":0,"o":"m 164 1019 b 18 892 125 964 63 913 l 18 878 b 122 926 51 890 93 908 l 122 442 l 169 442 l 169 1019 z "},"º":{"ha":536,"x_min":0,"x_max":0,"o":"m 265 547 b 492 790 397 547 492 647 b 272 1028 492 932 403 1028 b 46 785 139 1028 46 929 b 265 547 46 642 133 547 z m 269 564 b 100 790 171 564 100 658 b 267 1011 100 919 169 1011 b 438 785 365 1011 438 917 b 269 564 438 656 367 564 z "},"»":{"ha":624,"x_min":0,"x_max":0,"o":"m 69 697 l 53 697 l 244 365 l 53 33 l 69 33 l 333 365 z m 314 697 l 297 697 l 489 365 l 297 33 l 314 33 l 578 365 z "},"¼":{"ha":961,"x_min":0,"x_max":0,"o":"m 150 442 l 197 442 l 197 1019 l 192 1019 b 46 892 153 964 90 913 l 46 878 b 150 926 79 890 121 908 z m 711 1011 l 100 0 l 132 0 l 743 1011 z m 928 203 l 833 203 l 833 578 l 828 578 l 526 172 l 526 167 l 786 167 l 786 0 l 833 0 l 833 167 l 918 167 z m 578 203 l 786 482 l 786 203 z "},"½":{"ha":921,"x_min":0,"x_max":0,"o":"m 143 442 l 190 442 l 190 1019 l 185 1019 b 39 892 146 964 83 913 l 39 878 b 143 926 72 890 114 908 z m 704 1011 l 93 0 l 125 0 l 736 1011 z m 635 36 l 582 36 l 589 43 b 863 426 797 244 863 344 b 706 578 863 518 799 578 b 531 446 594 578 549 488 l 546 439 b 699 546 581 508 632 546 b 808 422 765 546 808 496 b 574 53 808 343 760 244 l 528 6 l 528 0 l 865 0 l 881 51 b 635 36 804 40 735 36 z "},"¾":{"ha":1042,"x_min":0,"x_max":0,"o":"m 193 451 b 61 508 147 451 106 467 l 50 472 b 194 433 94 449 144 433 b 383 601 304 433 383 507 b 247 757 383 685 321 742 l 247 760 b 363 900 304 785 363 835 b 221 1019 363 971 304 1019 b 60 924 136 1019 88 965 l 75 917 b 214 990 97 947 146 990 b 313 893 274 990 313 953 b 193 753 313 829 268 779 l 161 742 l 165 728 l 197 726 b 338 592 279 722 338 668 b 193 451 338 522 290 451 z m 792 1011 l 181 0 l 213 0 l 824 1011 z m 1008 203 l 914 203 l 914 578 l 908 578 l 607 172 l 607 167 l 867 167 l 867 0 l 914 0 l 914 167 l 999 167 z m 658 203 l 867 482 l 867 203 z "},"¿":{"ha":629,"x_min":0,"x_max":0,"o":"m 306 747 l 236 678 l 306 608 l 375 678 z m 283 453 b 238 449 267 453 253 451 l 242 429 b 281 433 256 432 267 433 b 361 371 322 433 361 418 b 44 -90 361 240 44 121 b 306 -308 44 -226 161 -308 b 604 -153 472 -308 564 -201 l 588 -142 b 332 -269 546 -193 460 -269 b 125 -85 201 -269 125 -190 b 406 361 125 125 406 218 b 283 453 406 426 350 453 z "},"À":{"ha":819,"x_min":0,"x_max":0,"o":"m 436 1124 l 325 1333 l 203 1333 l 426 1117 z m 733 0 l 811 0 l 413 1028 l 407 1028 l 179 440 b 6 0 122 293 64 139 l 68 0 b 169 336 85 82 108 172 l 604 336 z m 178 361 l 206 432 l 386 899 l 594 361 z "},"Á":{"ha":819,"x_min":0,"x_max":0,"o":"m 617 1333 l 494 1333 l 383 1124 l 393 1117 z m 733 0 l 811 0 l 413 1028 l 407 1028 l 179 440 b 6 0 122 293 64 139 l 68 0 b 169 336 85 82 108 172 l 604 336 z m 178 361 l 206 432 l 386 899 l 594 361 z "},"Â":{"ha":819,"x_min":0,"x_max":0,"o":"m 410 1256 l 625 1117 l 633 1124 l 414 1333 l 406 1333 l 186 1124 l 194 1117 z m 733 0 l 811 0 l 413 1028 l 407 1028 l 179 440 b 6 0 122 293 64 139 l 68 0 b 169 336 85 82 108 172 l 604 336 z m 178 361 l 206 432 l 386 899 l 594 361 z "},"Ã":{"ha":819,"x_min":0,"x_max":0,"o":"m 261 1211 b 535 1133 332 1211 450 1133 b 647 1258 603 1133 633 1183 l 635 1261 b 560 1183 621 1211 603 1183 b 286 1261 490 1183 371 1261 b 174 1136 218 1261 188 1211 l 186 1133 b 261 1211 200 1183 218 1211 z m 733 0 l 811 0 l 413 1028 l 407 1028 l 179 440 b 6 0 122 293 64 139 l 68 0 b 169 336 85 82 108 172 l 604 336 z m 178 361 l 206 432 l 386 899 l 594 361 z "},"Ä":{"ha":819,"x_min":0,"x_max":0,"o":"m 346 1206 l 286 1265 l 225 1206 l 286 1144 z m 594 1206 l 535 1265 l 474 1206 l 535 1144 z m 733 0 l 811 0 l 413 1028 l 407 1028 l 179 440 b 6 0 122 293 64 139 l 68 0 b 169 336 85 82 108 172 l 604 336 z m 178 361 l 206 432 l 386 899 l 594 361 z "},"Å":{"ha":819,"x_min":0,"x_max":0,"o":"m 410 1117 b 544 1249 485 1117 544 1174 b 410 1381 544 1324 485 1381 b 275 1249 335 1381 275 1324 b 410 1117 275 1174 335 1117 z m 410 1364 b 500 1249 468 1364 500 1318 b 410 1133 500 1179 468 1133 b 319 1249 351 1133 319 1179 b 410 1364 319 1318 351 1364 z m 733 0 l 811 0 l 413 1028 l 407 1028 l 179 440 b 6 0 122 293 64 139 l 68 0 b 169 336 85 82 108 172 l 604 336 z m 178 361 l 206 432 l 386 899 l 594 361 z "},"Æ":{"ha":1222,"x_min":0,"x_max":0,"o":"m 1197 53 b 779 25 1058 33 901 25 l 685 25 l 685 514 l 774 514 b 1071 503 924 514 1018 508 l 1074 503 l 1074 547 l 1071 547 b 774 539 1018 542 924 539 l 685 539 l 685 986 l 779 986 b 1171 958 901 986 1032 978 l 1174 958 l 1157 1011 l 599 1011 l -15 0 l 50 0 b 238 364 89 96 153 218 l 613 364 l 613 0 l 1178 0 l 1200 53 z m 253 389 l 281 435 l 613 982 l 613 389 z "},"Ç":{"ha":979,"x_min":0,"x_max":0,"o":"m 960 225 l 943 235 b 574 25 849 89 714 25 b 138 522 328 25 138 225 b 557 1006 138 808 319 1006 b 899 822 694 1006 813 943 l 946 864 b 565 1028 864 965 731 1028 b 57 500 279 1028 57 818 b 540 -17 57 181 268 -15 l 488 -133 l 522 -133 b 628 -204 586 -133 628 -167 b 519 -279 628 -247 583 -279 b 439 -267 493 -279 453 -272 l 435 -279 b 532 -297 467 -292 501 -297 b 672 -186 608 -297 672 -256 b 540 -78 672 -131 621 -85 l 568 -17 b 960 225 743 -8 871 85 z "},"È":{"ha":715,"x_min":0,"x_max":0,"o":"m 400 1124 l 289 1333 l 167 1333 l 390 1117 z m 690 53 b 272 25 551 33 394 25 l 178 25 l 178 514 l 267 514 b 564 503 417 514 511 508 l 567 503 l 567 547 l 564 547 b 267 539 511 542 417 539 l 178 539 l 178 986 l 272 986 b 664 958 394 986 525 978 l 667 958 l 650 1011 l 106 1011 l 106 0 l 671 0 l 693 53 z "},"É":{"ha":715,"x_min":0,"x_max":0,"o":"m 581 1333 l 458 1333 l 347 1124 l 357 1117 z m 690 53 b 272 25 551 33 394 25 l 178 25 l 178 514 l 267 514 b 564 503 417 514 511 508 l 567 503 l 567 547 l 564 547 b 267 539 511 542 417 539 l 178 539 l 178 986 l 272 986 b 664 958 394 986 525 978 l 667 958 l 650 1011 l 106 1011 l 106 0 l 671 0 l 693 53 z "},"Ê":{"ha":715,"x_min":0,"x_max":0,"o":"m 374 1256 l 589 1117 l 597 1124 l 378 1333 l 369 1333 l 150 1124 l 158 1117 z m 690 53 b 272 25 551 33 394 25 l 178 25 l 178 514 l 267 514 b 564 503 417 514 511 508 l 567 503 l 567 547 l 564 547 b 267 539 511 542 417 539 l 178 539 l 178 986 l 272 986 b 664 958 394 986 525 978 l 667 958 l 650 1011 l 106 1011 l 106 0 l 671 0 l 693 53 z "},"Ë":{"ha":715,"x_min":0,"x_max":0,"o":"m 310 1206 l 250 1265 l 189 1206 l 250 1144 z m 558 1206 l 499 1265 l 438 1206 l 499 1144 z m 690 53 b 272 25 551 33 394 25 l 178 25 l 178 514 l 267 514 b 564 503 417 514 511 508 l 567 503 l 567 547 l 564 547 b 267 539 511 542 417 539 l 178 539 l 178 986 l 272 986 b 664 958 394 986 525 978 l 667 958 l 650 1011 l 106 1011 l 106 0 l 671 0 l 693 53 z "},"Ì":{"ha":283,"x_min":0,"x_max":0,"o":"m 158 1117 l 168 1124 l 57 1333 l -65 1333 z m 106 0 l 178 0 l 178 1011 l 106 1011 z "},"Í":{"ha":283,"x_min":0,"x_max":0,"o":"m 125 1117 l 349 1333 l 226 1333 l 115 1124 z m 106 0 l 178 0 l 178 1011 l 106 1011 z "},"Î":{"ha":283,"x_min":0,"x_max":0,"o":"m 146 1333 l 138 1333 l -82 1124 l -74 1117 l 142 1256 l 357 1117 l 365 1124 z m 106 0 l 178 0 l 178 1011 l 106 1011 z "},"Ï":{"ha":283,"x_min":0,"x_max":0,"o":"m 18 1144 l 78 1206 l 18 1265 l -43 1206 z m 267 1144 l 326 1206 l 267 1265 l 206 1206 z m 106 0 l 178 0 l 178 1011 l 106 1011 z "},"Ð":{"ha":1010,"x_min":0,"x_max":0,"o":"m 446 1011 l 113 1011 l 113 535 l 26 535 l 26 515 l 113 515 l 113 0 l 438 0 b 951 518 747 0 951 190 b 446 1011 951 835 756 1011 z m 446 22 b 185 35 317 22 229 26 l 185 515 l 482 515 l 482 535 l 185 535 l 185 989 l 432 989 b 871 510 692 989 871 796 b 446 22 871 199 710 22 z "},"Ñ":{"ha":876,"x_min":0,"x_max":0,"o":"m 278 1211 b 551 1133 349 1211 467 1133 b 664 1258 619 1133 650 1183 l 651 1261 b 576 1183 638 1211 619 1183 b 303 1261 507 1183 388 1261 b 190 1136 235 1261 204 1211 l 203 1133 b 278 1211 217 1183 235 1211 z m 726 1011 b 740 569 738 900 740 764 l 740 139 l 150 1011 l 65 1011 l 65 1007 l 110 942 l 110 442 b 96 0 110 247 107 111 l 151 0 b 138 442 140 111 138 247 l 138 900 l 760 -17 l 768 -17 l 768 569 b 782 1011 768 764 771 900 z "},"Ò":{"ha":1139,"x_min":0,"x_max":0,"o":"m 586 1117 l 596 1124 l 485 1333 l 363 1333 z m 561 -17 b 1083 514 849 -17 1083 193 b 578 1028 1083 829 857 1028 b 56 497 290 1028 56 818 b 561 -17 56 182 282 -17 z m 575 6 b 136 511 331 6 136 208 b 567 1006 136 808 325 1006 b 1003 500 808 1006 1003 803 b 575 6 1003 201 814 6 z "},"Ó":{"ha":1139,"x_min":0,"x_max":0,"o":"m 553 1117 l 776 1333 l 654 1333 l 543 1124 z m 561 -17 b 1083 514 849 -17 1083 193 b 578 1028 1083 829 857 1028 b 56 497 290 1028 56 818 b 561 -17 56 182 282 -17 z m 575 6 b 136 511 331 6 136 208 b 567 1006 136 808 325 1006 b 1003 500 808 1006 1003 803 b 575 6 1003 201 814 6 z "},"Ô":{"ha":1139,"x_min":0,"x_max":0,"o":"m 569 1256 l 785 1117 l 793 1124 l 574 1333 l 565 1333 l 346 1124 l 354 1117 z m 578 1028 b 56 497 290 1028 56 818 b 561 -17 56 182 282 -17 b 1083 514 849 -17 1083 193 b 578 1028 1083 829 857 1028 z m 575 6 b 136 511 331 6 136 208 b 567 1006 136 808 325 1006 b 1003 500 808 1006 1003 803 b 575 6 1003 201 814 6 z "},"Õ":{"ha":1139,"x_min":0,"x_max":0,"o":"m 346 1133 b 421 1211 360 1183 378 1211 b 694 1133 492 1211 610 1133 b 807 1258 763 1133 793 1183 l 794 1261 b 719 1183 781 1211 763 1183 b 446 1261 650 1183 531 1261 b 333 1136 378 1261 347 1211 z m 561 -17 b 1083 514 849 -17 1083 193 b 578 1028 1083 829 857 1028 b 56 497 290 1028 56 818 b 561 -17 56 182 282 -17 z m 575 6 b 136 511 331 6 136 208 b 567 1006 136 808 325 1006 b 1003 500 808 1006 1003 803 b 575 6 1003 201 814 6 z "},"Ö":{"ha":1139,"x_min":0,"x_max":0,"o":"m 446 1144 l 506 1206 l 446 1265 l 385 1206 z m 694 1144 l 754 1206 l 694 1265 l 633 1206 z m 561 -17 b 1083 514 849 -17 1083 193 b 578 1028 1083 829 857 1028 b 56 497 290 1028 56 818 b 561 -17 56 182 282 -17 z m 575 6 b 136 511 331 6 136 208 b 567 1006 136 808 325 1006 b 1003 500 808 1006 1003 803 b 575 6 1003 201 814 6 z "},"×":{"ha":706,"x_min":0,"x_max":0,"o":"m 610 740 l 589 761 l 353 525 l 117 761 l 96 740 l 332 504 l 97 269 l 118 249 l 353 483 l 588 249 l 608 269 l 374 504 z "},"Ø":{"ha":1139,"x_min":0,"x_max":0,"o":"m 889 929 l 988 1067 l 965 1082 l 867 944 b 578 1028 785 999 685 1028 b 56 497 290 1028 56 818 b 250 82 56 314 132 171 l 151 -56 l 174 -71 l 272 67 b 561 -17 354 13 454 -17 b 1083 514 849 -17 1083 193 b 889 929 1083 697 1007 840 z m 136 511 b 567 1006 136 808 325 1006 b 838 904 669 1006 764 969 l 282 126 b 136 511 192 215 136 349 z m 575 6 b 301 108 471 6 376 42 l 857 885 b 1003 500 947 796 1003 663 b 575 6 1003 201 814 6 z "},"Ù":{"ha":882,"x_min":0,"x_max":0,"o":"m 463 1117 l 472 1124 l 361 1333 l 239 1333 z m 440 -17 b 781 336 668 -17 781 110 l 781 569 b 794 1011 781 764 783 900 l 739 1011 b 753 569 750 900 753 764 l 753 329 b 463 19 753 124 646 19 b 171 336 268 19 171 129 l 171 1011 l 99 1011 l 99 329 b 440 -17 99 106 217 -17 z "},"Ú":{"ha":882,"x_min":0,"x_max":0,"o":"m 429 1117 l 653 1333 l 531 1333 l 419 1124 z m 440 -17 b 781 336 668 -17 781 110 l 781 569 b 794 1011 781 764 783 900 l 739 1011 b 753 569 750 900 753 764 l 753 329 b 463 19 753 124 646 19 b 171 336 268 19 171 129 l 171 1011 l 99 1011 l 99 329 b 440 -17 99 106 217 -17 z "},"Û":{"ha":882,"x_min":0,"x_max":0,"o":"m 446 1256 l 661 1117 l 669 1124 l 450 1333 l 442 1333 l 222 1124 l 231 1117 z m 739 1011 b 753 569 750 900 753 764 l 753 329 b 463 19 753 124 646 19 b 171 336 268 19 171 129 l 171 1011 l 99 1011 l 99 329 b 440 -17 99 106 217 -17 b 781 336 668 -17 781 110 l 781 569 b 794 1011 781 764 783 900 z "},"Ü":{"ha":882,"x_min":0,"x_max":0,"o":"m 322 1144 l 382 1206 l 322 1265 l 261 1206 z m 571 1144 l 631 1206 l 571 1265 l 510 1206 z m 440 -17 b 781 336 668 -17 781 110 l 781 569 b 794 1011 781 764 783 900 l 739 1011 b 753 569 750 900 753 764 l 753 329 b 463 19 753 124 646 19 b 171 336 268 19 171 129 l 171 1011 l 99 1011 l 99 329 b 440 -17 99 106 217 -17 z "},"Ý":{"ha":768,"x_min":0,"x_max":0,"o":"m 600 1333 l 478 1333 l 367 1124 l 376 1117 z m 747 1011 l 685 1011 b 482 611 651 915 583 786 l 407 482 l 104 1011 l 21 1011 l 349 450 l 349 0 l 421 0 l 421 453 l 506 599 b 747 1011 585 736 665 874 z "},"Þ":{"ha":722,"x_min":0,"x_max":0,"o":"m 293 842 l 178 842 l 178 1011 l 106 1011 l 106 0 l 178 0 l 178 265 b 293 257 207 261 250 257 b 685 568 533 257 685 379 b 293 842 685 746 551 842 z m 290 279 b 178 289 244 279 206 283 l 178 819 l 293 819 b 604 551 507 819 604 711 b 290 279 604 382 497 279 z "},"ß":{"ha":790,"x_min":0,"x_max":0,"o":"m 578 425 l 525 457 b 421 583 474 488 421 524 b 663 926 421 711 663 747 b 417 1131 663 1049 547 1131 b 147 840 269 1131 147 1036 l 147 728 l 26 728 l 26 697 l 147 697 l 147 0 l 214 0 l 214 867 b 414 1111 214 1038 300 1111 b 601 924 525 1111 601 1035 b 365 550 601 729 365 694 b 492 394 365 472 433 429 l 544 363 b 704 169 619 317 704 268 b 518 3 704 82 638 3 b 310 104 431 3 364 44 l 296 58 b 515 -17 369 4 444 -17 b 761 194 657 -17 761 67 b 578 425 761 303 686 360 z "},"à":{"ha":663,"x_min":0,"x_max":0,"o":"m 347 849 l 233 1072 l 128 1072 l 338 842 z m 626 25 b 557 131 557 25 557 64 l 557 486 b 329 744 557 664 479 744 b 78 636 229 744 154 706 l 90 621 b 301 708 160 681 224 708 b 490 475 429 708 490 632 l 490 392 b 346 379 444 389 394 385 b 26 150 157 357 26 283 b 218 -14 26 46 107 -14 b 490 96 307 -14 413 24 b 572 -6 493 58 504 -6 b 651 19 599 -6 625 4 l 651 28 b 626 25 643 26 635 25 z m 96 171 b 490 372 96 319 267 353 l 490 122 b 258 22 422 56 335 22 b 96 171 168 22 96 71 z "},"á":{"ha":663,"x_min":0,"x_max":0,"o":"m 515 1072 l 410 1072 l 296 849 l 306 842 z m 626 25 b 557 131 557 25 557 64 l 557 486 b 329 744 557 664 479 744 b 78 636 229 744 154 706 l 90 621 b 301 708 160 681 224 708 b 490 475 429 708 490 632 l 490 392 b 346 379 444 389 394 385 b 26 150 157 357 26 283 b 218 -14 26 46 107 -14 b 490 96 307 -14 413 24 b 572 -6 493 58 504 -6 b 651 19 599 -6 625 4 l 651 28 b 626 25 643 26 635 25 z m 96 171 b 490 372 96 319 267 353 l 490 122 b 258 22 422 56 335 22 b 96 171 168 22 96 71 z "},"â":{"ha":663,"x_min":0,"x_max":0,"o":"m 321 990 l 508 842 l 517 849 l 325 1072 l 317 1072 l 125 849 l 133 842 z m 626 25 b 557 131 557 25 557 64 l 557 486 b 329 744 557 664 479 744 b 78 636 229 744 154 706 l 90 621 b 301 708 160 681 224 708 b 490 475 429 708 490 632 l 490 392 b 346 379 444 389 394 385 b 26 150 157 357 26 283 b 218 -14 26 46 107 -14 b 490 96 307 -14 413 24 b 572 -6 493 58 504 -6 b 651 19 599 -6 625 4 l 651 28 b 626 25 643 26 635 25 z m 96 171 b 490 372 96 319 267 353 l 490 122 b 258 22 422 56 335 22 b 96 171 168 22 96 71 z "},"ã":{"ha":663,"x_min":0,"x_max":0,"o":"m 186 936 b 432 858 257 936 347 858 b 544 983 500 858 531 908 l 532 986 b 457 908 518 936 500 908 b 211 986 388 908 296 986 b 99 861 143 986 113 936 l 111 858 b 186 936 125 908 143 936 z m 626 25 b 557 131 557 25 557 64 l 557 486 b 329 744 557 664 479 744 b 78 636 229 744 154 706 l 90 621 b 301 708 160 681 224 708 b 490 475 429 708 490 632 l 490 392 b 346 379 444 389 394 385 b 26 150 157 357 26 283 b 218 -14 26 46 107 -14 b 490 96 307 -14 413 24 b 572 -6 493 58 504 -6 b 651 19 599 -6 625 4 l 651 28 b 626 25 643 26 635 25 z m 96 171 b 490 372 96 319 267 353 l 490 122 b 258 22 422 56 335 22 b 96 171 168 22 96 71 z "},"ä":{"ha":663,"x_min":0,"x_max":0,"o":"m 249 931 l 189 990 l 128 931 l 189 869 z m 486 931 l 426 990 l 365 931 l 426 869 z m 626 25 b 557 131 557 25 557 64 l 557 486 b 329 744 557 664 479 744 b 78 636 229 744 154 706 l 90 621 b 301 708 160 681 224 708 b 490 475 429 708 490 632 l 490 392 b 346 379 444 389 394 385 b 26 150 157 357 26 283 b 218 -14 26 46 107 -14 b 490 96 307 -14 413 24 b 572 -6 493 58 504 -6 b 651 19 599 -6 625 4 l 651 28 b 626 25 643 26 635 25 z m 96 171 b 490 372 96 319 267 353 l 490 122 b 258 22 422 56 335 22 b 96 171 168 22 96 71 z "},"å":{"ha":663,"x_min":0,"x_max":0,"o":"m 321 842 b 456 974 396 842 456 899 b 321 1106 456 1049 396 1106 b 186 974 246 1106 186 1049 b 321 842 186 899 246 842 z m 321 1089 b 411 974 379 1089 411 1043 b 321 858 411 904 379 858 b 231 974 263 858 231 904 b 321 1089 231 1043 263 1089 z m 626 25 b 557 131 557 25 557 64 l 557 486 b 329 744 557 664 479 744 b 78 636 229 744 154 706 l 90 621 b 301 708 160 681 224 708 b 490 475 429 708 490 632 l 490 392 b 346 379 444 389 394 385 b 26 150 157 357 26 283 b 218 -14 26 46 107 -14 b 490 96 307 -14 413 24 b 572 -6 493 58 504 -6 b 651 19 599 -6 625 4 l 651 28 b 626 25 643 26 635 25 z m 96 171 b 490 372 96 319 267 353 l 490 122 b 258 22 422 56 335 22 b 96 171 168 22 96 71 z "},"æ":{"ha":1157,"x_min":0,"x_max":0,"o":"m 836 22 b 561 378 683 22 561 156 b 563 419 561 392 561 406 l 1119 419 b 836 744 1119 625 1008 744 b 550 592 715 744 613 688 b 333 744 524 696 450 744 b 65 636 231 744 150 706 l 78 621 b 303 708 154 681 225 708 b 494 475 433 708 494 632 l 494 429 b 350 407 450 422 399 415 b 31 150 163 378 31 283 b 222 -14 31 46 111 -14 b 540 140 318 -14 442 25 b 814 -17 597 43 696 -17 b 1107 156 940 -17 1040 51 l 1090 165 b 836 22 1029 69 922 22 z m 826 725 b 1044 442 961 725 1042 611 l 565 442 b 826 725 586 613 692 725 z m 100 171 b 494 408 100 319 264 372 l 494 122 b 263 22 426 56 339 22 b 100 171 172 22 100 71 z "},"ç":{"ha":686,"x_min":0,"x_max":0,"o":"m 665 156 l 649 165 b 394 22 588 69 481 22 b 119 372 242 22 119 156 b 383 725 119 583 235 725 b 614 576 481 725 554 669 l 658 615 b 383 744 596 701 504 744 b 44 360 196 744 44 588 b 361 -17 44 140 176 -10 l 308 -133 l 343 -133 b 449 -204 407 -133 449 -167 b 340 -279 449 -247 404 -279 b 260 -267 314 -279 274 -272 l 256 -279 b 353 -297 288 -292 322 -297 b 493 -186 429 -297 493 -256 b 361 -78 493 -131 442 -85 l 389 -17 b 665 156 507 -11 601 56 z "},"è":{"ha":715,"x_min":0,"x_max":0,"o":"m 411 849 l 297 1072 l 192 1072 l 401 842 z m 394 22 b 119 378 242 22 119 156 b 121 419 119 392 119 406 l 678 419 b 394 744 678 625 567 744 b 44 357 194 744 44 589 b 372 -17 44 135 183 -17 b 665 156 499 -17 599 51 l 649 165 b 394 22 588 69 481 22 z m 385 725 b 603 442 519 725 600 611 l 124 442 b 385 725 144 613 250 725 z "},"é":{"ha":715,"x_min":0,"x_max":0,"o":"m 579 1072 l 474 1072 l 360 849 l 369 842 z m 394 22 b 119 378 242 22 119 156 b 121 419 119 392 119 406 l 678 419 b 394 744 678 625 567 744 b 44 357 194 744 44 589 b 372 -17 44 135 183 -17 b 665 156 499 -17 599 51 l 649 165 b 394 22 588 69 481 22 z m 385 725 b 603 442 519 725 600 611 l 124 442 b 385 725 144 613 250 725 z "},"ê":{"ha":715,"x_min":0,"x_max":0,"o":"m 385 990 l 572 842 l 581 849 l 389 1072 l 381 1072 l 189 849 l 197 842 z m 394 22 b 119 378 242 22 119 156 b 121 419 119 392 119 406 l 678 419 b 394 744 678 625 567 744 b 44 357 194 744 44 589 b 372 -17 44 135 183 -17 b 665 156 499 -17 599 51 l 649 165 b 394 22 588 69 481 22 z m 385 725 b 603 442 519 725 600 611 l 124 442 b 385 725 144 613 250 725 z "},"ë":{"ha":715,"x_min":0,"x_max":0,"o":"m 313 931 l 253 990 l 192 931 l 253 869 z m 550 931 l 490 990 l 429 931 l 490 869 z m 394 22 b 119 378 242 22 119 156 b 121 419 119 392 119 406 l 678 419 b 394 744 678 625 567 744 b 44 357 194 744 44 589 b 372 -17 44 135 183 -17 b 665 156 499 -17 599 51 l 649 165 b 394 22 588 69 481 22 z m 385 725 b 603 442 519 725 600 611 l 124 442 b 385 725 144 613 250 725 z "},"ì":{"ha":244,"x_min":0,"x_max":0,"o":"m 139 842 l 149 849 l 35 1072 l -71 1072 z m 89 0 l 156 0 l 156 739 l 150 739 l 89 711 z "},"í":{"ha":244,"x_min":0,"x_max":0,"o":"m 107 842 l 317 1072 l 211 1072 l 97 849 z m 89 0 l 156 0 l 156 739 l 150 739 l 89 711 z "},"î":{"ha":244,"x_min":0,"x_max":0,"o":"m 126 1072 l 118 1072 l -74 849 l -65 842 l 122 990 l 310 842 l 318 849 z m 89 711 l 89 0 l 156 0 l 156 739 l 150 739 z "},"ï":{"ha":244,"x_min":0,"x_max":0,"o":"m -10 869 l 50 931 l -10 990 l -71 931 z m 228 869 l 288 931 l 228 990 l 167 931 z m 89 0 l 156 0 l 156 739 l 150 739 l 89 711 z "},"ð":{"ha":753,"x_min":0,"x_max":0,"o":"m 471 906 l 610 967 l 600 989 l 450 922 b 249 1038 390 972 322 1011 l 240 1015 b 413 906 303 993 361 954 l 225 822 l 235 800 l 432 888 b 600 596 507 810 567 707 b 364 700 525 667 446 700 b 46 346 176 700 46 556 b 367 -17 46 131 176 -17 b 706 396 563 -17 706 157 b 471 906 706 593 614 778 z m 372 7 b 121 351 232 7 121 157 b 358 676 121 549 214 676 b 611 553 450 676 531 638 b 631 392 624 500 631 446 b 372 7 631 167 522 7 z "},"ñ":{"ha":746,"x_min":0,"x_max":0,"o":"m 249 936 b 494 858 319 936 410 858 b 607 983 563 858 593 908 l 594 986 b 519 908 581 936 563 908 b 274 986 450 908 358 986 b 161 861 206 986 175 936 l 174 858 b 249 936 188 908 206 936 z m 438 744 b 150 618 328 744 240 701 l 150 739 l 144 739 l 83 711 l 83 0 l 150 0 l 150 592 b 408 708 235 672 318 708 b 600 475 600 708 600 536 l 600 0 l 667 0 l 667 486 b 438 744 667 663 589 744 z "},"ò":{"ha":789,"x_min":0,"x_max":0,"o":"m 411 842 l 421 849 l 307 1072 l 201 1072 z m 389 -17 b 744 368 592 -17 744 136 b 400 744 744 601 599 744 b 44 360 197 744 44 592 b 389 -17 44 126 190 -17 z m 396 3 b 119 368 240 3 119 147 b 392 725 119 586 239 725 b 669 360 549 725 669 581 b 396 3 669 143 550 3 z "},"ó":{"ha":789,"x_min":0,"x_max":0,"o":"m 379 842 l 589 1072 l 483 1072 l 369 849 z m 389 -17 b 744 368 592 -17 744 136 b 400 744 744 601 599 744 b 44 360 197 744 44 592 b 389 -17 44 126 190 -17 z m 396 3 b 119 368 240 3 119 147 b 392 725 119 586 239 725 b 669 360 549 725 669 581 b 396 3 669 143 550 3 z "},"ô":{"ha":789,"x_min":0,"x_max":0,"o":"m 394 990 l 582 842 l 590 849 l 399 1072 l 390 1072 l 199 849 l 207 842 z m 400 744 b 44 360 197 744 44 592 b 389 -17 44 126 190 -17 b 744 368 592 -17 744 136 b 400 744 744 601 599 744 z m 396 3 b 119 368 240 3 119 147 b 392 725 119 586 239 725 b 669 360 549 725 669 581 b 396 3 669 143 550 3 z "},"õ":{"ha":789,"x_min":0,"x_max":0,"o":"m 185 858 b 260 936 199 908 217 936 b 506 858 331 936 421 858 b 618 983 574 858 604 908 l 606 986 b 531 908 592 936 574 908 b 285 986 461 908 369 986 b 172 861 217 986 186 936 z m 389 -17 b 744 368 592 -17 744 136 b 400 744 744 601 599 744 b 44 360 197 744 44 592 b 389 -17 44 126 190 -17 z m 396 3 b 119 368 240 3 119 147 b 392 725 119 586 239 725 b 669 360 549 725 669 581 b 396 3 669 143 550 3 z "},"ö":{"ha":789,"x_min":0,"x_max":0,"o":"m 263 869 l 322 931 l 263 990 l 201 931 z m 500 869 l 560 931 l 500 990 l 439 931 z m 389 -17 b 744 368 592 -17 744 136 b 400 744 744 601 599 744 b 44 360 197 744 44 592 b 389 -17 44 126 190 -17 z m 396 3 b 119 368 240 3 119 147 b 392 725 119 586 239 725 b 669 360 549 725 669 581 b 396 3 669 143 550 3 z "},"÷":{"ha":706,"x_min":0,"x_max":0,"o":"m 353 703 l 410 760 l 353 817 l 296 760 z m 69 492 l 636 492 l 636 519 l 69 519 z m 353 194 l 410 251 l 353 308 l 296 251 z "},"ø":{"ha":789,"x_min":0,"x_max":0,"o":"m 613 675 l 685 785 l 664 799 l 593 689 b 400 744 539 725 472 744 b 44 360 197 744 44 592 b 176 53 44 222 94 117 l 104 -57 l 125 -71 l 196 39 b 389 -17 250 3 317 -17 b 744 368 592 -17 744 136 b 613 675 744 506 694 611 z m 119 368 b 392 725 119 586 239 725 b 567 650 458 725 519 699 l 204 96 b 119 368 151 160 119 254 z m 396 3 b 222 76 329 3 269 29 l 585 632 b 669 360 638 568 669 474 b 396 3 669 143 550 3 z "},"ù":{"ha":744,"x_min":0,"x_max":0,"o":"m 394 849 l 281 1072 l 175 1072 l 385 842 z m 657 122 l 657 739 l 651 739 l 590 711 l 590 149 b 336 19 524 71 422 19 b 144 253 144 19 144 192 l 144 739 l 139 739 l 78 711 l 78 242 b 307 -17 78 65 156 -17 b 590 115 410 -17 514 38 l 590 108 l 626 -11 l 688 17 z "},"ú":{"ha":744,"x_min":0,"x_max":0,"o":"m 563 1072 l 457 1072 l 343 849 l 353 842 z m 657 122 l 657 739 l 651 739 l 590 711 l 590 149 b 336 19 524 71 422 19 b 144 253 144 19 144 192 l 144 739 l 139 739 l 78 711 l 78 242 b 307 -17 78 65 156 -17 b 590 115 410 -17 514 38 l 590 108 l 626 -11 l 688 17 z "},"û":{"ha":744,"x_min":0,"x_max":0,"o":"m 368 990 l 556 842 l 564 849 l 372 1072 l 364 1072 l 172 849 l 181 842 z m 657 122 l 657 739 l 651 739 l 590 711 l 590 149 b 336 19 524 71 422 19 b 144 253 144 19 144 192 l 144 739 l 139 739 l 78 711 l 78 242 b 307 -17 78 65 156 -17 b 590 115 410 -17 514 38 l 590 108 l 626 -11 l 688 17 z "},"ü":{"ha":744,"x_min":0,"x_max":0,"o":"m 296 931 l 236 990 l 175 931 l 236 869 z m 533 931 l 474 990 l 413 931 l 474 869 z m 657 122 l 657 739 l 651 739 l 590 711 l 590 149 b 336 19 524 71 422 19 b 144 253 144 19 144 192 l 144 739 l 139 739 l 78 711 l 78 242 b 307 -17 78 65 156 -17 b 590 115 410 -17 514 38 l 590 108 l 626 -11 l 688 17 z "},"ý":{"ha":649,"x_min":0,"x_max":0,"o":"m 519 1072 l 414 1072 l 300 849 l 310 842 z m 579 728 b 450 331 568 649 519 506 l 356 93 l 79 728 l 7 728 l 321 7 l 271 -118 b 71 -271 225 -233 136 -271 b 18 -265 56 -271 36 -269 l 13 -325 b 297 -118 132 -325 233 -276 l 474 321 b 640 728 543 493 588 608 z "},"þ":{"ha":763,"x_min":0,"x_max":0,"o":"m 406 744 b 150 628 311 744 221 701 l 150 1125 l 144 1125 l 83 1097 l 83 -317 l 150 -317 l 150 74 b 374 -17 211 15 289 -17 b 718 374 558 -17 718 138 b 406 744 718 590 586 744 z m 372 6 b 150 144 278 6 194 58 l 150 593 b 388 711 215 668 307 711 b 643 363 531 711 643 574 b 372 6 643 144 524 6 z "},"ÿ":{"ha":649,"x_min":0,"x_max":0,"o":"m 253 931 l 193 990 l 132 931 l 193 869 z m 490 931 l 431 990 l 369 931 l 431 869 z m 579 728 b 450 331 568 649 519 506 l 356 93 l 79 728 l 7 728 l 321 7 l 271 -118 b 71 -271 225 -233 136 -271 b 18 -265 56 -271 36 -269 l 13 -325 b 297 -118 132 -325 233 -276 l 474 321 b 640 728 543 493 588 608 z "},"Ā":{"ha":819,"x_min":0,"x_max":0,"o":"m 624 1169 l 197 1169 l 197 1139 l 624 1139 z m 733 0 l 811 0 l 413 1028 l 407 1028 l 179 440 b 6 0 122 293 64 139 l 68 0 b 169 336 85 82 108 172 l 604 336 z m 178 361 l 206 432 l 386 899 l 594 361 z "},"ā":{"ha":663,"x_min":0,"x_max":0,"o":"m 499 939 l 144 939 l 144 908 l 499 908 z m 626 25 b 557 131 557 25 557 64 l 557 486 b 329 744 557 664 479 744 b 78 636 229 744 154 706 l 90 621 b 301 708 160 681 224 708 b 490 475 429 708 490 632 l 490 392 b 346 379 444 389 394 385 b 26 150 157 357 26 283 b 218 -14 26 46 107 -14 b 490 96 307 -14 413 24 b 572 -6 493 58 504 -6 b 651 19 599 -6 625 4 l 651 28 b 626 25 643 26 635 25 z m 96 171 b 490 372 96 319 267 353 l 490 122 b 258 22 422 56 335 22 b 96 171 168 22 96 71 z "},"Ă":{"ha":819,"x_min":0,"x_max":0,"o":"m 410 1133 b 625 1319 532 1133 600 1225 l 613 1324 b 410 1185 585 1249 508 1185 b 208 1324 313 1185 236 1249 l 196 1319 b 410 1133 221 1225 288 1133 z m 733 0 l 811 0 l 413 1028 l 407 1028 l 179 440 b 6 0 122 293 64 139 l 68 0 b 169 336 85 82 108 172 l 604 336 z m 178 361 l 206 432 l 386 899 l 594 361 z "},"ă":{"ha":663,"x_min":0,"x_max":0,"o":"m 321 858 b 522 1044 443 858 497 950 l 510 1049 b 321 910 482 974 419 910 b 133 1049 224 910 161 974 l 121 1044 b 321 858 146 950 199 858 z m 626 25 b 557 131 557 25 557 64 l 557 486 b 329 744 557 664 479 744 b 78 636 229 744 154 706 l 90 621 b 301 708 160 681 224 708 b 490 475 429 708 490 632 l 490 392 b 346 379 444 389 394 385 b 26 150 157 357 26 283 b 218 -14 26 46 107 -14 b 490 96 307 -14 413 24 b 572 -6 493 58 504 -6 b 651 19 599 -6 625 4 l 651 28 b 626 25 643 26 635 25 z m 96 171 b 490 372 96 319 267 353 l 490 122 b 258 22 422 56 335 22 b 96 171 168 22 96 71 z "},"Ą":{"ha":819,"x_min":0,"x_max":0,"o":"m 851 -246 b 767 -265 826 -256 799 -265 b 686 -182 724 -265 686 -235 b 782 0 686 -133 711 -76 l 811 0 l 413 1028 l 407 1028 l 179 440 b 6 0 122 293 64 139 l 68 0 b 169 336 85 82 108 172 l 604 336 l 733 0 l 761 0 b 619 -200 679 -71 619 -131 b 725 -297 619 -260 667 -297 b 856 -253 775 -297 824 -272 z m 178 361 l 206 432 l 386 899 l 594 361 z "},"ą":{"ha":663,"x_min":0,"x_max":0,"o":"m 656 -246 b 571 -265 631 -256 603 -265 b 490 -182 528 -265 490 -235 b 582 -6 490 -135 514 -78 b 651 19 604 -3 628 6 l 651 28 b 626 25 643 26 635 25 b 557 131 557 25 557 64 l 557 486 b 329 744 557 664 479 744 b 78 636 229 744 154 706 l 90 621 b 301 708 160 681 224 708 b 490 475 429 708 490 632 l 490 392 b 346 379 444 389 394 385 b 26 150 157 357 26 283 b 218 -14 26 46 107 -14 b 490 96 307 -14 413 24 b 560 -4 492 60 503 3 b 424 -200 481 -74 424 -132 b 529 -297 424 -260 471 -297 b 660 -253 579 -297 628 -272 z m 96 171 b 490 372 96 319 267 353 l 490 122 b 258 22 422 56 335 22 b 96 171 168 22 96 71 z "},"Ć":{"ha":979,"x_min":0,"x_max":0,"o":"m 540 1117 l 764 1333 l 642 1333 l 531 1124 z m 542 -17 b 960 225 731 -17 867 78 l 943 235 b 574 25 849 89 714 25 b 138 522 328 25 138 225 b 557 1006 138 808 319 1006 b 899 822 694 1006 813 943 l 946 864 b 565 1028 864 965 731 1028 b 57 500 279 1028 57 818 b 542 -17 57 179 269 -17 z "},"ć":{"ha":686,"x_min":0,"x_max":0,"o":"m 363 842 l 572 1072 l 467 1072 l 353 849 z m 374 -17 b 665 156 499 -17 599 51 l 649 165 b 394 22 588 69 481 22 b 119 372 242 22 119 156 b 383 725 119 583 235 725 b 614 576 481 725 554 669 l 658 615 b 383 744 596 701 504 744 b 44 360 196 744 44 588 b 374 -17 44 135 183 -17 z "},"Ċ":{"ha":979,"x_min":0,"x_max":0,"o":"m 557 1144 l 626 1214 l 557 1283 l 488 1214 z m 542 -17 b 960 225 731 -17 867 78 l 943 235 b 574 25 849 89 714 25 b 138 522 328 25 138 225 b 557 1006 138 808 319 1006 b 899 822 694 1006 813 943 l 946 864 b 565 1028 864 965 731 1028 b 57 500 279 1028 57 818 b 542 -17 57 179 269 -17 z "},"ċ":{"ha":686,"x_min":0,"x_max":0,"o":"m 378 869 l 442 933 l 378 997 l 314 933 z m 374 -17 b 665 156 499 -17 599 51 l 649 165 b 394 22 588 69 481 22 b 119 372 242 22 119 156 b 383 725 119 583 235 725 b 614 576 481 725 554 669 l 658 615 b 383 744 596 701 504 744 b 44 360 196 744 44 588 b 374 -17 44 135 183 -17 z "},"Č":{"ha":979,"x_min":0,"x_max":0,"o":"m 561 1117 l 781 1326 l 772 1333 l 557 1194 l 342 1333 l 333 1326 l 553 1117 z m 943 235 b 574 25 849 89 714 25 b 138 522 328 25 138 225 b 557 1006 138 808 319 1006 b 899 822 694 1006 813 943 l 946 864 b 565 1028 864 965 731 1028 b 57 500 279 1028 57 818 b 542 -17 57 179 269 -17 b 960 225 731 -17 867 78 z "},"č":{"ha":686,"x_min":0,"x_max":0,"o":"m 382 842 l 574 1065 l 565 1072 l 378 924 l 190 1072 l 182 1065 l 374 842 z m 649 165 b 394 22 588 69 481 22 b 119 372 242 22 119 156 b 383 725 119 583 235 725 b 614 576 481 725 554 669 l 658 615 b 383 744 596 701 504 744 b 44 360 196 744 44 588 b 374 -17 44 135 183 -17 b 665 156 499 -17 599 51 z "},"Ď":{"ha":1003,"x_min":0,"x_max":0,"o":"m 400 1117 l 619 1326 l 611 1333 l 396 1194 l 181 1333 l 172 1326 l 392 1117 z m 439 1011 l 106 1011 l 106 0 l 431 0 b 944 518 740 0 944 190 b 439 1011 944 835 749 1011 z m 439 22 b 178 35 310 22 222 26 l 178 989 l 425 989 b 864 510 685 989 864 796 b 439 22 864 199 703 22 z "},"ď":{"ha":800,"x_min":0,"x_max":0,"o":"m 810 1128 l 763 1082 b 832 978 808 1051 832 1014 b 774 888 832 946 814 915 l 779 881 b 876 1022 843 915 876 971 b 810 1128 876 1064 856 1103 z m 679 1125 l 674 1125 l 613 1097 l 613 654 b 389 744 551 713 474 744 b 44 354 204 744 44 590 b 357 -17 44 138 176 -17 b 614 103 453 -17 543 28 l 649 -11 l 710 17 l 679 122 z m 375 17 b 119 365 232 17 119 154 b 390 722 119 583 239 722 b 613 583 485 722 568 669 l 613 135 b 375 17 547 60 456 17 z "},"Đ":{"ha":1010,"x_min":0,"x_max":0,"o":"m 446 1011 l 113 1011 l 113 535 l 26 535 l 26 515 l 113 515 l 113 0 l 438 0 b 951 518 747 0 951 190 b 446 1011 951 835 756 1011 z m 446 22 b 185 35 317 22 229 26 l 185 515 l 482 515 l 482 535 l 185 535 l 185 989 l 432 989 b 871 510 692 989 871 796 b 446 22 871 199 710 22 z "},"đ":{"ha":767,"x_min":0,"x_max":0,"o":"m 765 919 l 765 939 l 679 939 l 679 1125 l 674 1125 l 613 1097 l 613 939 l 381 939 l 381 919 l 613 919 l 613 654 b 389 744 551 713 474 744 b 44 354 204 744 44 590 b 357 -17 44 138 176 -17 b 614 103 453 -17 543 28 l 649 -11 l 710 17 l 679 122 l 679 919 z m 375 17 b 119 365 232 17 119 154 b 390 722 119 583 239 722 b 613 583 485 722 568 669 l 613 135 b 375 17 547 60 456 17 z "},"Ē":{"ha":715,"x_min":0,"x_max":0,"o":"m 588 1169 l 161 1169 l 161 1139 l 588 1139 z m 690 53 b 272 25 551 33 394 25 l 178 25 l 178 514 l 267 514 b 564 503 417 514 511 508 l 567 503 l 567 547 l 564 547 b 267 539 511 542 417 539 l 178 539 l 178 986 l 272 986 b 664 958 394 986 525 978 l 667 958 l 650 1011 l 106 1011 l 106 0 l 671 0 l 693 53 z "},"ē":{"ha":715,"x_min":0,"x_max":0,"o":"m 563 939 l 208 939 l 208 908 l 563 908 z m 394 22 b 119 378 242 22 119 156 b 121 419 119 392 119 406 l 678 419 b 394 744 678 625 567 744 b 44 357 194 744 44 589 b 372 -17 44 135 183 -17 b 665 156 499 -17 599 51 l 649 165 b 394 22 588 69 481 22 z m 385 725 b 603 442 519 725 600 611 l 124 442 b 385 725 144 613 250 725 z "},"Ė":{"ha":715,"x_min":0,"x_max":0,"o":"m 443 1214 l 374 1283 l 304 1214 l 374 1144 z m 690 53 b 272 25 551 33 394 25 l 178 25 l 178 514 l 267 514 b 564 503 417 514 511 508 l 567 503 l 567 547 l 564 547 b 267 539 511 542 417 539 l 178 539 l 178 986 l 272 986 b 664 958 394 986 525 978 l 667 958 l 650 1011 l 106 1011 l 106 0 l 671 0 l 693 53 z "},"ė":{"ha":715,"x_min":0,"x_max":0,"o":"m 449 933 l 385 997 l 321 933 l 385 869 z m 394 22 b 119 378 242 22 119 156 b 121 419 119 392 119 406 l 678 419 b 394 744 678 625 567 744 b 44 357 194 744 44 589 b 372 -17 44 135 183 -17 b 665 156 499 -17 599 51 l 649 165 b 394 22 588 69 481 22 z m 385 725 b 603 442 519 725 600 611 l 124 442 b 385 725 144 613 250 725 z "},"Ę":{"ha":715,"x_min":0,"x_max":0,"o":"m 603 -265 b 522 -182 560 -265 522 -235 b 618 0 522 -133 547 -76 l 671 0 l 693 53 l 690 53 b 272 25 551 33 394 25 l 178 25 l 178 514 l 267 514 b 564 503 417 514 511 508 l 567 503 l 567 547 l 564 547 b 267 539 511 542 417 539 l 178 539 l 178 986 l 272 986 b 664 958 394 986 525 978 l 667 958 l 650 1011 l 106 1011 l 106 0 l 597 0 b 456 -200 515 -71 456 -131 b 561 -297 456 -260 503 -297 b 692 -253 611 -297 660 -272 l 688 -246 b 603 -265 663 -256 635 -265 z "},"ę":{"ha":715,"x_min":0,"x_max":0,"o":"m 394 22 b 119 378 242 22 119 156 b 121 419 119 392 119 406 l 678 419 b 394 744 678 625 567 744 b 44 357 194 744 44 589 b 372 -17 44 135 183 -17 b 513 15 418 -17 471 -3 b 354 -200 422 -61 354 -126 b 460 -297 354 -260 401 -297 b 590 -253 510 -297 558 -272 l 586 -246 b 501 -265 561 -256 533 -265 b 421 -182 458 -265 421 -235 b 558 40 421 -106 486 -24 b 665 156 594 72 632 103 l 649 165 b 394 22 588 69 481 22 z m 385 725 b 603 442 519 725 600 611 l 124 442 b 385 725 144 613 250 725 z "},"Ě":{"ha":715,"x_min":0,"x_max":0,"o":"m 378 1117 l 597 1326 l 589 1333 l 374 1194 l 158 1333 l 150 1326 l 369 1117 z m 690 53 b 272 25 551 33 394 25 l 178 25 l 178 514 l 267 514 b 564 503 417 514 511 508 l 567 503 l 567 547 l 564 547 b 267 539 511 542 417 539 l 178 539 l 178 986 l 272 986 b 664 958 394 986 525 978 l 667 958 l 650 1011 l 106 1011 l 106 0 l 671 0 l 693 53 z "},"ě":{"ha":715,"x_min":0,"x_max":0,"o":"m 389 842 l 581 1065 l 572 1072 l 385 924 l 197 1072 l 189 1065 l 381 842 z m 394 22 b 119 378 242 22 119 156 b 121 419 119 392 119 406 l 678 419 b 394 744 678 625 567 744 b 44 357 194 744 44 589 b 372 -17 44 135 183 -17 b 665 156 499 -17 599 51 l 649 165 b 394 22 588 69 481 22 z m 385 725 b 603 442 519 725 600 611 l 124 442 b 385 725 144 613 250 725 z "},"Ĝ":{"ha":1029,"x_min":0,"x_max":0,"o":"m 557 1256 l 772 1117 l 781 1124 l 561 1333 l 553 1333 l 333 1124 l 342 1117 z m 618 458 l 633 433 l 896 433 l 896 124 b 581 8 819 57 713 8 b 138 508 318 8 138 214 b 557 1006 138 811 319 1006 b 899 822 694 1006 813 943 l 946 864 b 572 1028 864 965 731 1028 b 57 499 281 1028 57 818 b 572 -17 57 179 269 -17 b 968 119 763 -17 893 58 l 968 458 z "},"ĝ":{"ha":675,"x_min":0,"x_max":0,"o":"m 319 990 l 507 842 l 515 849 l 324 1072 l 315 1072 l 124 849 l 132 842 z m 433 97 l 232 110 b 122 168 151 115 122 131 b 171 240 122 190 133 215 l 208 265 b 319 244 242 251 279 244 b 586 494 471 244 586 349 b 496 686 586 574 551 642 b 582 708 517 701 549 708 b 651 700 604 708 628 706 l 661 785 b 476 700 585 785 521 750 b 319 746 433 729 379 746 b 53 494 168 746 53 640 b 186 275 53 396 106 317 l 151 254 b 67 143 94 221 67 190 b 228 43 67 68 147 49 l 428 31 b 600 -106 536 24 600 -25 b 308 -311 600 -232 485 -311 b 69 -114 157 -311 69 -229 b 94 0 69 -79 78 -40 l 89 0 l 42 -14 b 14 -124 22 -53 14 -90 b 308 -333 14 -247 131 -333 b 661 -81 514 -333 661 -214 b 433 97 661 31 575 89 z m 319 724 b 514 494 432 724 514 628 b 319 267 514 361 433 267 b 125 494 206 267 125 361 b 319 724 125 628 207 724 z "},"Ğ":{"ha":1029,"x_min":0,"x_max":0,"o":"m 557 1133 b 772 1319 679 1133 747 1225 l 760 1324 b 557 1185 732 1249 656 1185 b 356 1324 460 1185 383 1249 l 343 1319 b 557 1133 368 1225 435 1133 z m 618 458 l 633 433 l 896 433 l 896 124 b 581 8 819 57 713 8 b 138 508 318 8 138 214 b 557 1006 138 811 319 1006 b 899 822 694 1006 813 943 l 946 864 b 572 1028 864 965 731 1028 b 57 499 281 1028 57 818 b 572 -17 57 179 269 -17 b 968 119 763 -17 893 58 l 968 458 z "},"ğ":{"ha":675,"x_min":0,"x_max":0,"o":"m 319 858 b 521 1044 442 858 496 950 l 508 1049 b 319 910 481 974 418 910 b 132 1049 222 910 160 974 l 119 1044 b 319 858 144 950 197 858 z m 433 97 l 232 110 b 122 168 151 115 122 131 b 171 240 122 190 133 215 l 208 265 b 319 244 242 251 279 244 b 586 494 471 244 586 349 b 496 686 586 574 551 642 b 582 708 517 701 549 708 b 651 700 604 708 628 706 l 661 785 b 476 700 585 785 521 750 b 319 746 433 729 379 746 b 53 494 168 746 53 640 b 186 275 53 396 106 317 l 151 254 b 67 143 94 221 67 190 b 228 43 67 68 147 49 l 428 31 b 600 -106 536 24 600 -25 b 308 -311 600 -232 485 -311 b 69 -114 157 -311 69 -229 b 94 0 69 -79 78 -40 l 89 0 l 42 -14 b 14 -124 22 -53 14 -90 b 308 -333 14 -247 131 -333 b 661 -81 514 -333 661 -214 b 433 97 661 31 575 89 z m 319 724 b 514 494 432 724 514 628 b 319 267 514 361 433 267 b 125 494 206 267 125 361 b 319 724 125 628 207 724 z "},"Ġ":{"ha":1029,"x_min":0,"x_max":0,"o":"m 626 1214 l 557 1283 l 488 1214 l 557 1144 z m 618 458 l 633 433 l 896 433 l 896 124 b 581 8 819 57 713 8 b 138 508 318 8 138 214 b 557 1006 138 811 319 1006 b 899 822 694 1006 813 943 l 946 864 b 572 1028 864 965 731 1028 b 57 499 281 1028 57 818 b 572 -17 57 179 269 -17 b 968 119 763 -17 893 58 l 968 458 z "},"ġ":{"ha":675,"x_min":0,"x_max":0,"o":"m 383 933 l 319 997 l 256 933 l 319 869 z m 433 97 l 232 110 b 122 168 151 115 122 131 b 171 240 122 190 133 215 l 208 265 b 319 244 242 251 279 244 b 586 494 471 244 586 349 b 496 686 586 574 551 642 b 582 708 517 701 549 708 b 651 700 604 708 628 706 l 661 785 b 476 700 585 785 521 750 b 319 746 433 729 379 746 b 53 494 168 746 53 640 b 186 275 53 396 106 317 l 151 254 b 67 143 94 221 67 190 b 228 43 67 68 147 49 l 428 31 b 600 -106 536 24 600 -25 b 308 -311 600 -232 485 -311 b 69 -114 157 -311 69 -229 b 94 0 69 -79 78 -40 l 89 0 l 42 -14 b 14 -124 22 -53 14 -90 b 308 -333 14 -247 131 -333 b 661 -81 514 -333 661 -214 b 433 97 661 31 575 89 z m 319 724 b 514 494 432 724 514 628 b 319 267 514 361 433 267 b 125 494 206 267 125 361 b 319 724 125 628 207 724 z "},"Ģ":{"ha":1029,"x_min":0,"x_max":0,"o":"m 618 458 l 633 433 l 896 433 l 896 124 b 581 8 819 57 713 8 b 138 508 318 8 138 214 b 557 1006 138 811 319 1006 b 899 822 694 1006 813 943 l 946 864 b 572 1028 864 965 731 1028 b 57 499 281 1028 57 818 b 572 -17 57 179 269 -17 b 968 119 763 -17 893 58 l 968 458 z m 576 -68 l 518 -126 b 604 -256 575 -165 604 -211 b 532 -369 604 -297 581 -336 l 539 -379 b 660 -200 618 -336 660 -265 b 576 -68 660 -149 633 -99 z "},"ģ":{"ha":675,"x_min":0,"x_max":0,"o":"m 332 853 l 379 899 b 310 1003 333 929 310 967 b 368 1093 310 1035 328 1065 l 363 1100 b 265 958 299 1065 265 1010 b 332 853 265 917 286 878 z m 433 97 l 232 110 b 122 168 151 115 122 131 b 171 240 122 190 133 215 l 208 265 b 319 244 242 251 279 244 b 586 494 471 244 586 349 b 496 686 586 574 551 642 b 582 708 517 701 549 708 b 651 700 604 708 628 706 l 661 785 b 476 700 585 785 521 750 b 319 746 433 729 379 746 b 53 494 168 746 53 640 b 186 275 53 396 106 317 l 151 254 b 67 143 94 221 67 190 b 228 43 67 68 147 49 l 428 31 b 600 -106 536 24 600 -25 b 308 -311 600 -232 485 -311 b 69 -114 157 -311 69 -229 b 94 0 69 -79 78 -40 l 89 0 l 42 -14 b 14 -124 22 -53 14 -90 b 308 -333 14 -247 131 -333 b 661 -81 514 -333 661 -214 b 433 97 661 31 575 89 z m 319 724 b 514 494 432 724 514 628 b 319 267 514 361 433 267 b 125 494 206 267 125 361 b 319 724 125 628 207 724 z "},"Ĥ":{"ha":922,"x_min":0,"x_max":0,"o":"m 461 1256 l 676 1117 l 685 1124 l 465 1333 l 457 1333 l 238 1124 l 246 1117 z m 744 1011 l 744 539 l 178 539 l 178 1011 l 106 1011 l 106 0 l 178 0 l 178 514 l 744 514 l 744 0 l 817 0 l 817 1011 z "},"ĥ":{"ha":746,"x_min":0,"x_max":0,"o":"m 340 1117 l 349 1124 l 129 1333 l 121 1333 l -99 1124 l -90 1117 l 125 1256 z m 438 744 b 150 618 328 744 240 701 l 150 1125 l 144 1125 l 83 1097 l 83 0 l 150 0 l 150 592 b 408 708 235 672 318 708 b 600 475 600 708 600 536 l 600 0 l 667 0 l 667 486 b 438 744 667 663 589 744 z "},"Ħ":{"ha":928,"x_min":0,"x_max":0,"o":"m 906 803 l 819 803 l 819 1011 l 747 1011 l 747 803 l 181 803 l 181 1011 l 108 1011 l 108 803 l 22 803 l 22 783 l 108 783 l 108 0 l 181 0 l 181 514 l 747 514 l 747 0 l 819 0 l 819 783 l 906 783 z m 747 539 l 181 539 l 181 783 l 747 783 z "},"ħ":{"ha":746,"x_min":0,"x_max":0,"o":"m 438 744 b 150 618 328 744 240 701 l 150 919 l 382 919 l 382 939 l 150 939 l 150 1125 l 144 1125 l 83 1097 l 83 939 l -3 939 l -3 919 l 83 919 l 83 0 l 150 0 l 150 592 b 408 708 235 672 318 708 b 600 475 600 708 600 536 l 600 0 l 667 0 l 667 486 b 438 744 667 663 589 744 z "},"Ĩ":{"ha":283,"x_min":0,"x_max":0,"o":"m -82 1133 b -7 1211 -68 1183 -50 1211 b 267 1133 64 1211 182 1133 b 379 1258 335 1133 365 1183 l 367 1261 b 292 1183 353 1211 335 1183 b 18 1261 222 1183 103 1261 b -94 1136 -50 1261 -81 1211 z m 106 0 l 178 0 l 178 1011 l 106 1011 z "},"ĩ":{"ha":244,"x_min":0,"x_max":0,"o":"m -87 858 b -12 936 -74 908 -56 936 b 233 858 58 936 149 858 b 346 983 301 858 332 908 l 333 986 b 258 908 319 936 301 908 b 13 986 189 908 97 986 b -100 861 -56 986 -86 936 z m 89 0 l 156 0 l 156 739 l 150 739 l 89 711 z "},"Ī":{"ha":283,"x_min":0,"x_max":0,"o":"m -71 1139 l 356 1139 l 356 1169 l -71 1169 z m 106 0 l 178 0 l 178 1011 l 106 1011 z "},"ī":{"ha":244,"x_min":0,"x_max":0,"o":"m -54 908 l 300 908 l 300 939 l -54 939 z m 89 0 l 156 0 l 156 739 l 150 739 l 89 711 z "},"Ĭ":{"ha":283,"x_min":0,"x_max":0,"o":"m 142 1133 b 357 1319 264 1133 332 1225 l 344 1324 b 142 1185 317 1249 240 1185 b -60 1324 44 1185 -32 1249 l -72 1319 b 142 1133 -47 1225 19 1133 z m 106 0 l 178 0 l 178 1011 l 106 1011 z "},"ĭ":{"ha":244,"x_min":0,"x_max":0,"o":"m 122 858 b 324 1044 244 858 299 950 l 311 1049 b 122 910 283 974 221 910 b -65 1049 25 910 -37 974 l -78 1044 b 122 858 -53 950 0 858 z m 89 0 l 156 0 l 156 739 l 150 739 l 89 711 z "},"Į":{"ha":283,"x_min":0,"x_max":0,"o":"m 221 -246 b 136 -265 196 -256 168 -265 b 56 -182 93 -265 56 -235 b 151 0 56 -133 81 -76 l 178 0 l 178 1011 l 106 1011 l 106 0 l 131 0 b -11 -200 49 -71 -11 -131 b 94 -297 -11 -260 36 -297 b 225 -253 144 -297 193 -272 z "},"į":{"ha":244,"x_min":0,"x_max":0,"o":"m 186 947 l 122 1011 l 58 947 l 122 883 z m 200 -246 b 115 -265 175 -256 147 -265 b 35 -182 72 -265 35 -235 b 131 0 35 -133 60 -76 l 156 0 l 156 739 l 150 739 l 89 711 l 89 0 l 110 0 b -32 -200 28 -71 -32 -131 b 74 -297 -32 -260 15 -297 b 204 -253 124 -297 172 -272 z "},"İ":{"ha":283,"x_min":0,"x_max":0,"o":"m 142 1144 l 211 1214 l 142 1283 l 72 1214 z m 106 0 l 178 0 l 178 1011 l 106 1011 z "},"ı":{"ha":244,"x_min":0,"x_max":0,"o":"m 89 0 l 156 0 l 156 739 l 150 739 l 89 711 z "},"Ĳ":{"ha":535,"x_min":0,"x_max":0,"o":"m 106 0 l 178 0 l 178 1011 l 106 1011 z m 164 -208 b 433 317 369 -97 433 -22 l 433 1011 l 361 1011 l 361 306 b 154 -192 361 50 339 -78 z "},"ĳ":{"ha":472,"x_min":0,"x_max":0,"o":"m 122 883 l 186 947 l 122 1011 l 58 947 z m 350 883 l 414 947 l 350 1011 l 286 947 z m 89 0 l 156 0 l 156 739 l 150 739 l 89 711 z m 147 -317 b 383 -49 300 -294 383 -199 l 383 739 l 378 739 l 317 711 l 317 -49 b 142 -300 317 -189 251 -281 z "},"Ĵ":{"ha":289,"x_min":0,"x_max":0,"o":"m 156 1333 l 147 1333 l -72 1124 l -64 1117 l 151 1256 l 367 1117 l 375 1124 z m 115 306 b -92 -192 115 50 93 -78 l -82 -208 b 188 317 124 -97 188 -22 l 188 1011 l 115 1011 z "},"ĵ":{"ha":250,"x_min":0,"x_max":0,"o":"m 132 1072 l 124 1072 l -68 849 l -60 842 l 128 990 l 315 842 l 324 849 z m 94 711 l 94 -49 b -81 -300 94 -189 29 -281 l -75 -317 b 161 -49 78 -294 161 -199 l 161 739 l 156 739 z "},"Ķ":{"ha":821,"x_min":0,"x_max":0,"o":"m 106 0 l 178 0 l 178 1011 l 106 1011 z m 804 1008 l 804 1011 l 722 1011 b 435 707 675 947 585 847 l 233 518 l 799 -17 l 804 -17 l 804 79 l 307 550 l 453 686 b 804 1008 569 794 688 903 z m 417 -68 l 358 -126 b 444 -256 415 -165 444 -211 b 372 -369 444 -297 421 -336 l 379 -379 b 500 -200 458 -336 500 -265 b 417 -68 500 -149 474 -99 z "},"ķ":{"ha":650,"x_min":0,"x_max":0,"o":"m 83 1097 l 83 0 l 150 0 l 150 1125 l 144 1125 z m 261 432 l 328 490 b 631 725 436 586 525 653 l 631 728 l 549 728 b 313 513 488 664 421 607 l 192 407 l 633 -17 l 639 -17 l 639 71 z m 317 -68 l 258 -126 b 344 -256 315 -165 344 -211 b 272 -369 344 -297 321 -336 l 279 -379 b 400 -200 358 -336 400 -265 b 317 -68 400 -149 374 -99 z "},"ĸ":{"ha":650,"x_min":0,"x_max":0,"o":"m 83 711 l 83 0 l 150 0 l 150 739 l 144 739 z m 261 432 l 328 490 b 631 725 436 586 525 653 l 631 728 l 549 728 b 313 513 488 664 421 607 l 192 407 l 633 -17 l 639 -17 l 639 71 z "},"Ĺ":{"ha":576,"x_min":0,"x_max":0,"o":"m 349 1333 l 226 1333 l 115 1124 l 125 1117 z m 560 53 b 211 25 415 31 294 25 l 178 25 l 178 1011 l 106 1011 l 106 0 l 540 0 l 563 53 z "},"ĺ":{"ha":244,"x_min":0,"x_max":0,"o":"m 106 1117 l 329 1333 l 207 1333 l 96 1124 z m 89 0 l 156 0 l 156 1125 l 150 1125 l 89 1097 z "},"Ļ":{"ha":576,"x_min":0,"x_max":0,"o":"m 560 53 b 211 25 415 31 294 25 l 178 25 l 178 1011 l 106 1011 l 106 0 l 540 0 l 563 53 z m 329 -68 l 271 -126 b 357 -256 328 -165 357 -211 b 285 -369 357 -297 333 -336 l 292 -379 b 413 -200 371 -336 413 -265 b 329 -68 413 -149 386 -99 z "},"ļ":{"ha":244,"x_min":0,"x_max":0,"o":"m 89 0 l 156 0 l 156 1125 l 150 1125 l 89 1097 z m 79 -379 b 200 -200 158 -336 200 -265 b 117 -68 200 -149 174 -99 l 58 -126 b 144 -256 115 -165 144 -211 b 72 -369 144 -297 121 -336 z "},"Ľ":{"ha":608,"x_min":0,"x_max":0,"o":"m 517 864 b 458 774 517 832 499 801 l 464 767 b 561 908 528 801 561 857 b 494 1014 561 950 540 989 l 447 968 b 517 864 493 938 517 900 z m 560 53 b 211 25 415 31 294 25 l 178 25 l 178 1011 l 106 1011 l 106 0 l 540 0 l 563 53 z "},"ľ":{"ha":272,"x_min":0,"x_max":0,"o":"m 256 881 b 353 1022 319 915 353 971 b 286 1128 353 1064 332 1103 l 239 1082 b 308 978 285 1051 308 1014 b 250 888 308 946 290 915 z m 89 0 l 156 0 l 156 1125 l 150 1125 l 89 1097 z "},"Ŀ":{"ha":597,"x_min":0,"x_max":0,"o":"m 560 53 b 211 25 415 31 294 25 l 178 25 l 178 1011 l 106 1011 l 106 0 l 540 0 l 563 53 z m 546 544 l 476 614 l 407 544 l 476 475 z "},"ŀ":{"ha":368,"x_min":0,"x_max":0,"o":"m 89 0 l 156 0 l 156 1125 l 150 1125 l 89 1097 z m 304 475 l 374 544 l 304 614 l 235 544 z "},"Ł":{"ha":594,"x_min":0,"x_max":0,"o":"m 574 53 b 225 25 429 31 308 25 l 192 25 l 192 486 l 467 644 l 457 661 l 192 508 l 192 1011 l 119 1011 l 119 468 l 33 418 l 43 401 l 119 446 l 119 0 l 554 0 l 576 53 z "},"ł":{"ha":285,"x_min":0,"x_max":0,"o":"m 261 564 l 251 581 l 175 536 l 175 1125 l 169 1125 l 108 1097 l 108 499 l 22 449 l 32 432 l 108 476 l 108 0 l 175 0 l 175 514 z "},"Ń":{"ha":876,"x_min":0,"x_max":0,"o":"m 633 1333 l 511 1333 l 400 1124 l 410 1117 z m 726 1011 b 740 569 738 900 740 764 l 740 139 l 150 1011 l 65 1011 l 65 1007 l 110 942 l 110 442 b 96 0 110 247 107 111 l 151 0 b 138 442 140 111 138 247 l 138 900 l 760 -17 l 768 -17 l 768 569 b 782 1011 768 764 771 900 z "},"ń":{"ha":746,"x_min":0,"x_max":0,"o":"m 578 1072 l 472 1072 l 358 849 l 368 842 z m 438 744 b 150 618 328 744 240 701 l 150 739 l 144 739 l 83 711 l 83 0 l 150 0 l 150 592 b 408 708 235 672 318 708 b 600 475 600 708 600 536 l 600 0 l 667 0 l 667 486 b 438 744 667 663 589 744 z "},"Ņ":{"ha":876,"x_min":0,"x_max":0,"o":"m 726 1011 b 740 569 738 900 740 764 l 740 139 l 150 1011 l 65 1011 l 65 1007 l 110 942 l 110 442 b 96 0 110 247 107 111 l 151 0 b 138 442 140 111 138 247 l 138 900 l 760 -17 l 768 -17 l 768 569 b 782 1011 768 764 771 900 z m 421 -68 l 363 -126 b 449 -256 419 -165 449 -211 b 376 -369 449 -297 425 -336 l 383 -379 b 504 -200 463 -336 504 -265 b 421 -68 504 -149 478 -99 z "},"ņ":{"ha":746,"x_min":0,"x_max":0,"o":"m 438 744 b 150 618 328 744 240 701 l 150 739 l 144 739 l 83 711 l 83 0 l 150 0 l 150 592 b 408 708 235 672 318 708 b 600 475 600 708 600 536 l 600 0 l 667 0 l 667 486 b 438 744 667 663 589 744 z m 369 -68 l 311 -126 b 397 -256 368 -165 397 -211 b 325 -369 397 -297 374 -336 l 332 -379 b 453 -200 411 -336 453 -265 b 369 -68 453 -149 426 -99 z "},"Ň":{"ha":876,"x_min":0,"x_max":0,"o":"m 431 1117 l 650 1326 l 642 1333 l 426 1194 l 211 1333 l 203 1326 l 422 1117 z m 726 1011 b 740 569 738 900 740 764 l 740 139 l 150 1011 l 65 1011 l 65 1007 l 110 942 l 110 442 b 96 0 110 247 107 111 l 151 0 b 138 442 140 111 138 247 l 138 900 l 760 -17 l 768 -17 l 768 569 b 782 1011 768 764 771 900 z "},"ň":{"ha":746,"x_min":0,"x_max":0,"o":"m 388 842 l 579 1065 l 571 1072 l 383 924 l 196 1072 l 188 1065 l 379 842 z m 438 744 b 150 618 328 744 240 701 l 150 739 l 144 739 l 83 711 l 83 0 l 150 0 l 150 592 b 408 708 235 672 318 708 b 600 475 600 708 600 536 l 600 0 l 667 0 l 667 486 b 438 744 667 663 589 744 z "},"ŉ":{"ha":746,"x_min":0,"x_max":0,"o":"m -1 1056 l -60 997 b 26 868 -3 958 26 913 b -46 754 26 826 3 788 l -39 744 b 82 924 40 788 82 858 b -1 1056 82 975 56 1025 z m 438 744 b 150 618 328 744 240 701 l 150 739 l 144 739 l 83 711 l 83 0 l 150 0 l 150 592 b 408 708 235 672 318 708 b 600 475 600 708 600 536 l 600 0 l 667 0 l 667 486 b 438 744 667 663 589 744 z "},"Ŋ":{"ha":876,"x_min":0,"x_max":0,"o":"m 726 1011 b 740 569 738 900 740 764 l 740 139 l 150 1011 l 65 1011 l 65 1007 l 110 942 l 110 442 b 96 0 110 247 107 111 l 151 0 b 138 442 140 111 138 247 l 138 900 l 740 13 l 740 -49 b 565 -300 740 -193 678 -279 l 571 -317 b 768 -49 697 -294 768 -201 l 768 569 b 782 1011 768 764 771 900 z "},"ŋ":{"ha":746,"x_min":0,"x_max":0,"o":"m 438 744 b 150 618 328 744 240 701 l 150 739 l 144 739 l 83 711 l 83 0 l 150 0 l 150 592 b 408 708 235 672 318 708 b 600 475 600 708 600 536 l 600 -49 b 425 -297 600 -189 535 -281 l 428 -317 b 667 -49 583 -294 667 -199 l 667 486 b 438 744 667 663 589 744 z "},"Ō":{"ha":1139,"x_min":0,"x_max":0,"o":"m 357 1139 l 783 1139 l 783 1169 l 357 1169 z m 561 -17 b 1083 514 849 -17 1083 193 b 578 1028 1083 829 857 1028 b 56 497 290 1028 56 818 b 561 -17 56 182 282 -17 z m 575 6 b 136 511 331 6 136 208 b 567 1006 136 808 325 1006 b 1003 500 808 1006 1003 803 b 575 6 1003 201 814 6 z "},"ō":{"ha":789,"x_min":0,"x_max":0,"o":"m 218 908 l 572 908 l 572 939 l 218 939 z m 389 -17 b 744 368 592 -17 744 136 b 400 744 744 601 599 744 b 44 360 197 744 44 592 b 389 -17 44 126 190 -17 z m 396 3 b 119 368 240 3 119 147 b 392 725 119 586 239 725 b 669 360 549 725 669 581 b 396 3 669 143 550 3 z "},"Ŏ":{"ha":1139,"x_min":0,"x_max":0,"o":"m 569 1133 b 785 1319 692 1133 760 1225 l 772 1324 b 569 1185 744 1249 668 1185 b 368 1324 472 1185 396 1249 l 356 1319 b 569 1133 381 1225 447 1133 z m 561 -17 b 1083 514 849 -17 1083 193 b 578 1028 1083 829 857 1028 b 56 497 290 1028 56 818 b 561 -17 56 182 282 -17 z m 575 6 b 136 511 331 6 136 208 b 567 1006 136 808 325 1006 b 1003 500 808 1006 1003 803 b 575 6 1003 201 814 6 z "},"ŏ":{"ha":789,"x_min":0,"x_max":0,"o":"m 394 858 b 596 1044 517 858 571 950 l 583 1049 b 394 910 556 974 493 910 b 207 1049 297 910 235 974 l 194 1044 b 394 858 219 950 272 858 z m 389 -17 b 744 368 592 -17 744 136 b 400 744 744 601 599 744 b 44 360 197 744 44 592 b 389 -17 44 126 190 -17 z m 396 3 b 119 368 240 3 119 147 b 392 725 119 586 239 725 b 669 360 549 725 669 581 b 396 3 669 143 550 3 z "},"Ő":{"ha":1139,"x_min":0,"x_max":0,"o":"m 469 1117 l 676 1333 l 571 1333 l 460 1124 z m 636 1117 l 843 1333 l 738 1333 l 626 1124 z m 561 -17 b 1083 514 849 -17 1083 193 b 578 1028 1083 829 857 1028 b 56 497 290 1028 56 818 b 561 -17 56 182 282 -17 z m 575 6 b 136 511 331 6 136 208 b 567 1006 136 808 325 1006 b 1003 500 808 1006 1003 803 b 575 6 1003 201 814 6 z "},"ő":{"ha":789,"x_min":0,"x_max":0,"o":"m 293 842 l 489 1072 l 397 1072 l 283 849 z m 460 842 l 656 1072 l 564 1072 l 450 849 z m 389 -17 b 744 368 592 -17 744 136 b 400 744 744 601 599 744 b 44 360 197 744 44 592 b 389 -17 44 126 190 -17 z m 396 3 b 119 368 240 3 119 147 b 392 725 119 586 239 725 b 669 360 549 725 669 581 b 396 3 669 143 550 3 z "},"Œ":{"ha":1433,"x_min":0,"x_max":0,"o":"m 1408 53 b 990 25 1269 33 1113 25 l 896 25 l 896 514 l 985 514 b 1282 503 1135 514 1229 508 l 1285 503 l 1285 547 l 1282 547 b 985 539 1229 542 1135 539 l 896 539 l 896 986 l 990 986 b 1382 958 1113 986 1243 978 l 1385 958 l 1368 1011 l 571 1011 b 57 493 261 1011 57 821 b 563 0 57 176 253 0 l 1389 0 l 1411 53 z m 138 501 b 563 989 138 813 299 989 b 824 976 692 989 779 985 l 824 35 b 576 22 779 26 692 22 b 138 501 317 22 138 215 z "},"œ":{"ha":1340,"x_min":0,"x_max":0,"o":"m 1019 22 b 744 378 867 22 744 156 b 746 419 744 392 744 406 l 1303 419 b 1019 744 1303 625 1192 744 b 708 535 876 744 763 665 b 400 744 658 668 546 744 b 44 360 197 744 44 592 b 389 -17 44 126 190 -17 b 703 192 535 -17 650 63 b 997 -17 753 63 860 -17 b 1290 156 1124 -17 1224 51 l 1274 165 b 1019 22 1213 69 1106 22 z m 396 3 b 119 368 240 3 119 147 b 392 725 119 586 239 725 b 669 360 549 725 669 581 b 396 3 669 143 550 3 z m 1010 725 b 1228 442 1144 725 1225 611 l 749 442 b 1010 725 769 613 875 725 z "},"Ŕ":{"ha":797,"x_min":0,"x_max":0,"o":"m 539 1333 l 417 1333 l 306 1124 l 315 1117 z m 444 475 b 683 751 572 525 683 600 b 293 1011 683 926 540 1011 l 106 1011 l 106 0 l 178 0 l 178 454 l 313 454 b 394 422 361 454 375 444 l 771 -17 l 776 -17 l 776 89 z m 325 476 b 178 486 293 476 214 479 l 178 989 l 293 989 b 603 743 500 989 603 893 b 325 476 603 599 496 476 z "},"ŕ":{"ha":457,"x_min":0,"x_max":0,"o":"m 411 1072 l 306 1072 l 192 849 l 201 842 z m 383 742 b 150 589 286 742 211 682 l 150 739 l 144 739 l 83 711 l 83 0 l 150 0 l 150 556 b 347 688 196 629 265 688 b 426 671 369 688 400 683 l 451 733 b 383 742 428 739 406 742 z "},"Ŗ":{"ha":797,"x_min":0,"x_max":0,"o":"m 444 475 b 683 751 572 525 683 600 b 293 1011 683 926 540 1011 l 106 1011 l 106 0 l 178 0 l 178 454 l 313 454 b 394 422 361 454 375 444 l 771 -17 l 776 -17 l 776 89 z m 325 476 b 178 486 293 476 214 479 l 178 989 l 293 989 b 603 743 500 989 603 893 b 325 476 603 599 496 476 z m 396 -68 l 338 -126 b 424 -256 394 -165 424 -211 b 351 -369 424 -297 400 -336 l 358 -379 b 479 -200 438 -336 479 -265 b 396 -68 479 -149 453 -99 z "},"ŗ":{"ha":457,"x_min":0,"x_max":0,"o":"m 383 742 b 150 589 286 742 211 682 l 150 739 l 144 739 l 83 711 l 83 0 l 150 0 l 150 556 b 347 688 196 629 265 688 b 426 671 369 688 400 683 l 451 733 b 383 742 428 739 406 742 z m 111 -68 l 53 -126 b 139 -256 110 -165 139 -211 b 67 -369 139 -297 115 -336 l 74 -379 b 194 -200 153 -336 194 -265 b 111 -68 194 -149 168 -99 z "},"Ř":{"ha":797,"x_min":0,"x_max":0,"o":"m 336 1117 l 556 1326 l 547 1333 l 332 1194 l 117 1333 l 108 1326 l 328 1117 z m 444 475 b 683 751 572 525 683 600 b 293 1011 683 926 540 1011 l 106 1011 l 106 0 l 178 0 l 178 454 l 313 454 b 394 422 361 454 375 444 l 771 -17 l 776 -17 l 776 89 z m 325 476 b 178 486 293 476 214 479 l 178 989 l 293 989 b 603 743 500 989 603 893 b 325 476 603 599 496 476 z "},"ř":{"ha":457,"x_min":0,"x_max":0,"o":"m 221 842 l 413 1065 l 404 1072 l 217 924 l 29 1072 l 21 1065 l 213 842 z m 383 742 b 150 589 286 742 211 682 l 150 739 l 144 739 l 83 711 l 83 0 l 150 0 l 150 556 b 347 688 196 629 265 688 b 426 671 369 688 400 683 l 451 733 b 383 742 428 739 406 742 z "},"Ś":{"ha":726,"x_min":0,"x_max":0,"o":"m 344 1117 l 568 1333 l 446 1333 l 335 1124 z m 358 -17 b 678 260 522 -17 678 78 b 424 549 678 419 561 482 l 354 582 b 133 819 236 639 133 693 b 350 1006 133 922 214 1006 b 622 897 457 1006 558 957 l 638 950 b 361 1028 569 992 464 1028 b 67 785 186 1028 67 925 b 322 510 67 635 203 567 l 392 476 b 614 219 499 425 614 361 b 367 6 614 92 507 6 b 67 119 263 6 136 53 l 49 61 b 358 -17 129 19 250 -17 z "},"ś":{"ha":574,"x_min":0,"x_max":0,"o":"m 258 842 l 468 1072 l 363 1072 l 249 849 z m 282 -17 b 542 183 435 -17 542 60 b 338 400 542 308 431 358 l 282 425 b 107 589 208 458 107 497 b 274 725 107 661 167 725 b 499 638 364 725 450 678 l 514 683 b 279 744 456 718 367 744 b 49 568 149 744 49 679 b 256 358 49 451 157 403 l 311 333 b 485 161 399 294 485 256 b 288 3 485 68 403 3 b 47 104 185 3 107 44 l 32 58 b 282 -17 113 4 203 -17 z "},"Ŝ":{"ha":726,"x_min":0,"x_max":0,"o":"m 361 1256 l 576 1117 l 585 1124 l 365 1333 l 357 1333 l 138 1124 l 146 1117 z m 424 549 l 354 582 b 133 819 236 639 133 693 b 350 1006 133 922 214 1006 b 622 897 457 1006 558 957 l 638 950 b 361 1028 569 992 464 1028 b 67 785 186 1028 67 925 b 322 510 67 635 203 567 l 392 476 b 614 219 499 425 614 361 b 367 6 614 92 507 6 b 67 119 263 6 136 53 l 49 61 b 358 -17 129 19 250 -17 b 678 260 522 -17 678 78 b 424 549 678 419 561 482 z "},"ŝ":{"ha":574,"x_min":0,"x_max":0,"o":"m 274 990 l 461 842 l 469 849 l 278 1072 l 269 1072 l 78 849 l 86 842 z m 338 400 l 282 425 b 107 589 208 458 107 497 b 274 725 107 661 167 725 b 499 638 364 725 450 678 l 514 683 b 279 744 456 718 367 744 b 49 568 149 744 49 679 b 256 358 49 451 157 403 l 311 333 b 485 161 399 294 485 256 b 288 3 485 68 403 3 b 47 104 185 3 107 44 l 32 58 b 282 -17 113 4 203 -17 b 542 183 435 -17 542 60 b 338 400 542 308 431 358 z "},"Ş":{"ha":726,"x_min":0,"x_max":0,"o":"m 678 260 b 424 549 678 419 561 482 l 354 582 b 133 819 236 639 133 693 b 350 1006 133 922 214 1006 b 622 897 457 1006 558 957 l 638 950 b 361 1028 569 992 464 1028 b 67 785 186 1028 67 925 b 322 510 67 635 203 567 l 392 476 b 614 219 499 425 614 361 b 367 6 614 92 507 6 b 67 119 263 6 136 53 l 49 61 b 351 -17 128 21 244 -15 l 299 -133 l 333 -133 b 439 -204 397 -133 439 -167 b 331 -279 439 -247 394 -279 b 250 -267 304 -279 264 -272 l 246 -279 b 343 -297 278 -292 313 -297 b 483 -186 419 -297 483 -256 b 351 -78 483 -131 432 -85 l 379 -17 b 678 260 535 -8 678 85 z "},"ş":{"ha":574,"x_min":0,"x_max":0,"o":"m 542 183 b 338 400 542 308 431 358 l 282 425 b 107 589 208 458 107 497 b 274 725 107 661 167 725 b 499 638 364 725 450 678 l 514 683 b 279 744 456 718 367 744 b 49 568 149 744 49 679 b 256 358 49 451 157 403 l 311 333 b 485 161 399 294 485 256 b 288 3 485 68 403 3 b 47 104 185 3 107 44 l 32 58 b 269 -17 108 7 193 -14 l 217 -133 l 251 -133 b 357 -204 315 -133 357 -167 b 249 -279 357 -247 313 -279 b 168 -267 222 -279 182 -272 l 164 -279 b 261 -297 196 -292 231 -297 b 401 -186 338 -297 401 -256 b 269 -78 401 -131 350 -85 l 297 -17 b 542 183 442 -11 542 64 z "},"Š":{"ha":726,"x_min":0,"x_max":0,"o":"m 365 1117 l 585 1326 l 576 1333 l 361 1194 l 146 1333 l 138 1326 l 357 1117 z m 424 549 l 354 582 b 133 819 236 639 133 693 b 350 1006 133 922 214 1006 b 622 897 457 1006 558 957 l 638 950 b 361 1028 569 992 464 1028 b 67 785 186 1028 67 925 b 322 510 67 635 203 567 l 392 476 b 614 219 499 425 614 361 b 367 6 614 92 507 6 b 67 119 263 6 136 53 l 49 61 b 358 -17 129 19 250 -17 b 678 260 522 -17 678 78 b 424 549 678 419 561 482 z "},"š":{"ha":574,"x_min":0,"x_max":0,"o":"m 278 842 l 469 1065 l 461 1072 l 274 924 l 86 1072 l 78 1065 l 269 842 z m 338 400 l 282 425 b 107 589 208 458 107 497 b 274 725 107 661 167 725 b 499 638 364 725 450 678 l 514 683 b 279 744 456 718 367 744 b 49 568 149 744 49 679 b 256 358 49 451 157 403 l 311 333 b 485 161 399 294 485 256 b 288 3 485 68 403 3 b 47 104 185 3 107 44 l 32 58 b 282 -17 113 4 203 -17 b 542 183 435 -17 542 60 b 338 400 542 308 431 358 z "},"Ţ":{"ha":756,"x_min":0,"x_max":0,"o":"m 414 0 l 414 986 l 456 986 b 739 958 539 986 628 978 l 742 958 l 725 1011 l 31 1011 l 14 958 l 17 958 b 300 986 128 978 217 986 l 342 986 l 342 0 l 372 0 l 313 -133 l 347 -133 b 453 -204 411 -133 453 -167 b 344 -279 453 -247 408 -279 b 264 -267 318 -279 278 -272 l 260 -279 b 357 -297 292 -292 326 -297 b 497 -186 433 -297 497 -256 b 365 -78 497 -131 446 -85 l 400 0 z "},"ţ":{"ha":468,"x_min":0,"x_max":0,"o":"m 296 -78 l 324 -17 b 475 35 381 -12 426 7 l 464 51 b 338 17 415 25 371 17 b 210 178 210 17 210 135 l 210 697 l 447 697 l 467 728 l 210 728 l 210 946 l 204 946 l 135 728 l 22 721 l 22 697 l 143 697 l 143 167 b 296 -17 143 118 143 -10 l 243 -133 l 278 -133 b 383 -204 342 -133 383 -167 b 275 -279 383 -247 339 -279 b 194 -267 249 -279 208 -272 l 190 -279 b 288 -297 222 -292 257 -297 b 428 -186 364 -297 428 -256 b 296 -78 428 -131 376 -85 z "},"Ť":{"ha":756,"x_min":0,"x_max":0,"o":"m 382 1117 l 601 1326 l 593 1333 l 378 1194 l 163 1333 l 154 1326 l 374 1117 z m 725 1011 l 31 1011 l 14 958 l 17 958 b 300 986 128 978 217 986 l 342 986 l 342 0 l 414 0 l 414 986 l 456 986 b 739 958 539 986 628 978 l 742 958 z "},"ť":{"ha":468,"x_min":0,"x_max":0,"o":"m 431 892 b 372 801 431 860 413 829 l 378 794 b 475 936 442 829 475 885 b 408 1042 475 978 454 1017 l 361 996 b 431 892 407 965 431 928 z m 338 17 b 210 178 210 17 210 135 l 210 697 l 447 697 l 467 728 l 210 728 l 210 946 l 204 946 l 135 728 l 22 721 l 22 697 l 143 697 l 143 167 b 307 -17 143 117 143 -17 b 475 35 372 -17 422 4 l 464 51 b 338 17 415 25 371 17 z "},"Ŧ":{"ha":781,"x_min":0,"x_max":0,"o":"m 468 986 b 751 958 551 986 640 978 l 754 958 l 738 1011 l 43 1011 l 26 958 l 29 958 b 313 986 140 978 229 986 l 354 986 l 354 535 l 160 535 l 160 515 l 354 515 l 354 0 l 426 0 l 426 515 l 621 515 l 621 535 l 426 535 l 426 986 z "},"ŧ":{"ha":490,"x_min":0,"x_max":0,"o":"m 479 51 b 353 17 431 25 386 17 b 225 178 225 17 225 135 l 225 446 l 474 446 l 474 465 l 225 465 l 225 697 l 463 697 l 482 728 l 225 728 l 225 946 l 219 946 l 150 728 l 38 721 l 38 697 l 158 697 l 158 465 l 38 465 l 38 446 l 158 446 l 158 167 b 322 -17 158 117 158 -17 b 490 35 388 -17 438 4 z "},"Ũ":{"ha":882,"x_min":0,"x_max":0,"o":"m 222 1133 b 297 1211 236 1183 254 1211 b 571 1133 368 1211 486 1133 b 683 1258 639 1133 669 1183 l 671 1261 b 596 1183 657 1211 639 1183 b 322 1261 526 1183 407 1261 b 210 1136 254 1261 224 1211 z m 440 -17 b 781 336 668 -17 781 110 l 781 569 b 794 1011 781 764 783 900 l 739 1011 b 753 569 750 900 753 764 l 753 329 b 463 19 753 124 646 19 b 171 336 268 19 171 129 l 171 1011 l 99 1011 l 99 329 b 440 -17 99 106 217 -17 z "},"ũ":{"ha":744,"x_min":0,"x_max":0,"o":"m 233 936 b 479 858 304 936 394 858 b 592 983 547 858 578 908 l 579 986 b 504 908 565 936 547 908 b 258 986 435 908 343 986 b 146 861 190 986 160 936 l 158 858 b 233 936 172 908 190 936 z m 657 122 l 657 739 l 651 739 l 590 711 l 590 149 b 336 19 524 71 422 19 b 144 253 144 19 144 192 l 144 739 l 139 739 l 78 711 l 78 242 b 307 -17 78 65 156 -17 b 590 115 410 -17 514 38 l 590 108 l 626 -11 l 688 17 z "},"Ū":{"ha":882,"x_min":0,"x_max":0,"o":"m 233 1139 l 660 1139 l 660 1169 l 233 1169 z m 440 -17 b 781 336 668 -17 781 110 l 781 569 b 794 1011 781 764 783 900 l 739 1011 b 753 569 750 900 753 764 l 753 329 b 463 19 753 124 646 19 b 171 336 268 19 171 129 l 171 1011 l 99 1011 l 99 329 b 440 -17 99 106 217 -17 z "},"ū":{"ha":744,"x_min":0,"x_max":0,"o":"m 546 939 l 192 939 l 192 908 l 546 908 z m 657 122 l 657 739 l 651 739 l 590 711 l 590 149 b 336 19 524 71 422 19 b 144 253 144 19 144 192 l 144 739 l 139 739 l 78 711 l 78 242 b 307 -17 78 65 156 -17 b 590 115 410 -17 514 38 l 590 108 l 626 -11 l 688 17 z "},"Ŭ":{"ha":882,"x_min":0,"x_max":0,"o":"m 446 1133 b 661 1319 568 1133 636 1225 l 649 1324 b 446 1185 621 1249 544 1185 b 244 1324 349 1185 272 1249 l 232 1319 b 446 1133 257 1225 324 1133 z m 440 -17 b 781 336 668 -17 781 110 l 781 569 b 794 1011 781 764 783 900 l 739 1011 b 753 569 750 900 753 764 l 753 329 b 463 19 753 124 646 19 b 171 336 268 19 171 129 l 171 1011 l 99 1011 l 99 329 b 440 -17 99 106 217 -17 z "},"ŭ":{"ha":744,"x_min":0,"x_max":0,"o":"m 368 858 b 569 1044 490 858 544 950 l 557 1049 b 368 910 529 974 467 910 b 181 1049 271 910 208 974 l 168 1044 b 368 858 193 950 246 858 z m 657 122 l 657 739 l 651 739 l 590 711 l 590 149 b 336 19 524 71 422 19 b 144 253 144 19 144 192 l 144 739 l 139 739 l 78 711 l 78 242 b 307 -17 78 65 156 -17 b 590 115 410 -17 514 38 l 590 108 l 626 -11 l 688 17 z "},"Ů":{"ha":882,"x_min":0,"x_max":0,"o":"m 446 1117 b 581 1249 521 1117 581 1174 b 446 1381 581 1324 521 1381 b 311 1249 371 1381 311 1324 b 446 1117 311 1174 371 1117 z m 446 1133 b 356 1249 388 1133 356 1179 b 446 1364 356 1318 388 1364 b 536 1249 504 1364 536 1318 b 446 1133 536 1179 504 1133 z m 440 -17 b 781 336 668 -17 781 110 l 781 569 b 794 1011 781 764 783 900 l 739 1011 b 753 569 750 900 753 764 l 753 329 b 463 19 753 124 646 19 b 171 336 268 19 171 129 l 171 1011 l 99 1011 l 99 329 b 440 -17 99 106 217 -17 z "},"ů":{"ha":744,"x_min":0,"x_max":0,"o":"m 368 842 b 503 974 443 842 503 899 b 368 1106 503 1049 443 1106 b 233 974 293 1106 233 1049 b 368 842 233 899 293 842 z m 368 1089 b 458 974 426 1089 458 1043 b 368 858 458 904 426 858 b 278 974 310 858 278 904 b 368 1089 278 1043 310 1089 z m 657 122 l 657 739 l 651 739 l 590 711 l 590 149 b 336 19 524 71 422 19 b 144 253 144 19 144 192 l 144 739 l 139 739 l 78 711 l 78 242 b 307 -17 78 65 156 -17 b 590 115 410 -17 514 38 l 590 108 l 626 -11 l 688 17 z "},"Ű":{"ha":882,"x_min":0,"x_max":0,"o":"m 346 1117 l 553 1333 l 447 1333 l 336 1124 z m 513 1117 l 719 1333 l 614 1333 l 503 1124 z m 440 -17 b 781 336 668 -17 781 110 l 781 569 b 794 1011 781 764 783 900 l 739 1011 b 753 569 750 900 753 764 l 753 329 b 463 19 753 124 646 19 b 171 336 268 19 171 129 l 171 1011 l 99 1011 l 99 329 b 440 -17 99 106 217 -17 z "},"ű":{"ha":744,"x_min":0,"x_max":0,"o":"m 463 1072 l 371 1072 l 257 849 l 267 842 z m 433 842 l 629 1072 l 538 1072 l 424 849 z m 657 122 l 657 739 l 651 739 l 590 711 l 590 149 b 336 19 524 71 422 19 b 144 253 144 19 144 192 l 144 739 l 139 739 l 78 711 l 78 242 b 307 -17 78 65 156 -17 b 590 115 410 -17 514 38 l 590 108 l 626 -11 l 688 17 z "},"Ų":{"ha":882,"x_min":0,"x_max":0,"o":"m 739 1011 b 753 569 750 900 753 764 l 753 329 b 463 19 753 124 646 19 b 171 336 268 19 171 129 l 171 1011 l 99 1011 l 99 329 b 440 -17 99 106 217 -17 l 458 -17 b 336 -200 388 -79 336 -136 b 442 -297 336 -260 383 -297 b 572 -253 492 -297 540 -272 l 568 -246 b 483 -265 543 -256 515 -265 b 403 -182 440 -265 403 -235 b 485 -15 403 -137 424 -83 b 781 336 683 1 781 125 l 781 569 b 794 1011 781 764 783 900 z "},"ų":{"ha":744,"x_min":0,"x_max":0,"o":"m 701 -246 b 617 -265 676 -256 649 -265 b 536 -182 574 -265 536 -235 b 647 -1 536 -107 593 -25 l 688 17 l 657 122 l 657 739 l 651 739 l 590 711 l 590 149 b 336 19 524 71 422 19 b 144 253 144 19 144 192 l 144 739 l 139 739 l 78 711 l 78 242 b 307 -17 78 65 156 -17 b 590 115 410 -17 514 38 l 590 108 l 621 6 b 469 -200 550 -42 469 -126 b 575 -297 469 -260 517 -297 b 706 -253 625 -297 674 -272 z "},"Ŵ":{"ha":1310,"x_min":0,"x_max":0,"o":"m 681 1256 l 896 1117 l 904 1124 l 685 1333 l 676 1333 l 457 1124 l 465 1117 z m 1238 1011 b 1122 576 1219 900 1186 767 l 974 132 l 683 1011 l 678 1011 l 382 131 l 90 1011 l 14 1011 l 356 -17 l 361 -17 l 657 865 l 949 -17 l 954 -17 l 1149 568 b 1299 1011 1197 715 1247 864 z "},"ŵ":{"ha":1038,"x_min":0,"x_max":0,"o":"m 542 990 l 729 842 l 738 849 l 546 1072 l 538 1072 l 346 849 l 354 842 z m 963 728 b 846 326 951 649 917 521 l 765 107 l 547 728 l 536 728 l 321 104 l 81 728 l 10 728 l 294 -14 l 306 -14 l 521 603 l 738 -14 l 749 -14 l 869 315 b 1026 728 936 496 976 607 z "},"Ŷ":{"ha":768,"x_min":0,"x_max":0,"o":"m 393 1256 l 608 1117 l 617 1124 l 397 1333 l 389 1333 l 169 1124 l 178 1117 z m 747 1011 l 685 1011 b 482 611 651 915 583 786 l 407 482 l 104 1011 l 21 1011 l 349 450 l 349 0 l 421 0 l 421 453 l 506 599 b 747 1011 585 736 665 874 z "},"ŷ":{"ha":649,"x_min":0,"x_max":0,"o":"m 325 990 l 513 842 l 521 849 l 329 1072 l 321 1072 l 129 849 l 138 842 z m 579 728 b 450 331 568 649 519 506 l 356 93 l 79 728 l 7 728 l 321 7 l 271 -118 b 71 -271 225 -233 136 -271 b 18 -265 56 -271 36 -269 l 13 -325 b 297 -118 132 -325 233 -276 l 474 321 b 640 728 543 493 588 608 z "},"Ÿ":{"ha":768,"x_min":0,"x_max":0,"o":"m 329 1206 l 269 1265 l 208 1206 l 269 1144 z m 578 1206 l 518 1265 l 457 1206 l 518 1144 z m 747 1011 l 685 1011 b 482 611 651 915 583 786 l 407 482 l 104 1011 l 21 1011 l 349 450 l 349 0 l 421 0 l 421 453 l 506 599 b 747 1011 585 736 665 874 z "},"Ź":{"ha":707,"x_min":0,"x_max":0,"o":"m 569 1333 l 447 1333 l 336 1124 l 346 1117 z m 692 53 b 232 25 569 33 432 25 l 100 25 l 689 1006 l 689 1011 l 51 1011 l 35 958 l 38 958 b 485 986 143 978 285 986 l 596 986 l 7 6 l 7 0 l 672 0 l 694 53 z "},"ź":{"ha":572,"x_min":0,"x_max":0,"o":"m 486 1072 l 381 1072 l 267 849 l 276 842 z m 560 49 b 229 21 465 32 368 21 l 104 21 l 546 722 l 546 728 l 36 728 l 25 682 l 29 682 b 344 707 124 699 206 707 l 458 707 l 17 6 l 17 0 l 549 0 l 564 49 z "},"Ż":{"ha":707,"x_min":0,"x_max":0,"o":"m 432 1214 l 363 1283 l 293 1214 l 363 1144 z m 692 53 b 232 25 569 33 432 25 l 100 25 l 689 1006 l 689 1011 l 51 1011 l 35 958 l 38 958 b 485 986 143 978 285 986 l 596 986 l 7 6 l 7 0 l 672 0 l 694 53 z "},"ż":{"ha":572,"x_min":0,"x_max":0,"o":"m 356 933 l 292 997 l 228 933 l 292 869 z m 560 49 b 229 21 465 32 368 21 l 104 21 l 546 722 l 546 728 l 36 728 l 25 682 l 29 682 b 344 707 124 699 206 707 l 458 707 l 17 6 l 17 0 l 549 0 l 564 49 z "},"Ž":{"ha":707,"x_min":0,"x_max":0,"o":"m 367 1117 l 586 1326 l 578 1333 l 363 1194 l 147 1333 l 139 1326 l 358 1117 z m 692 53 b 232 25 569 33 432 25 l 100 25 l 689 1006 l 689 1011 l 51 1011 l 35 958 l 38 958 b 485 986 143 978 285 986 l 596 986 l 7 6 l 7 0 l 672 0 l 694 53 z "},"ž":{"ha":572,"x_min":0,"x_max":0,"o":"m 296 842 l 488 1065 l 479 1072 l 292 924 l 104 1072 l 96 1065 l 288 842 z m 560 49 b 229 21 465 32 368 21 l 104 21 l 546 722 l 546 728 l 36 728 l 25 682 l 29 682 b 344 707 124 699 206 707 l 458 707 l 17 6 l 17 0 l 549 0 l 564 49 z "},"ƒ":{"ha":808,"x_min":0,"x_max":0,"o":"m 657 1019 b 775 988 688 1019 724 1017 l 783 1004 b 639 1053 738 1038 689 1053 b 428 794 522 1053 451 965 l 389 519 l 185 519 l 185 494 l 386 494 l 313 -28 b 149 -264 290 -190 239 -264 b 31 -232 118 -264 82 -261 l 22 -249 b 167 -297 68 -282 117 -297 b 378 -39 283 -297 354 -210 l 453 494 l 668 494 l 675 519 l 456 519 l 493 783 b 657 1019 515 946 567 1019 z "},"Ǻ":{"ha":819,"x_min":0,"x_max":0,"o":"m 608 1444 l 486 1444 l 375 1321 l 385 1314 z m 733 0 l 811 0 l 424 997 b 544 1129 492 1004 544 1058 b 410 1261 544 1204 485 1261 b 275 1129 335 1261 275 1204 b 396 997 275 1058 328 1004 l 179 440 b 6 0 122 293 64 139 l 68 0 b 169 336 85 82 108 172 l 604 336 z m 319 1129 b 410 1244 319 1199 351 1244 b 500 1129 468 1244 500 1199 b 410 1014 500 1060 468 1014 b 319 1129 351 1014 319 1060 z m 178 361 l 206 432 l 386 899 l 594 361 z "},"ǻ":{"ha":663,"x_min":0,"x_max":0,"o":"m 521 1294 l 415 1294 l 301 1157 l 311 1150 z m 321 842 b 456 974 396 842 456 899 b 321 1106 456 1049 396 1106 b 186 974 246 1106 186 1049 b 321 842 186 899 246 842 z m 321 1089 b 411 974 379 1089 411 1043 b 321 858 411 904 379 858 b 231 974 263 858 231 904 b 321 1089 231 1043 263 1089 z m 626 25 b 557 131 557 25 557 64 l 557 486 b 329 744 557 664 479 744 b 78 636 229 744 154 706 l 90 621 b 301 708 160 681 224 708 b 490 475 429 708 490 632 l 490 392 b 346 379 444 389 394 385 b 26 150 157 357 26 283 b 218 -14 26 46 107 -14 b 490 96 307 -14 413 24 b 572 -6 493 58 504 -6 b 651 19 599 -6 625 4 l 651 28 b 626 25 643 26 635 25 z m 96 171 b 490 372 96 319 267 353 l 490 122 b 258 22 422 56 335 22 b 96 171 168 22 96 71 z "},"Ǽ":{"ha":1222,"x_min":0,"x_max":0,"o":"m 871 1333 l 749 1333 l 638 1124 l 647 1117 z m 1197 53 b 779 25 1058 33 901 25 l 685 25 l 685 514 l 774 514 b 1071 503 924 514 1018 508 l 1074 503 l 1074 547 l 1071 547 b 774 539 1018 542 924 539 l 685 539 l 685 986 l 779 986 b 1171 958 901 986 1032 978 l 1174 958 l 1157 1011 l 599 1011 l -15 0 l 50 0 b 238 364 89 96 153 218 l 613 364 l 613 0 l 1178 0 l 1200 53 z m 253 389 l 281 435 l 613 982 l 613 389 z "},"ǽ":{"ha":1157,"x_min":0,"x_max":0,"o":"m 750 1072 l 644 1072 l 531 849 l 540 842 z m 836 22 b 561 378 683 22 561 156 b 563 419 561 392 561 406 l 1119 419 b 836 744 1119 625 1008 744 b 550 592 715 744 613 688 b 333 744 524 696 450 744 b 65 636 231 744 150 706 l 78 621 b 303 708 154 681 225 708 b 494 475 433 708 494 632 l 494 429 b 350 407 450 422 399 415 b 31 150 163 378 31 283 b 222 -14 31 46 111 -14 b 540 140 318 -14 442 25 b 814 -17 597 43 696 -17 b 1107 156 940 -17 1040 51 l 1090 165 b 836 22 1029 69 922 22 z m 826 725 b 1044 442 961 725 1042 611 l 565 442 b 826 725 586 613 692 725 z m 100 171 b 494 408 100 319 264 372 l 494 122 b 263 22 426 56 339 22 b 100 171 172 22 100 71 z "},"Ǿ":{"ha":1139,"x_min":0,"x_max":0,"o":"m 776 1333 l 654 1333 l 543 1124 l 553 1117 z m 889 929 l 988 1067 l 965 1082 l 867 944 b 578 1028 785 999 685 1028 b 56 497 290 1028 56 818 b 250 82 56 314 132 171 l 151 -56 l 174 -71 l 272 67 b 561 -17 354 13 454 -17 b 1083 514 849 -17 1083 193 b 889 929 1083 697 1007 840 z m 136 511 b 567 1006 136 808 325 1006 b 838 904 669 1006 764 969 l 282 126 b 136 511 192 215 136 349 z m 575 6 b 301 108 471 6 376 42 l 857 885 b 1003 500 947 796 1003 663 b 575 6 1003 201 814 6 z "},"ǿ":{"ha":789,"x_min":0,"x_max":0,"o":"m 589 1072 l 483 1072 l 369 849 l 379 842 z m 613 675 l 685 785 l 664 799 l 593 689 b 400 744 539 725 472 744 b 44 360 197 744 44 592 b 176 53 44 222 94 117 l 104 -57 l 125 -71 l 196 39 b 389 -17 250 3 317 -17 b 744 368 592 -17 744 136 b 613 675 744 506 694 611 z m 119 368 b 392 725 119 586 239 725 b 567 650 458 725 519 699 l 204 96 b 119 368 151 160 119 254 z m 396 3 b 222 76 329 3 269 29 l 585 632 b 669 360 638 568 669 474 b 396 3 669 143 550 3 z "},"Ș":{"ha":726,"x_min":0,"x_max":0,"o":"m 358 -17 b 678 260 522 -17 678 78 b 424 549 678 419 561 482 l 354 582 b 133 819 236 639 133 693 b 350 1006 133 922 214 1006 b 622 897 457 1006 558 957 l 638 950 b 361 1028 569 992 464 1028 b 67 785 186 1028 67 925 b 322 510 67 635 203 567 l 392 476 b 614 219 499 425 614 361 b 367 6 614 92 507 6 b 67 119 263 6 136 53 l 49 61 b 358 -17 129 19 250 -17 z m 321 -379 b 442 -200 400 -336 442 -265 b 358 -68 442 -149 415 -99 l 300 -126 b 386 -256 357 -165 386 -211 b 314 -369 386 -297 363 -336 z "},"ș":{"ha":574,"x_min":0,"x_max":0,"o":"m 282 -17 b 542 183 435 -17 542 60 b 338 400 542 308 431 358 l 282 425 b 107 589 208 458 107 497 b 274 725 107 661 167 725 b 499 638 364 725 450 678 l 514 683 b 279 744 456 718 367 744 b 49 568 149 744 49 679 b 256 358 49 451 157 403 l 311 333 b 485 161 399 294 485 256 b 288 3 485 68 403 3 b 47 104 185 3 107 44 l 32 58 b 282 -17 113 4 203 -17 z m 247 -379 b 368 -200 326 -336 368 -265 b 285 -68 368 -149 342 -99 l 226 -126 b 313 -256 283 -165 313 -211 b 240 -369 313 -297 289 -336 z "},"Ț":{"ha":756,"x_min":0,"x_max":0,"o":"m 725 1011 l 31 1011 l 14 958 l 17 958 b 300 986 128 978 217 986 l 342 986 l 342 0 l 414 0 l 414 986 l 456 986 b 739 958 539 986 628 978 l 742 958 z m 372 -68 l 314 -126 b 400 -256 371 -165 400 -211 b 328 -369 400 -297 376 -336 l 335 -379 b 456 -200 414 -336 456 -265 b 372 -68 456 -149 429 -99 z "},"ț":{"ha":468,"x_min":0,"x_max":0,"o":"m 307 -17 b 475 35 372 -17 422 4 l 464 51 b 338 17 415 25 371 17 b 210 178 210 17 210 135 l 210 697 l 447 697 l 467 728 l 210 728 l 210 946 l 204 946 l 135 728 l 22 721 l 22 697 l 143 697 l 143 167 b 307 -17 143 117 143 -17 z m 311 -68 l 253 -126 b 339 -256 310 -165 339 -211 b 267 -369 339 -297 315 -336 l 274 -379 b 394 -200 353 -336 394 -265 b 311 -68 394 -149 368 -99 z "},"ȷ":{"ha":250,"x_min":0,"x_max":0,"o":"m -75 -317 b 161 -49 78 -294 161 -199 l 161 739 l 156 739 l 94 711 l 94 -49 b -81 -300 94 -189 29 -281 z "},"ʻ":{"ha":190,"x_min":0,"x_max":0,"o":"m 106 867 l 153 913 b 83 1017 107 943 83 981 b 142 1107 83 1049 101 1079 l 136 1114 b 39 972 72 1079 39 1024 b 106 867 39 931 60 892 z "},"ʼ":{"ha":193,"x_min":0,"x_max":0,"o":"m 60 867 b 157 1008 124 901 157 957 b 90 1114 157 1050 136 1089 l 43 1068 b 113 964 89 1038 113 1000 b 54 874 113 932 94 901 z "},"ˆ":{"ha":833,"x_min":0,"x_max":0,"o":"m 613 849 l 421 1072 l 413 1072 l 221 849 l 229 842 l 417 990 l 604 842 z "},"ˇ":{"ha":833,"x_min":0,"x_max":0,"o":"m 604 1072 l 417 924 l 229 1072 l 221 1065 l 413 842 l 421 842 l 613 1065 z "},"ˉ":{"ha":833,"x_min":0,"x_max":0,"o":"m 240 908 l 594 908 l 594 939 l 240 939 z "},"˘":{"ha":833,"x_min":0,"x_max":0,"o":"m 417 858 b 618 1044 539 858 593 950 l 606 1049 b 417 910 578 974 515 910 b 229 1049 319 910 257 974 l 217 1044 b 417 858 242 950 294 858 z "},"˙":{"ha":833,"x_min":0,"x_max":0,"o":"m 429 869 l 493 933 l 429 997 l 365 933 z "},"˚":{"ha":833,"x_min":0,"x_max":0,"o":"m 429 842 b 564 974 504 842 564 899 b 429 1106 564 1049 504 1106 b 294 974 354 1106 294 1049 b 429 842 294 899 354 842 z m 429 858 b 339 974 371 858 339 904 b 429 1089 339 1043 371 1089 b 519 974 488 1089 519 1043 b 429 858 519 904 488 858 z "},"˛":{"ha":833,"x_min":0,"x_max":0,"o":"m 475 -297 b 606 -253 525 -297 574 -272 l 601 -246 b 517 -265 576 -256 549 -265 b 436 -182 474 -265 436 -235 b 533 1 436 -133 461 -75 l 513 1 b 369 -200 431 -69 369 -131 b 475 -297 369 -260 417 -297 z "},"˜":{"ha":833,"x_min":0,"x_max":0,"o":"m 197 858 b 272 936 211 908 229 936 b 518 858 343 936 433 858 b 631 983 586 858 617 908 l 618 986 b 543 908 604 936 586 908 b 297 986 474 908 382 986 b 185 861 229 986 199 936 z "},"˝":{"ha":833,"x_min":0,"x_max":0,"o":"m 260 842 l 456 1072 l 364 1072 l 250 849 z m 426 842 l 622 1072 l 531 1072 l 417 849 z "},"̀":{"ha":0,"x_min":0,"x_max":0,"o":"m -261 842 l -251 849 l -365 1072 l -471 1072 z "},"́":{"ha":0,"x_min":0,"x_max":0,"o":"m -293 842 l -83 1072 l -189 1072 l -303 849 z "},"̂":{"ha":0,"x_min":0,"x_max":0,"o":"m -82 849 l -274 1072 l -282 1072 l -474 849 l -465 842 l -278 990 l -90 842 z "},"̃":{"ha":0,"x_min":0,"x_max":0,"o":"m -487 858 b -412 936 -474 908 -456 936 b -167 858 -342 936 -251 858 b -54 983 -99 858 -68 908 l -67 986 b -142 908 -81 936 -99 908 b -387 986 -211 908 -303 986 b -500 861 -456 986 -486 936 z "},"̄":{"ha":0,"x_min":0,"x_max":0,"o":"m -454 908 l -100 908 l -100 939 l -454 939 z "},"̆":{"ha":0,"x_min":0,"x_max":0,"o":"m -278 858 b -76 1044 -156 858 -101 950 l -89 1049 b -278 910 -117 974 -179 910 b -465 1049 -375 910 -437 974 l -478 1044 b -278 858 -453 950 -400 858 z "},"̇":{"ha":0,"x_min":0,"x_max":0,"o":"m -278 869 l -214 933 l -278 997 l -342 933 z "},"̈":{"ha":0,"x_min":0,"x_max":0,"o":"m -396 869 l -336 931 l -396 990 l -457 931 z m -158 869 l -99 931 l -158 990 l -219 931 z "},"̊":{"ha":0,"x_min":0,"x_max":0,"o":"m -278 842 b -143 974 -203 842 -143 899 b -278 1106 -143 1049 -203 1106 b -412 974 -353 1106 -412 1049 b -278 842 -412 899 -353 842 z m -278 858 b -368 974 -336 858 -368 904 b -278 1089 -368 1043 -336 1089 b -187 974 -219 1089 -187 1043 b -278 858 -187 904 -219 858 z "},"̋":{"ha":0,"x_min":0,"x_max":0,"o":"m -518 842 l -322 1072 l -414 1072 l -528 849 z m -351 842 l -156 1072 l -247 1072 l -361 849 z "},"̌":{"ha":0,"x_min":0,"x_max":0,"o":"m -90 1072 l -278 924 l -465 1072 l -474 1065 l -282 842 l -274 842 l -82 1065 z "},"̒":{"ha":0,"x_min":0,"x_max":0,"o":"m -265 853 l -218 899 b -287 1003 -264 929 -287 967 b -229 1093 -287 1035 -269 1065 l -235 1100 b -332 958 -299 1065 -332 1010 b -265 853 -332 917 -311 878 z "},"̓":{"ha":0,"x_min":0,"x_max":0,"o":"m -315 853 b -218 994 -251 888 -218 943 b -285 1100 -218 1036 -239 1075 l -332 1054 b -262 950 -286 1024 -262 986 b -321 860 -262 918 -281 888 z "},"̦":{"ha":0,"x_min":0,"x_max":0,"o":"m -321 -379 b -200 -200 -242 -336 -200 -265 b -283 -68 -200 -149 -226 -99 l -342 -126 b -256 -256 -285 -165 -256 -211 b -328 -369 -256 -297 -279 -336 z "},"̧":{"ha":0,"x_min":0,"x_max":0,"o":"m -299 -78 l -264 0 l -292 0 l -351 -133 l -317 -133 b -211 -204 -253 -133 -211 -167 b -319 -279 -211 -247 -256 -279 b -400 -267 -346 -279 -386 -272 l -404 -279 b -307 -297 -372 -292 -337 -297 b -167 -186 -231 -297 -167 -256 b -299 -78 -167 -131 -218 -85 z "},"̨":{"ha":0,"x_min":0,"x_max":0,"o":"m -265 -297 b -135 -253 -215 -297 -167 -272 l -139 -246 b -224 -265 -164 -256 -192 -265 b -304 -182 -267 -265 -304 -235 b -207 1 -304 -133 -279 -75 l -228 1 b -371 -200 -310 -69 -371 -131 b -265 -297 -371 -260 -324 -297 z "},";":{"ha":306,"x_min":0,"x_max":0,"o":"m 153 561 l 222 631 l 153 700 l 83 631 z m 104 -197 b 225 -18 183 -154 225 -83 b 142 114 225 33 199 83 l 83 56 b 169 -74 140 17 169 -29 b 97 -187 169 -115 146 -154 z "},"Δ":{"ha":819,"x_min":0,"x_max":0,"o":"m 413 1028 l 407 1028 l 8 0 l 811 0 z m 722 25 l 44 25 l 385 901 z "},"Ω":{"ha":1082,"x_min":0,"x_max":0,"o":"m 758 53 l 675 53 b 1008 563 893 226 1008 371 b 540 1028 1008 840 826 1028 b 72 557 268 1028 72 831 b 406 53 72 364 188 228 l 322 53 b 43 81 211 53 126 61 l 68 0 l 467 0 l 467 36 b 153 563 244 207 153 371 b 540 1006 153 826 304 1006 b 928 557 776 1006 928 818 b 614 36 928 357 828 193 l 614 0 l 1013 0 l 1038 81 b 758 53 954 61 869 53 z "},"μ":{"ha":750,"x_min":0,"x_max":0,"o":"m 663 122 l 663 739 l 657 739 l 596 711 l 596 149 b 342 19 529 71 428 19 b 150 253 150 19 150 192 l 150 739 l 144 739 l 83 711 l 83 -294 l 150 -294 l 150 -208 b 121 99 150 -128 135 0 b 313 -17 154 21 219 -17 b 596 115 415 -17 519 38 l 596 108 l 632 -11 l 693 17 z "},"π":{"ha":844,"x_min":0,"x_max":0,"o":"m 825 51 b 700 17 776 25 732 17 b 571 197 621 17 571 68 l 571 697 l 789 697 l 814 742 b 564 728 775 733 675 728 l 14 728 l 14 697 l 178 697 l 178 594 b 139 0 178 400 175 189 l 206 0 b 244 592 239 192 244 397 l 244 697 l 504 697 l 504 186 b 671 -17 504 39 568 -17 b 836 35 733 -17 783 4 z "},"Ẁ":{"ha":1310,"x_min":0,"x_max":0,"o":"m 707 1124 l 596 1333 l 474 1333 l 697 1117 z m 1238 1011 b 1122 576 1219 900 1186 767 l 974 132 l 683 1011 l 678 1011 l 382 131 l 90 1011 l 14 1011 l 356 -17 l 361 -17 l 657 865 l 949 -17 l 954 -17 l 1149 568 b 1299 1011 1197 715 1247 864 z "},"ẁ":{"ha":1038,"x_min":0,"x_max":0,"o":"m 568 849 l 454 1072 l 349 1072 l 558 842 z m 963 728 b 846 326 951 649 917 521 l 765 107 l 547 728 l 536 728 l 321 104 l 81 728 l 10 728 l 294 -14 l 306 -14 l 521 603 l 738 -14 l 749 -14 l 869 315 b 1026 728 936 496 976 607 z "},"Ẃ":{"ha":1310,"x_min":0,"x_max":0,"o":"m 888 1333 l 765 1333 l 654 1124 l 664 1117 z m 1238 1011 b 1122 576 1219 900 1186 767 l 974 132 l 683 1011 l 678 1011 l 382 131 l 90 1011 l 14 1011 l 356 -17 l 361 -17 l 657 865 l 949 -17 l 954 -17 l 1149 568 b 1299 1011 1197 715 1247 864 z "},"ẃ":{"ha":1038,"x_min":0,"x_max":0,"o":"m 736 1072 l 631 1072 l 517 849 l 526 842 z m 963 728 b 846 326 951 649 917 521 l 765 107 l 547 728 l 536 728 l 321 104 l 81 728 l 10 728 l 294 -14 l 306 -14 l 521 603 l 738 -14 l 749 -14 l 869 315 b 1026 728 936 496 976 607 z "},"Ẅ":{"ha":1310,"x_min":0,"x_max":0,"o":"m 617 1206 l 557 1265 l 496 1206 l 557 1144 z m 865 1206 l 806 1265 l 744 1206 l 806 1144 z m 1238 1011 b 1122 576 1219 900 1186 767 l 974 132 l 683 1011 l 678 1011 l 382 131 l 90 1011 l 14 1011 l 356 -17 l 361 -17 l 657 865 l 949 -17 l 954 -17 l 1149 568 b 1299 1011 1197 715 1247 864 z "},"ẅ":{"ha":1038,"x_min":0,"x_max":0,"o":"m 469 931 l 410 990 l 349 931 l 410 869 z m 707 931 l 647 990 l 586 931 l 647 869 z m 963 728 b 846 326 951 649 917 521 l 765 107 l 547 728 l 536 728 l 321 104 l 81 728 l 10 728 l 294 -14 l 306 -14 l 521 603 l 738 -14 l 749 -14 l 869 315 b 1026 728 936 496 976 607 z "},"ẞ":{"ha":894,"x_min":0,"x_max":0,"o":"m 533 543 l 751 933 b 440 1028 658 990 554 1028 b 99 682 225 1028 99 892 l 99 0 l 171 0 l 171 688 b 436 1004 171 890 260 1004 b 671 932 531 1004 607 972 l 443 525 l 482 522 b 785 256 682 508 785 407 b 557 11 785 115 696 11 b 346 101 481 11 396 43 l 329 46 b 546 -11 386 10 467 -11 b 865 269 740 -11 865 115 b 533 543 865 421 746 525 z "},"Ỳ":{"ha":768,"x_min":0,"x_max":0,"o":"m 419 1124 l 308 1333 l 186 1333 l 410 1117 z m 747 1011 l 685 1011 b 482 611 651 915 583 786 l 407 482 l 104 1011 l 21 1011 l 349 450 l 349 0 l 421 0 l 421 453 l 506 599 b 747 1011 585 736 665 874 z "},"ỳ":{"ha":649,"x_min":0,"x_max":0,"o":"m 351 849 l 238 1072 l 132 1072 l 342 842 z m 579 728 b 450 331 568 649 519 506 l 356 93 l 79 728 l 7 728 l 321 7 l 271 -118 b 71 -271 225 -233 136 -271 b 18 -265 56 -271 36 -269 l 13 -325 b 297 -118 132 -325 233 -276 l 474 321 b 640 728 543 493 588 608 z "},"​":{"ha":0,"x_min":0,"x_max":0,"o":""},"–":{"ha":672,"x_min":0,"x_max":0,"o":"m 65 408 l 607 408 l 607 433 l 65 433 z "},"—":{"ha":1075,"x_min":0,"x_max":0,"o":"m 65 408 l 1010 408 l 1010 433 l 65 433 z "},"―":{"ha":1075,"x_min":0,"x_max":0,"o":"m 65 408 l 1010 408 l 1010 433 l 65 433 z "},"‘":{"ha":226,"x_min":0,"x_max":0,"o":"m 165 1028 b 44 849 86 985 44 914 b 128 717 44 797 71 747 l 186 775 b 100 904 129 814 100 860 b 172 1018 100 946 124 985 z "},"’":{"ha":235,"x_min":0,"x_max":0,"o":"m 72 717 b 193 896 151 760 193 831 b 110 1028 193 947 167 997 l 51 969 b 138 840 108 931 138 885 b 65 726 138 799 114 760 z "},"‚":{"ha":232,"x_min":0,"x_max":0,"o":"m 69 -197 b 190 -18 149 -154 190 -83 b 107 114 190 33 164 83 l 49 56 b 135 -74 106 17 135 -29 b 63 -187 135 -115 111 -154 z "},"“":{"ha":449,"x_min":0,"x_max":0,"o":"m 165 1028 b 44 849 86 985 44 914 b 128 717 44 797 71 747 l 186 775 b 100 904 129 814 100 860 b 172 1018 100 946 124 985 z m 388 1028 b 267 849 308 985 267 914 b 350 717 267 797 293 747 l 408 775 b 322 904 351 814 322 860 b 394 1018 322 946 346 985 z "},"”":{"ha":457,"x_min":0,"x_max":0,"o":"m 72 717 b 193 896 151 760 193 831 b 110 1028 193 947 167 997 l 51 969 b 138 840 108 931 138 885 b 65 726 138 799 114 760 z m 294 717 b 415 896 374 760 415 831 b 332 1028 415 947 389 997 l 274 969 b 360 840 331 931 360 885 b 288 726 360 799 336 760 z "},"„":{"ha":454,"x_min":0,"x_max":0,"o":"m 69 -197 b 190 -18 149 -154 190 -83 b 107 114 190 33 164 83 l 49 56 b 135 -74 106 17 135 -29 b 63 -187 135 -115 111 -154 z m 292 -197 b 413 -18 371 -154 413 -83 b 329 114 413 33 386 83 l 271 56 b 357 -74 328 17 357 -29 b 285 -187 357 -115 333 -154 z "},"†":{"ha":625,"x_min":0,"x_max":0,"o":"m 593 713 l 319 683 l 350 1028 l 275 1028 l 306 683 l 32 713 l 32 638 l 304 667 l 279 385 l 279 -208 l 313 -258 l 346 -208 l 346 385 l 321 667 l 593 638 z "},"‡":{"ha":669,"x_min":0,"x_max":0,"o":"m 615 713 l 342 683 l 372 1028 l 297 1028 l 328 683 l 54 713 l 54 638 l 326 667 l 297 385 l 326 103 l 54 132 l 54 57 l 328 86 l 297 -258 l 372 -258 l 342 86 l 615 57 l 615 132 l 343 103 l 372 385 l 343 667 l 615 638 z "},"•":{"ha":422,"x_min":0,"x_max":0,"o":"m 211 293 l 329 411 l 211 529 l 93 411 z "},"…":{"ha":608,"x_min":0,"x_max":0,"o":"m 110 -28 l 179 42 l 110 111 l 40 42 z m 304 -28 l 374 42 l 304 111 l 235 42 z m 499 -28 l 568 42 l 499 111 l 429 42 z "},"‰":{"ha":1540,"x_min":0,"x_max":0,"o":"m 258 528 b 478 776 388 528 478 628 b 260 1019 478 922 388 1019 b 39 771 129 1019 39 919 b 258 528 39 624 129 528 z m 207 0 l 238 0 l 849 1011 l 818 1011 z m 261 544 b 89 776 157 544 89 633 b 257 1003 89 918 154 1003 b 428 771 360 1003 428 914 b 261 544 428 629 363 544 z m 796 -8 b 1017 240 926 -8 1017 92 b 797 483 1017 388 926 483 b 578 235 668 483 578 383 b 796 -8 578 89 668 -8 z m 1282 -8 b 1503 240 1413 -8 1503 92 b 1283 483 1503 388 1413 483 b 1064 235 1154 483 1064 383 b 1282 -8 1064 89 1154 -8 z m 799 8 b 628 240 696 8 628 97 b 794 467 628 382 693 467 b 967 235 899 467 967 378 b 799 8 967 93 901 8 z m 1285 8 b 1114 240 1182 8 1114 97 b 1281 467 1114 382 1179 467 b 1453 235 1385 467 1453 378 b 1285 8 1453 93 1388 8 z "},"‹":{"ha":379,"x_min":0,"x_max":0,"o":"m 326 697 l 310 697 l 46 365 l 310 33 l 326 33 l 135 365 z "},"›":{"ha":379,"x_min":0,"x_max":0,"o":"m 69 697 l 53 697 l 244 365 l 53 33 l 69 33 l 333 365 z "},"⁄":{"ha":139,"x_min":0,"x_max":0,"o":"m -253 0 l -221 0 l 390 1011 l 358 1011 z "},"⁰":{"ha":519,"x_min":0,"x_max":0,"o":"m 258 433 b 474 729 388 433 474 553 b 261 1019 474 904 390 1019 b 46 724 132 1019 46 900 b 258 433 46 549 129 433 z m 263 450 b 101 731 161 450 101 558 b 257 1003 101 897 157 1003 b 418 724 360 1003 418 896 b 263 450 418 556 363 450 z "},"⁴":{"ha":439,"x_min":0,"x_max":0,"o":"m 414 644 l 319 644 l 319 1019 l 314 1019 l 13 614 l 13 608 l 272 608 l 272 442 l 319 442 l 319 608 l 404 608 z m 64 644 l 272 924 l 272 644 z "},"⁵":{"ha":401,"x_min":0,"x_max":0,"o":"m 110 807 l 93 807 l 108 972 l 336 972 l 347 1011 l 88 1011 l 65 763 l 99 763 b 314 604 236 763 314 707 b 174 451 314 515 254 451 b 42 504 125 451 82 467 l 32 469 b 168 433 78 447 124 433 b 360 615 278 433 360 511 b 110 807 360 736 267 807 z "},"⁶":{"ha":435,"x_min":0,"x_max":0,"o":"m 228 433 b 406 613 329 433 406 508 b 242 783 406 713 336 783 b 129 739 199 783 163 768 l 139 728 b 229 760 167 750 199 760 b 350 604 303 760 350 701 b 233 450 350 508 306 450 b 100 660 150 450 100 528 b 315 1006 100 824 182 958 l 311 1019 b 44 661 150 967 44 828 b 228 433 44 522 117 433 z "},"⁷":{"ha":381,"x_min":0,"x_max":0,"o":"m 28 1011 l 13 956 b 251 974 64 967 150 974 l 338 974 l 108 442 l 161 442 l 369 1006 l 369 1011 z "},"⁸":{"ha":444,"x_min":0,"x_max":0,"o":"m 263 746 b 376 893 336 778 376 828 b 226 1019 376 964 311 1019 b 71 876 136 1019 71 958 b 174 735 71 815 104 771 b 43 572 88 703 43 649 b 215 433 43 486 128 433 b 400 590 319 433 400 503 b 263 746 400 657 356 704 z m 113 888 b 221 1003 113 954 157 1003 b 329 888 285 1003 329 954 b 244 754 329 832 299 785 l 222 764 b 113 888 147 797 113 833 z m 226 450 b 92 579 151 450 92 507 b 190 726 92 643 128 697 b 201 721 194 724 197 722 l 239 704 b 357 578 319 668 357 629 b 226 450 357 507 299 450 z "},"⁹":{"ha":432,"x_min":0,"x_max":0,"o":"m 122 433 b 388 792 283 486 388 625 b 206 1019 388 931 317 1019 b 29 840 104 1019 29 944 b 192 669 29 740 97 669 b 304 714 235 669 271 685 l 294 725 b 204 693 267 703 235 693 b 83 849 131 693 83 751 b 200 1003 83 944 128 1003 b 333 793 283 1003 333 925 b 118 447 333 629 251 494 z "},"₀":{"ha":519,"x_min":0,"x_max":0,"o":"m 258 -217 b 474 79 388 -217 474 -97 b 261 369 474 254 390 369 b 46 74 132 369 46 250 b 258 -217 46 -101 129 -217 z m 263 -200 b 101 81 161 -200 101 -92 b 257 353 101 247 157 353 b 418 74 360 353 418 246 b 263 -200 418 -94 363 -200 z "},"₁":{"ha":246,"x_min":0,"x_max":0,"o":"m 164 369 b 18 242 125 314 63 263 l 18 228 b 122 276 51 240 93 258 l 122 -208 l 169 -208 l 169 369 z "},"₂":{"ha":421,"x_min":0,"x_max":0,"o":"m 140 -172 l 88 -172 l 94 -165 b 368 218 303 36 368 136 b 211 369 368 310 304 369 b 36 238 100 369 54 279 l 51 231 b 204 338 86 300 138 338 b 314 214 271 338 314 288 b 79 -156 314 135 265 36 l 33 -203 l 33 -208 l 371 -208 l 386 -157 b 140 -172 310 -168 240 -172 z "},"₃":{"ha":414,"x_min":0,"x_max":0,"o":"m 181 -217 b 369 -49 290 -217 369 -143 b 233 107 369 35 307 92 l 233 110 b 349 250 290 135 349 185 b 207 369 349 321 290 369 b 46 274 122 369 74 315 l 61 267 b 200 340 83 297 132 340 b 299 243 260 340 299 303 b 179 103 299 179 254 129 l 147 92 l 151 78 l 183 76 b 324 -58 265 72 324 18 b 179 -199 324 -128 276 -199 b 47 -142 133 -199 92 -183 l 36 -178 b 181 -217 81 -201 131 -217 z "},"₄":{"ha":439,"x_min":0,"x_max":0,"o":"m 415 -6 l 321 -6 l 321 369 l 315 369 l 14 -36 l 14 -42 l 274 -42 l 274 -208 l 321 -208 l 321 -42 l 406 -42 z m 65 -6 l 274 274 l 274 -6 z "},"₅":{"ha":401,"x_min":0,"x_max":0,"o":"m 110 157 l 93 157 l 108 322 l 336 322 l 347 361 l 88 361 l 65 113 l 99 113 b 314 -46 236 113 314 57 b 174 -199 314 -135 254 -199 b 42 -146 125 -199 82 -183 l 32 -181 b 168 -217 78 -203 124 -217 b 360 -35 278 -217 360 -139 b 110 157 360 86 267 157 z "},"₆":{"ha":435,"x_min":0,"x_max":0,"o":"m 228 -217 b 406 -37 329 -217 406 -142 b 242 133 406 63 336 133 b 129 89 199 133 163 118 l 139 78 b 229 110 167 100 199 110 b 350 -46 303 110 350 51 b 233 -200 350 -142 306 -200 b 100 10 150 -200 100 -122 b 315 356 100 174 182 308 l 311 369 b 44 11 150 317 44 178 b 228 -217 44 -128 117 -217 z "},"₇":{"ha":381,"x_min":0,"x_max":0,"o":"m 29 361 l 14 306 b 253 324 65 317 151 324 l 339 324 l 110 -208 l 163 -208 l 371 356 l 371 361 z "},"₈":{"ha":444,"x_min":0,"x_max":0,"o":"m 263 96 b 376 243 336 128 376 178 b 226 369 376 314 311 369 b 71 226 136 369 71 308 b 174 85 71 165 104 121 b 43 -78 88 53 43 -1 b 215 -217 43 -164 128 -217 b 400 -60 319 -217 400 -147 b 263 96 400 7 356 54 z m 113 238 b 221 353 113 304 157 353 b 329 238 285 353 329 304 b 244 104 329 182 299 135 l 222 114 b 113 238 147 147 113 183 z m 226 -200 b 92 -71 151 -200 92 -143 b 190 76 92 -7 128 47 b 201 71 194 74 197 72 l 239 54 b 357 -72 319 18 357 -21 b 226 -200 357 -143 299 -200 z "},"₉":{"ha":432,"x_min":0,"x_max":0,"o":"m 122 -217 b 388 142 283 -164 388 -25 b 206 369 388 281 317 369 b 29 190 104 369 29 294 b 192 19 29 90 97 19 b 304 64 235 19 271 35 l 294 75 b 204 43 267 53 235 43 b 83 199 131 43 83 101 b 200 353 83 294 128 353 b 333 143 283 353 333 275 b 118 -203 333 -21 251 -156 z "},"€":{"ha":917,"x_min":0,"x_max":0,"o":"m 864 136 b 596 25 786 60 689 25 b 214 414 404 25 250 178 l 554 414 l 563 439 l 210 439 b 206 522 207 465 206 493 b 207 575 206 540 206 558 l 607 575 l 614 600 l 210 600 b 581 1006 236 843 385 1006 b 836 889 679 1006 765 965 l 872 926 b 590 1028 800 990 704 1028 b 132 600 350 1028 168 861 l 40 600 l 40 575 l 129 575 b 125 500 126 551 125 526 b 128 439 125 479 126 458 l 40 439 l 40 414 l 131 414 b 568 -17 163 144 346 -17 b 878 121 692 -17 799 35 z "},"ℓ":{"ha":493,"x_min":0,"x_max":0,"o":"m 442 111 b 290 10 393 46 342 10 b 186 194 225 10 186 69 l 186 338 b 447 786 326 443 447 589 b 282 1028 447 939 376 1028 b 119 686 179 1028 119 925 l 119 318 b 31 264 90 299 61 281 l 42 244 b 119 292 68 258 93 274 l 119 214 b 281 -17 119 69 178 -17 b 460 100 356 -17 408 29 z m 186 706 b 282 1008 186 825 186 1008 b 386 786 343 1008 386 932 b 186 365 386 582 303 460 z "},"№":{"ha":1449,"x_min":0,"x_max":0,"o":"m 742 569 l 742 139 l 151 1011 l 67 1011 l 67 1007 l 111 942 l 111 442 b 97 0 111 247 108 111 l 153 0 b 139 442 142 111 139 247 l 139 900 l 761 -17 l 769 -17 l 769 569 b 783 1011 769 764 772 900 l 728 1011 b 742 569 739 900 742 764 z m 1144 389 b 1406 660 1297 389 1406 501 b 1151 925 1406 818 1303 925 b 889 654 997 925 889 814 b 1144 389 889 496 992 389 z m 1146 906 b 1346 654 1263 906 1346 799 b 1149 408 1346 513 1265 408 b 949 660 1032 408 949 517 b 1146 906 949 801 1031 906 z m 943 250 l 1353 250 l 1353 275 l 943 275 z "},"™":{"ha":1060,"x_min":0,"x_max":0,"o":"m 43 1011 l 32 975 b 194 990 93 985 125 990 l 211 990 l 211 492 l 256 492 l 256 990 l 272 990 b 435 975 342 990 374 985 l 424 1011 z m 971 492 l 921 1011 l 910 1011 l 718 597 l 514 1011 l 503 1011 l 478 717 b 454 492 469 619 463 547 l 489 492 b 500 718 489 547 493 621 l 515 906 l 704 526 l 710 526 l 888 908 l 925 492 z "},"Ω":{"ha":1083,"x_min":0,"x_max":0,"o":"m 760 53 l 676 53 b 1010 563 894 226 1010 371 b 542 1028 1010 840 828 1028 b 74 557 269 1028 74 831 b 407 53 74 364 189 228 l 324 53 b 44 81 213 53 128 61 l 69 0 l 468 0 l 468 36 b 154 563 246 207 154 371 b 542 1006 154 826 306 1006 b 929 557 778 1006 929 818 b 615 36 929 357 829 193 l 615 0 l 1014 0 l 1039 81 b 760 53 956 61 871 53 z "},"℮":{"ha":1099,"x_min":0,"x_max":0,"o":"m 558 8 b 272 106 451 8 351 46 b 238 174 254 119 238 140 l 238 492 l 1058 492 b 558 1019 1058 786 844 1019 b 60 506 279 1019 60 792 b 558 -19 60 219 272 -19 b 1008 267 750 -19 918 86 l 986 278 b 558 8 901 108 740 8 z m 272 894 b 558 992 351 954 443 992 b 844 894 674 992 765 954 b 879 821 871 874 879 853 l 879 519 l 238 519 l 238 821 b 272 894 238 851 251 878 z "},"⅛":{"ha":933,"x_min":0,"x_max":0,"o":"m 143 442 l 190 442 l 190 1019 l 185 1019 b 39 892 146 964 83 913 l 39 878 b 143 926 72 890 114 908 z m 704 1011 l 93 0 l 125 0 l 736 1011 z m 753 304 b 867 451 826 336 867 386 b 717 578 867 522 801 578 b 561 435 626 578 561 517 b 664 293 561 374 594 329 b 533 131 578 261 533 207 b 706 -8 533 44 618 -8 b 890 149 810 -8 890 61 b 753 304 890 215 846 263 z m 603 446 b 711 561 603 513 647 561 b 819 446 775 561 819 513 b 735 313 819 390 789 343 l 713 322 b 603 446 638 356 603 392 z m 717 8 b 582 138 642 8 582 65 b 681 285 582 201 618 256 b 692 279 685 282 688 281 l 729 263 b 847 136 810 226 847 188 b 717 8 847 65 789 8 z "},"⅜":{"ha":1010,"x_min":0,"x_max":0,"o":"m 183 451 b 51 508 138 451 96 467 l 40 472 b 185 433 85 449 135 433 b 374 601 294 433 374 507 b 238 757 374 685 311 742 l 238 760 b 353 900 294 785 353 835 b 211 1019 353 971 294 1019 b 50 924 126 1019 78 965 l 65 917 b 204 990 88 947 136 990 b 303 893 264 990 303 953 b 183 753 303 829 258 779 l 151 742 l 156 728 l 188 726 b 328 592 269 722 328 668 b 183 451 328 522 281 451 z m 782 1011 l 171 0 l 203 0 l 814 1011 z m 831 304 b 944 451 904 336 944 386 b 794 578 944 522 879 578 b 639 435 704 578 639 517 b 742 293 639 374 672 329 b 611 131 656 261 611 207 b 783 -8 611 44 696 -8 b 968 149 888 -8 968 61 b 831 304 968 215 924 263 z m 681 446 b 789 561 681 513 725 561 b 897 446 853 561 897 513 b 813 313 897 390 867 343 l 790 322 b 681 446 715 356 681 392 z m 794 8 b 660 138 719 8 660 65 b 758 285 660 201 696 256 b 769 279 763 282 765 281 l 807 263 b 925 136 888 226 925 188 b 794 8 925 65 867 8 z "},"⅝":{"ha":1013,"x_min":0,"x_max":0,"o":"m 368 615 b 118 807 368 736 275 807 l 101 807 l 117 972 l 344 972 l 356 1011 l 96 1011 l 74 763 l 107 763 b 322 604 244 763 322 707 b 182 451 322 515 263 451 b 50 504 133 451 90 467 l 40 469 b 176 433 86 447 132 433 b 368 615 286 433 368 511 z m 785 1011 l 174 0 l 206 0 l 817 1011 z m 833 304 b 947 451 907 336 947 386 b 797 578 947 522 882 578 b 642 435 707 578 642 517 b 744 293 642 374 675 329 b 614 131 658 261 614 207 b 786 -8 614 44 699 -8 b 971 149 890 -8 971 61 b 833 304 971 215 926 263 z m 683 446 b 792 561 683 513 728 561 b 900 446 856 561 900 513 b 815 313 900 390 869 343 l 793 322 b 683 446 718 356 683 392 z m 797 8 b 663 138 722 8 663 65 b 761 285 663 201 699 256 b 772 279 765 282 768 281 l 810 263 b 928 136 890 226 928 188 b 797 8 928 65 869 8 z "},"⅞":{"ha":1024,"x_min":0,"x_max":0,"o":"m 181 442 l 389 1006 l 389 1011 l 47 1011 l 32 956 b 271 974 83 967 169 974 l 357 974 l 128 442 z m 783 1011 l 172 0 l 204 0 l 815 1011 z m 832 304 b 946 451 906 336 946 386 b 796 578 946 522 881 578 b 640 435 706 578 640 517 b 743 293 640 374 674 329 b 613 131 657 261 613 207 b 785 -8 613 44 697 -8 b 969 149 889 -8 969 61 b 832 304 969 215 925 263 z m 682 446 b 790 561 682 513 726 561 b 899 446 854 561 899 513 b 814 313 899 390 868 343 l 792 322 b 682 446 717 356 682 392 z m 796 8 b 661 138 721 8 661 65 b 760 285 661 201 697 256 b 771 279 764 282 767 281 l 808 263 b 926 136 889 226 926 188 b 796 8 926 65 868 8 z "},"←":{"ha":1150,"x_min":0,"x_max":0,"o":"m 575 1028 b 54 506 285 1028 54 794 b 575 -17 54 217 285 -17 b 1096 506 865 -17 1096 217 b 575 1028 1096 794 865 1028 z m 575 8 b 85 506 301 8 85 231 b 575 1003 85 781 301 1003 b 1065 506 849 1003 1065 781 b 575 8 1065 231 849 8 z m 817 506 b 904 657 868 535 911 606 l 728 657 b 647 517 718 617 675 544 l 458 517 b 563 782 514 599 546 696 l 550 788 b 214 506 475 690 319 561 b 550 224 319 450 475 321 l 563 229 b 458 494 546 315 514 413 l 647 494 b 728 354 675 467 718 394 l 904 354 b 817 506 913 406 869 476 z m 724 517 l 676 517 b 744 635 701 547 731 599 l 801 635 b 724 517 790 593 754 540 z m 793 517 l 754 517 b 825 635 785 546 815 596 l 882 635 b 793 517 876 590 835 535 z m 724 494 b 801 376 754 471 790 418 l 744 376 b 676 494 731 413 701 464 z m 882 376 l 825 376 b 754 494 815 415 785 465 l 793 494 b 882 376 835 476 876 421 z "},"↑":{"ha":1150,"x_min":0,"x_max":0,"o":"m 575 1028 b 54 506 285 1028 54 794 b 575 -17 54 217 285 -17 b 1096 506 865 -17 1096 217 b 575 1028 1096 794 865 1028 z m 575 8 b 85 506 301 8 85 231 b 575 1003 85 781 301 1003 b 1065 506 849 1003 1065 781 b 575 8 1065 231 849 8 z m 575 868 b 293 532 519 763 390 607 l 299 519 b 564 624 385 536 482 568 l 564 435 b 424 354 536 407 464 364 l 424 178 b 575 265 475 171 546 214 b 726 178 604 213 675 169 l 726 354 b 586 435 686 364 614 407 l 586 624 b 851 519 668 568 765 536 l 857 532 b 575 868 760 607 631 763 z m 564 358 b 446 281 540 328 488 292 l 446 338 b 564 406 482 351 533 381 z m 586 358 l 586 406 b 704 338 617 381 668 351 l 704 281 b 586 358 663 292 610 328 z m 446 200 l 446 257 b 564 328 485 267 535 297 l 564 289 b 446 200 546 247 490 206 z m 586 289 l 586 328 b 704 257 615 297 665 267 l 704 200 b 586 289 660 206 604 247 z "},"→":{"ha":1150,"x_min":0,"x_max":0,"o":"m 575 1028 b 54 506 285 1028 54 794 b 575 -17 54 217 285 -17 b 1096 506 865 -17 1096 217 b 575 1028 1096 794 865 1028 z m 575 8 b 85 506 301 8 85 231 b 575 1003 85 781 301 1003 b 1065 506 849 1003 1065 781 b 575 8 1065 231 849 8 z m 600 788 l 588 782 b 692 517 604 696 636 599 l 503 517 b 422 657 475 544 432 617 l 246 657 b 333 506 239 606 282 535 b 246 354 281 476 238 406 l 422 354 b 503 494 432 394 475 467 l 692 494 b 588 229 636 413 604 315 l 600 224 b 936 506 675 321 831 450 b 600 788 831 561 675 690 z m 268 635 l 325 635 b 396 517 335 596 365 546 l 357 517 b 268 635 315 535 274 590 z m 426 517 b 349 635 396 540 360 593 l 406 635 b 474 517 419 599 449 547 z m 357 494 l 396 494 b 325 376 365 465 335 415 l 268 376 b 357 494 274 421 315 476 z m 426 494 l 474 494 b 406 376 449 464 419 413 l 349 376 b 426 494 360 418 396 471 z "},"↓":{"ha":1150,"x_min":0,"x_max":0,"o":"m 575 1028 b 54 506 285 1028 54 794 b 575 -17 54 217 285 -17 b 1096 506 865 -17 1096 217 b 575 1028 1096 794 865 1028 z m 575 8 b 85 506 301 8 85 231 b 575 1003 85 781 301 1003 b 1065 506 849 1003 1065 781 b 575 8 1065 231 849 8 z m 586 388 l 586 576 b 726 657 614 604 686 647 l 726 833 b 575 746 675 842 604 799 b 424 833 546 797 475 840 l 424 657 b 564 576 464 647 536 604 l 564 388 b 299 492 482 443 385 475 l 293 479 b 575 143 390 404 519 249 b 857 479 631 249 760 404 l 851 492 b 586 388 765 475 668 443 z m 564 722 l 564 683 b 446 754 535 714 485 744 l 446 811 b 564 722 490 806 546 764 z m 704 811 l 704 754 b 586 683 665 744 615 714 l 586 722 b 704 811 604 764 660 806 z m 564 653 l 564 606 b 446 674 533 631 482 660 l 446 731 b 564 653 488 719 540 683 z m 586 653 b 704 731 610 683 663 719 l 704 674 b 586 606 668 660 617 631 z "},"∂":{"ha":738,"x_min":0,"x_max":0,"o":"m 392 1028 b 122 889 290 1028 196 979 l 139 872 b 376 992 197 944 296 992 b 600 578 522 992 600 836 b 596 476 600 543 599 508 b 353 590 522 557 444 590 b 36 267 167 590 36 457 b 296 -17 36 94 143 -17 b 675 581 525 -17 675 231 b 392 1028 675 869 572 1028 z m 308 3 b 111 281 194 3 111 118 b 361 563 111 454 206 563 b 593 440 449 563 521 529 b 308 3 563 181 449 3 z "},"∆":{"ha":858,"x_min":0,"x_max":0,"o":"m 432 1028 l 426 1028 l 28 0 l 831 0 z m 742 25 l 64 25 l 404 901 z "},"∏":{"ha":908,"x_min":0,"x_max":0,"o":"m 872 969 l 856 1011 l 53 1011 l 36 969 b 189 983 99 976 142 981 l 189 -83 l 261 -83 l 261 986 l 350 986 l 558 986 l 647 986 l 647 -83 l 719 -83 l 719 983 b 872 969 767 981 810 976 z "},"∑":{"ha":756,"x_min":0,"x_max":0,"o":"m 718 -31 b 272 -58 579 -50 453 -58 l 128 -58 l 451 474 l 139 986 l 263 986 b 696 958 443 986 557 978 l 699 958 l 682 1011 l 44 1011 l 44 1006 l 365 472 l 33 -78 l 33 -83 l 699 -83 l 721 -31 z "},"−":{"ha":706,"x_min":0,"x_max":0,"o":"m 69 492 l 636 492 l 636 519 l 69 519 z "},"∕":{"ha":576,"x_min":0,"x_max":0,"o":"m -33 0 l -1 0 l 610 1011 l 578 1011 z "},"∙":{"ha":414,"x_min":0,"x_max":0,"o":"m 207 314 l 276 383 l 207 453 l 138 383 z "},"√":{"ha":739,"x_min":0,"x_max":0,"o":"m 721 990 l 382 89 l 160 574 l -7 574 l -7 551 l 107 551 l 367 -17 l 372 -17 l 749 982 z "},"∞":{"ha":1147,"x_min":0,"x_max":0,"o":"m 875 708 b 574 526 739 708 651 626 b 272 708 496 626 408 708 b 56 493 151 708 56 613 b 272 278 56 374 151 278 b 574 460 408 278 496 360 b 875 278 651 360 739 278 b 1092 493 996 278 1092 374 b 875 708 1092 613 996 708 z m 272 306 b 92 493 172 306 92 389 b 272 681 92 597 172 681 b 549 494 399 681 467 601 b 272 306 467 386 399 306 z m 875 306 b 599 492 749 306 681 385 b 875 681 681 600 749 681 b 1056 493 975 681 1056 597 b 875 306 1056 389 975 306 z "},"∫":{"ha":608,"x_min":0,"x_max":0,"o":"m -42 -317 b 226 -49 117 -294 211 -199 l 321 861 b 504 1097 338 1024 401 1097 b 642 1065 540 1097 582 1094 l 650 1082 b 485 1131 597 1115 542 1131 b 256 872 363 1131 274 1044 l 160 -49 b -42 -297 144 -189 69 -281 z "},"≈":{"ha":706,"x_min":0,"x_max":0,"o":"m 488 543 b 639 592 542 543 597 561 l 619 614 b 488 571 583 586 536 571 b 363 611 447 571 406 590 b 222 654 318 632 271 654 b 71 606 168 654 113 636 l 90 583 b 222 626 126 611 174 626 b 349 586 263 626 304 607 b 488 543 392 565 439 543 z m 488 344 b 639 393 542 344 597 363 l 619 415 b 488 372 583 388 536 372 b 363 413 447 372 406 392 b 222 456 318 433 271 456 b 71 407 168 456 113 438 l 90 385 b 222 428 126 413 174 428 b 349 388 263 428 304 408 b 488 344 392 367 439 344 z "},"≠":{"ha":706,"x_min":0,"x_max":0,"o":"m 636 592 l 636 619 l 442 619 l 544 786 l 519 803 l 406 619 l 69 619 l 69 592 l 389 592 l 282 419 l 69 419 l 69 392 l 264 392 l 161 225 l 186 208 l 300 392 l 636 392 l 636 419 l 317 419 l 424 592 z "},"≤":{"ha":706,"x_min":0,"x_max":0,"o":"m 632 756 l 618 781 l 65 518 l 65 493 l 618 231 l 632 256 l 106 506 z m 65 17 l 632 17 l 632 44 l 65 44 z "},"≥":{"ha":706,"x_min":0,"x_max":0,"o":"m 88 781 l 74 756 l 600 506 l 74 256 l 88 231 l 640 493 l 640 518 z m 74 17 l 640 17 l 640 44 l 74 44 z "},"◊":{"ha":706,"x_min":0,"x_max":0,"o":"m 356 1028 l 350 1028 l 39 514 l 350 0 l 356 0 l 667 514 z m 325 89 l 67 514 l 325 939 l 583 514 z "},"❦":{"ha":1426,"x_min":0,"x_max":0,"o":"m 1174 960 b 1393 1097 1300 960 1393 1017 b 1176 1222 1393 1174 1310 1222 b 840 1074 1042 1222 926 1171 b 347 1206 679 1135 506 1206 b 56 997 165 1206 56 1117 b 89 876 56 956 67 914 l 150 899 b 122 986 136 924 122 953 b 379 1158 122 1092 231 1158 b 818 1046 518 1158 669 1100 b 650 406 710 908 650 692 b 735 -106 650 138 693 -22 b 592 376 646 1 592 213 b 599 610 592 500 592 525 b 381 744 532 703 451 744 b 190 496 276 744 190 653 b 926 -331 190 138 536 -331 b 1272 -121 1099 -331 1194 -239 l 1257 -115 b 1026 -256 1174 -228 1085 -256 b 885 -104 946 -256 885 -206 b 1281 560 885 153 1281 293 b 1046 764 1281 696 1172 764 b 722 592 929 764 796 706 b 857 1032 740 778 785 928 b 1174 960 968 993 1076 960 z m 1165 1200 b 1335 1093 1268 1200 1335 1160 b 1179 982 1335 1038 1288 982 b 876 1058 1092 982 988 1017 b 1165 1200 950 1150 1046 1200 z "},"ﬀ":{"ha":883,"x_min":0,"x_max":0,"o":"m 811 1097 b 969 1065 851 1097 899 1094 l 978 1082 b 785 1131 914 1115 849 1131 b 567 872 646 1131 567 1044 l 567 728 l 214 728 l 214 853 b 392 1089 214 1015 275 1089 b 550 1057 432 1089 479 1086 l 558 1074 b 365 1122 494 1107 429 1122 b 147 864 226 1122 147 1036 l 147 728 l 26 728 l 26 697 l 147 697 l 147 0 l 214 0 l 214 697 l 567 697 l 567 0 l 633 0 l 633 697 l 871 697 l 890 728 l 633 728 l 633 861 b 811 1097 633 1024 694 1097 z "},"ﬁ":{"ha":718,"x_min":0,"x_max":0,"o":"m 599 728 l 214 728 l 214 861 b 392 1097 214 1024 275 1097 b 497 1083 421 1097 454 1096 l 503 1101 b 365 1131 461 1118 411 1131 b 147 872 226 1131 147 1044 l 147 728 l 26 728 l 26 697 l 147 697 l 147 0 l 214 0 l 214 697 l 563 697 l 563 0 l 629 0 l 629 739 l 624 739 z m 660 947 l 596 1011 l 532 947 l 596 883 z "},"ﬂ":{"ha":724,"x_min":0,"x_max":0,"o":"m 629 1125 l 569 1083 b 365 1131 506 1113 426 1131 b 147 872 226 1131 147 1044 l 147 728 l 26 728 l 26 697 l 147 697 l 147 0 l 214 0 l 214 697 l 451 697 l 471 728 l 214 728 l 214 861 b 392 1097 214 1024 275 1097 b 568 1064 432 1097 497 1090 l 568 0 l 635 0 l 635 1125 z "},"ﬃ":{"ha":1138,"x_min":0,"x_max":0,"o":"m 1018 728 l 633 728 l 633 861 b 811 1097 633 1024 694 1097 b 917 1083 840 1097 874 1096 l 922 1101 b 785 1131 881 1118 831 1131 b 567 872 646 1131 567 1044 l 567 728 l 214 728 l 214 853 b 392 1089 214 1015 275 1089 b 550 1057 432 1089 479 1086 l 558 1074 b 365 1122 494 1107 429 1122 b 147 864 226 1122 147 1036 l 147 728 l 26 728 l 26 697 l 147 697 l 147 0 l 214 0 l 214 697 l 567 697 l 567 0 l 633 0 l 633 697 l 982 697 l 982 0 l 1049 0 l 1049 739 l 1043 739 z m 1079 947 l 1015 1011 l 951 947 l 1015 883 z "},"﻿":{"ha":0,"x_min":0,"x_max":0,"o":""},"Ĉ":{"ha":979,"x_min":0,"x_max":0,"o":"m 557 1256 l 772 1117 l 781 1124 l 561 1333 l 553 1333 l 333 1124 l 342 1117 z m 943 235 b 574 25 849 89 714 25 b 138 522 328 25 138 225 b 557 1006 138 808 319 1006 b 899 822 694 1006 813 943 l 946 864 b 565 1028 864 965 731 1028 b 57 500 279 1028 57 818 b 542 -17 57 179 269 -17 b 960 225 731 -17 867 78 z "},"Ĕ":{"ha":715,"x_min":0,"x_max":0,"o":"m 374 1133 b 589 1319 496 1133 564 1225 l 576 1324 b 374 1185 549 1249 472 1185 b 172 1324 276 1185 200 1249 l 160 1319 b 374 1133 185 1225 251 1133 z m 690 53 b 272 25 551 33 394 25 l 178 25 l 178 514 l 267 514 b 564 503 417 514 511 508 l 567 503 l 567 547 l 564 547 b 267 539 511 542 417 539 l 178 539 l 178 986 l 272 986 b 664 958 394 986 525 978 l 667 958 l 650 1011 l 106 1011 l 106 0 l 671 0 l 693 53 z "},"ĉ":{"ha":686,"x_min":0,"x_max":0,"o":"m 378 990 l 565 842 l 574 849 l 382 1072 l 374 1072 l 182 849 l 190 842 z m 649 165 b 394 22 588 69 481 22 b 119 372 242 22 119 156 b 383 725 119 583 235 725 b 614 576 481 725 554 669 l 658 615 b 383 744 596 701 504 744 b 44 360 196 744 44 588 b 374 -17 44 135 183 -17 b 665 156 499 -17 599 51 z "},"ĕ":{"ha":715,"x_min":0,"x_max":0,"o":"m 385 858 b 586 1044 507 858 561 950 l 574 1049 b 385 910 546 974 483 910 b 197 1049 288 910 225 974 l 185 1044 b 385 858 210 950 263 858 z m 394 22 b 119 378 242 22 119 156 b 121 419 119 392 119 406 l 678 419 b 394 744 678 625 567 744 b 44 357 194 744 44 589 b 372 -17 44 135 183 -17 b 665 156 499 -17 599 51 l 649 165 b 394 22 588 69 481 22 z m 385 725 b 603 442 519 725 600 611 l 124 442 b 385 725 144 613 250 725 z "},"ə":{"ha":714,"x_min":0,"x_max":0,"o":"m 342 744 b 49 572 215 744 115 676 l 65 563 b 319 706 126 658 233 706 b 594 350 472 706 594 572 b 593 308 594 336 594 322 l 36 308 b 319 -17 36 103 147 -17 b 669 371 519 -17 669 139 b 342 744 669 593 531 744 z m 329 3 b 111 286 194 3 114 117 l 590 286 b 329 3 569 115 464 3 z "},"ſ":{"ha":261,"x_min":0,"x_max":0,"o":"m 83 0 l 150 0 l 150 861 b 328 1097 150 1024 211 1097 b 486 1065 368 1097 415 1094 l 494 1082 b 301 1131 431 1115 365 1131 b 83 872 163 1131 83 1044 z "},"↗":{"ha":1150,"x_min":0,"x_max":0,"o":"m 575 1028 b 54 506 285 1028 54 794 b 575 -17 54 217 285 -17 b 1096 506 865 -17 1096 217 b 575 1028 1096 794 865 1028 z m 575 8 b 85 506 301 8 85 231 b 575 1003 85 781 301 1003 b 1065 506 849 1003 1065 781 b 575 8 1065 231 849 8 z m 393 722 l 389 710 b 650 597 461 661 551 615 l 517 463 b 360 504 476 463 396 483 l 235 379 b 403 333 265 338 346 319 b 449 165 389 276 407 196 l 574 290 b 532 447 553 326 532 407 l 667 581 b 779 319 685 482 731 392 l 792 324 b 831 761 776 446 794 647 b 393 722 717 725 515 707 z m 463 408 b 324 438 425 403 361 415 l 363 476 b 496 442 399 461 456 446 z m 546 293 l 507 254 b 478 393 485 292 472 356 l 511 426 b 546 293 515 386 531 329 z m 267 379 l 307 421 b 442 388 342 399 400 385 l 413 358 b 267 379 371 343 303 353 z m 428 343 l 457 372 b 490 238 454 331 468 272 l 449 197 b 428 343 422 233 413 301 z "},"↘":{"ha":1150,"x_min":0,"x_max":0,"o":"m 575 1028 b 54 506 285 1028 54 794 b 575 -17 54 217 285 -17 b 1096 506 865 -17 1096 217 b 575 1028 1096 794 865 1028 z m 575 8 b 85 506 301 8 85 231 b 575 1003 85 781 301 1003 b 1065 506 849 1003 1065 781 b 575 8 1065 231 849 8 z m 792 688 l 779 692 b 667 431 731 619 685 529 l 532 564 b 574 721 532 604 553 685 l 449 846 b 403 678 407 815 389 735 b 235 632 346 692 265 674 l 360 507 b 517 549 396 528 476 549 l 650 414 b 389 301 551 396 461 350 l 393 289 b 831 250 515 304 717 286 b 792 688 794 364 776 565 z m 449 814 l 490 774 b 457 639 468 739 454 681 l 428 668 b 449 814 413 710 422 778 z m 511 585 l 478 618 b 507 757 472 656 485 719 l 546 718 b 511 585 531 682 515 625 z m 413 653 l 442 624 b 307 590 400 626 342 613 l 267 632 b 413 653 303 658 371 668 z m 463 603 l 496 569 b 363 535 456 565 399 550 l 324 574 b 463 603 361 596 425 608 z "},"↙":{"ha":1150,"x_min":0,"x_max":0,"o":"m 575 1028 b 54 506 285 1028 54 794 b 575 -17 54 217 285 -17 b 1096 506 865 -17 1096 217 b 575 1028 1096 794 865 1028 z m 575 8 b 85 506 301 8 85 231 b 575 1003 85 781 301 1003 b 1065 506 849 1003 1065 781 b 575 8 1065 231 849 8 z m 747 678 b 701 846 761 735 743 815 l 576 721 b 618 564 597 685 618 604 l 483 431 b 371 692 465 529 419 619 l 358 688 b 319 250 374 565 356 364 b 757 289 433 286 635 304 l 761 301 b 500 414 689 350 599 396 l 633 549 b 790 507 674 549 754 528 l 915 632 b 747 678 885 674 804 692 z m 722 668 l 693 639 b 660 774 696 681 682 739 l 701 814 b 722 668 728 778 738 710 z m 604 718 l 643 757 b 672 618 665 719 678 656 l 639 585 b 604 718 635 625 619 682 z m 883 632 l 843 590 b 708 624 808 613 750 626 l 738 653 b 883 632 779 668 847 658 z m 688 603 b 826 574 725 608 789 596 l 788 535 b 654 569 751 550 694 565 z "},"↖":{"ha":1150,"x_min":0,"x_max":0,"o":"m 575 1028 b 54 506 285 1028 54 794 b 575 -17 54 217 285 -17 b 1096 506 865 -17 1096 217 b 575 1028 1096 794 865 1028 z m 575 8 b 85 506 301 8 85 231 b 575 1003 85 781 301 1003 b 1065 506 849 1003 1065 781 b 575 8 1065 231 849 8 z m 633 463 l 500 597 b 761 710 599 615 689 661 l 757 722 b 319 761 635 707 433 725 b 358 324 356 647 374 446 l 371 319 b 483 581 419 392 465 482 l 618 447 b 576 290 618 407 597 326 l 701 165 b 747 333 743 196 761 276 b 915 379 804 319 885 338 l 790 504 b 633 463 754 483 674 463 z m 688 408 l 654 442 b 788 476 694 446 751 461 l 826 438 b 688 408 789 415 725 403 z m 639 426 l 672 393 b 643 254 678 356 665 292 l 604 293 b 639 426 619 329 635 386 z m 738 358 l 708 388 b 843 421 750 385 808 399 l 883 379 b 738 358 847 353 779 343 z m 701 197 l 660 238 b 693 372 682 272 696 331 l 722 343 b 701 197 738 301 728 233 z "},"▴":{"ha":458,"x_min":0,"x_max":0,"o":"m 53 349 l 406 349 l 229 664 z "},"▸":{"ha":457,"x_min":0,"x_max":0,"o":"m 363 329 l 363 683 l 47 506 z "},"▾":{"ha":447,"x_min":0,"x_max":0,"o":"m 224 349 l 400 664 l 47 664 z "},"◂":{"ha":457,"x_min":0,"x_max":0,"o":"m 94 329 l 410 506 l 94 683 z "},"☐":{"ha":1008,"x_min":0,"x_max":0,"o":"m 89 828 l 89 0 l 919 0 l 919 828 z m 889 800 l 889 28 l 119 28 l 119 800 z "},"☑":{"ha":1008,"x_min":0,"x_max":0,"o":"m 333 543 l 283 508 b 517 167 375 400 453 281 l 1022 986 l 993 1004 b 531 256 810 756 647 504 b 333 543 476 353 410 451 z m 889 28 l 119 28 l 119 800 l 740 800 l 757 828 l 89 828 l 89 0 l 919 0 l 919 672 l 889 622 z "},"☒":{"ha":1008,"x_min":0,"x_max":0,"o":"m 89 828 l 89 0 l 919 0 l 919 828 z m 889 800 l 889 28 l 119 28 l 119 800 z m 249 179 l 269 158 l 504 393 l 739 158 l 760 179 l 525 414 l 760 649 l 739 669 l 504 435 l 269 669 l 249 649 l 483 414 z "},"♡":{"ha":1339,"x_min":0,"x_max":0,"o":"m 967 853 b 675 692 835 853 731 782 b 393 854 626 785 522 854 b 44 478 196 854 44 696 b 429 10 44 246 214 144 b 658 -217 600 -97 644 -137 l 676 -208 b 904 15 700 -144 763 -68 b 1294 504 1072 114 1294 244 b 967 853 1294 708 1156 853 z m 876 31 b 668 -133 785 -25 711 -79 b 472 36 626 -65 568 -24 b 117 500 290 150 117 251 b 375 829 117 694 222 829 b 661 590 513 829 631 718 l 674 596 b 943 829 703 732 815 829 b 1222 483 1101 829 1222 681 b 876 31 1222 217 1003 107 z "},"♥":{"ha":1339,"x_min":0,"x_max":0,"o":"m 967 853 b 674 682 829 853 728 776 b 393 854 629 779 528 854 b 44 478 196 854 44 696 b 429 10 44 246 214 144 b 658 -217 600 -97 644 -137 l 676 -208 b 904 15 700 -144 763 -68 b 1294 504 1072 114 1294 244 b 967 853 1294 708 1156 853 z "},"✓":{"ha":1008,"x_min":0,"x_max":0,"o":"m 993 1004 b 531 256 810 756 647 504 b 333 543 476 353 410 451 l 283 508 b 517 167 375 400 453 281 l 1022 986 z "},"❛":{"ha":400,"x_min":0,"x_max":0,"o":"m 360 0 l 360 99 b 124 331 235 99 124 201 b 338 615 124 443 201 567 l 332 629 b 51 274 146 565 51 413 b 360 0 51 129 153 0 z "},"❜":{"ha":394,"x_min":0,"x_max":0,"o":"m 75 382 b 356 738 261 446 356 599 b 47 1011 356 882 254 1011 l 47 913 b 283 681 172 913 283 810 b 69 396 283 568 206 444 z "},"❝":{"ha":719,"x_min":0,"x_max":0,"o":"m 346 0 l 346 99 b 124 331 226 106 124 206 b 338 615 124 443 201 567 l 332 629 b 51 274 146 565 51 413 b 346 0 51 132 149 6 z m 679 0 l 679 99 b 443 331 554 99 443 201 b 657 615 443 443 521 567 l 651 629 b 371 274 465 565 371 413 b 679 0 371 129 472 0 z "},"❞":{"ha":714,"x_min":0,"x_max":0,"o":"m 75 382 b 356 738 261 446 356 599 b 47 1011 356 882 254 1011 l 47 913 b 283 681 172 913 283 810 b 69 396 283 568 206 444 z m 394 382 b 675 738 581 446 675 599 b 381 1011 675 879 578 1006 l 381 913 b 603 681 500 906 603 806 b 389 396 603 568 525 444 z "},"℗":{"ha":874,"x_min":0,"x_max":0,"o":"m 438 1028 b 60 651 229 1028 60 857 b 438 276 60 444 229 276 b 814 651 644 276 814 444 b 438 1028 814 857 644 1028 z m 438 304 b 90 654 246 304 90 461 b 438 1003 90 846 246 1003 b 783 654 628 1003 783 846 b 438 304 783 461 628 304 z m 440 879 l 351 879 l 351 419 l 392 419 l 392 613 b 440 608 404 610 422 608 b 619 751 547 608 619 665 b 440 879 619 835 556 879 z m 439 628 b 392 632 419 628 404 629 l 392 861 l 440 861 b 575 743 526 861 575 818 b 439 628 575 669 526 628 z "},"′":{"ha":214,"x_min":0,"x_max":0,"o":"m 56 628 l 69 628 l 192 1028 l 117 1028 z "},"″":{"ha":394,"x_min":0,"x_max":0,"o":"m 56 628 l 69 628 l 192 1028 l 117 1028 z m 236 628 l 250 628 l 372 1028 l 297 1028 z "}}}
